<mxfile host="app.diagrams.net" modified="2024-03-01T21:37:00.941Z" agent="Mozilla/5.0 (Windows NT 10.0; Win64; x64) AppleWebKit/537.36 (KHTML, like Gecko) Chrome/122.0.0.0 Safari/537.36 Edg/122.0.0.0" etag="oEXBcJCQXK0eV8q9pf4L" version="24.0.0" type="device">
  <diagram name="PÃ¡gina-1" id="yYk2LhEwOHej5-gC3zL9">
    <mxGraphModel dx="3600" dy="1577" grid="1" gridSize="10" guides="1" tooltips="1" connect="1" arrows="1" fold="1" page="1" pageScale="1" pageWidth="827" pageHeight="1169" math="0" shadow="0">
      <root>
        <mxCell id="0" />
        <mxCell id="1" parent="0" />
        <mxCell id="byV3v_472FBZaSbdoY92-3" value="" style="edgeStyle=orthogonalEdgeStyle;rounded=0;orthogonalLoop=1;jettySize=auto;html=1;" edge="1" parent="1" source="byV3v_472FBZaSbdoY92-1" target="byV3v_472FBZaSbdoY92-2">
          <mxGeometry relative="1" as="geometry" />
        </mxCell>
        <mxCell id="byV3v_472FBZaSbdoY92-1" value="veirificar que el id del ususario se guarde enla BBDD" style="ellipse;whiteSpace=wrap;html=1;fillColor=#f8cecc;strokeColor=#b85450;" vertex="1" parent="1">
          <mxGeometry x="190" y="150" width="180" height="160" as="geometry" />
        </mxCell>
        <mxCell id="byV3v_472FBZaSbdoY92-5" value="" style="edgeStyle=orthogonalEdgeStyle;rounded=0;orthogonalLoop=1;jettySize=auto;html=1;" edge="1" parent="1" source="byV3v_472FBZaSbdoY92-2" target="byV3v_472FBZaSbdoY92-4">
          <mxGeometry relative="1" as="geometry" />
        </mxCell>
        <mxCell id="byV3v_472FBZaSbdoY92-9" value="" style="edgeStyle=orthogonalEdgeStyle;rounded=0;orthogonalLoop=1;jettySize=auto;html=1;" edge="1" parent="1" source="byV3v_472FBZaSbdoY92-2" target="byV3v_472FBZaSbdoY92-8">
          <mxGeometry relative="1" as="geometry" />
        </mxCell>
        <mxCell id="byV3v_472FBZaSbdoY92-15" value="" style="edgeStyle=orthogonalEdgeStyle;rounded=0;orthogonalLoop=1;jettySize=auto;html=1;" edge="1" parent="1" source="byV3v_472FBZaSbdoY92-2" target="byV3v_472FBZaSbdoY92-14">
          <mxGeometry relative="1" as="geometry" />
        </mxCell>
        <mxCell id="byV3v_472FBZaSbdoY92-2" value="ventana profesional y cliente" style="whiteSpace=wrap;html=1;fillColor=#f8cecc;strokeColor=#b85450;" vertex="1" parent="1">
          <mxGeometry x="160" y="440" width="180" height="120" as="geometry" />
        </mxCell>
        <mxCell id="byV3v_472FBZaSbdoY92-7" value="" style="edgeStyle=orthogonalEdgeStyle;rounded=0;orthogonalLoop=1;jettySize=auto;html=1;" edge="1" parent="1" source="byV3v_472FBZaSbdoY92-4" target="byV3v_472FBZaSbdoY92-6">
          <mxGeometry relative="1" as="geometry" />
        </mxCell>
        <mxCell id="byV3v_472FBZaSbdoY92-4" value="verificar que el id del cliente o profesional se guarde en el locarl storage" style="whiteSpace=wrap;html=1;fillColor=#f8cecc;strokeColor=#b85450;" vertex="1" parent="1">
          <mxGeometry x="180" y="610" width="170" height="110" as="geometry" />
        </mxCell>
        <mxCell id="byV3v_472FBZaSbdoY92-21" value="" style="edgeStyle=orthogonalEdgeStyle;rounded=0;orthogonalLoop=1;jettySize=auto;html=1;" edge="1" parent="1" source="byV3v_472FBZaSbdoY92-6" target="byV3v_472FBZaSbdoY92-20">
          <mxGeometry relative="1" as="geometry" />
        </mxCell>
        <mxCell id="byV3v_472FBZaSbdoY92-6" value="vista cliente para crear ordenes" style="whiteSpace=wrap;html=1;" vertex="1" parent="1">
          <mxGeometry x="170" y="825" width="155" height="95" as="geometry" />
        </mxCell>
        <mxCell id="byV3v_472FBZaSbdoY92-11" value="" style="edgeStyle=orthogonalEdgeStyle;rounded=0;orthogonalLoop=1;jettySize=auto;html=1;" edge="1" parent="1" source="byV3v_472FBZaSbdoY92-8" target="byV3v_472FBZaSbdoY92-10">
          <mxGeometry relative="1" as="geometry" />
        </mxCell>
        <mxCell id="byV3v_472FBZaSbdoY92-13" value="" style="edgeStyle=orthogonalEdgeStyle;rounded=0;orthogonalLoop=1;jettySize=auto;html=1;" edge="1" parent="1" source="byV3v_472FBZaSbdoY92-8" target="byV3v_472FBZaSbdoY92-12">
          <mxGeometry relative="1" as="geometry" />
        </mxCell>
        <mxCell id="byV3v_472FBZaSbdoY92-31" value="" style="edgeStyle=orthogonalEdgeStyle;rounded=0;orthogonalLoop=1;jettySize=auto;html=1;" edge="1" parent="1" source="byV3v_472FBZaSbdoY92-8" target="byV3v_472FBZaSbdoY92-30">
          <mxGeometry relative="1" as="geometry" />
        </mxCell>
        <mxCell id="byV3v_472FBZaSbdoY92-8" value="cliete" style="whiteSpace=wrap;html=1;fillColor=#f8cecc;strokeColor=#b85450;" vertex="1" parent="1">
          <mxGeometry x="-70" y="470" width="120" height="60" as="geometry" />
        </mxCell>
        <mxCell id="byV3v_472FBZaSbdoY92-10" value="vista para crear un cliente" style="whiteSpace=wrap;html=1;fillColor=#f8cecc;strokeColor=#b85450;" vertex="1" parent="1">
          <mxGeometry x="-70" y="330" width="120" height="60" as="geometry" />
        </mxCell>
        <mxCell id="byV3v_472FBZaSbdoY92-12" value="vista para actualizar un cliente" style="whiteSpace=wrap;html=1;fillColor=#f8cecc;strokeColor=#b85450;" vertex="1" parent="1">
          <mxGeometry x="-270" y="470" width="120" height="60" as="geometry" />
        </mxCell>
        <mxCell id="byV3v_472FBZaSbdoY92-17" value="" style="edgeStyle=orthogonalEdgeStyle;rounded=0;orthogonalLoop=1;jettySize=auto;html=1;" edge="1" parent="1" source="byV3v_472FBZaSbdoY92-14" target="byV3v_472FBZaSbdoY92-16">
          <mxGeometry relative="1" as="geometry" />
        </mxCell>
        <mxCell id="byV3v_472FBZaSbdoY92-19" value="" style="edgeStyle=orthogonalEdgeStyle;rounded=0;orthogonalLoop=1;jettySize=auto;html=1;" edge="1" parent="1" source="byV3v_472FBZaSbdoY92-14" target="byV3v_472FBZaSbdoY92-18">
          <mxGeometry relative="1" as="geometry" />
        </mxCell>
        <mxCell id="byV3v_472FBZaSbdoY92-33" value="" style="edgeStyle=orthogonalEdgeStyle;rounded=0;orthogonalLoop=1;jettySize=auto;html=1;" edge="1" parent="1" source="byV3v_472FBZaSbdoY92-14" target="byV3v_472FBZaSbdoY92-32">
          <mxGeometry relative="1" as="geometry" />
        </mxCell>
        <mxCell id="byV3v_472FBZaSbdoY92-14" value="vista profesional" style="whiteSpace=wrap;html=1;fillColor=#f8cecc;strokeColor=#b85450;" vertex="1" parent="1">
          <mxGeometry x="450" y="470" width="120" height="60" as="geometry" />
        </mxCell>
        <mxCell id="byV3v_472FBZaSbdoY92-16" value="vista para crear un profesional" style="whiteSpace=wrap;html=1;fillColor=#f8cecc;strokeColor=#b85450;" vertex="1" parent="1">
          <mxGeometry x="450" y="330" width="120" height="60" as="geometry" />
        </mxCell>
        <mxCell id="byV3v_472FBZaSbdoY92-18" value="vista para actualizar un&amp;nbsp; profesional" style="whiteSpace=wrap;html=1;fillColor=#f8cecc;strokeColor=#b85450;" vertex="1" parent="1">
          <mxGeometry x="650" y="470" width="120" height="60" as="geometry" />
        </mxCell>
        <mxCell id="byV3v_472FBZaSbdoY92-23" value="" style="edgeStyle=orthogonalEdgeStyle;rounded=0;orthogonalLoop=1;jettySize=auto;html=1;" edge="1" parent="1" source="byV3v_472FBZaSbdoY92-20">
          <mxGeometry relative="1" as="geometry">
            <mxPoint x="240" y="1120" as="targetPoint" />
          </mxGeometry>
        </mxCell>
        <mxCell id="byV3v_472FBZaSbdoY92-20" value="boton crear orden" style="whiteSpace=wrap;html=1;" vertex="1" parent="1">
          <mxGeometry x="180" y="990" width="120" height="60" as="geometry" />
        </mxCell>
        <mxCell id="byV3v_472FBZaSbdoY92-29" value="" style="edgeStyle=orthogonalEdgeStyle;rounded=0;orthogonalLoop=1;jettySize=auto;html=1;" edge="1" parent="1" source="byV3v_472FBZaSbdoY92-24" target="byV3v_472FBZaSbdoY92-28">
          <mxGeometry relative="1" as="geometry" />
        </mxCell>
        <mxCell id="byV3v_472FBZaSbdoY92-24" value="formulario" style="swimlane;fontStyle=0;childLayout=stackLayout;horizontal=1;startSize=30;horizontalStack=0;resizeParent=1;resizeParentMax=0;resizeLast=0;collapsible=1;marginBottom=0;whiteSpace=wrap;html=1;" vertex="1" parent="1">
          <mxGeometry x="177.5" y="1120" width="140" height="90" as="geometry" />
        </mxCell>
        <mxCell id="byV3v_472FBZaSbdoY92-26" value="descripsion: String" style="text;strokeColor=none;fillColor=none;align=left;verticalAlign=middle;spacingLeft=4;spacingRight=4;overflow=hidden;points=[[0,0.5],[1,0.5]];portConstraint=eastwest;rotatable=0;whiteSpace=wrap;html=1;" vertex="1" parent="byV3v_472FBZaSbdoY92-24">
          <mxGeometry y="30" width="140" height="30" as="geometry" />
        </mxCell>
        <mxCell id="byV3v_472FBZaSbdoY92-27" value="button : crear" style="text;strokeColor=none;fillColor=none;align=left;verticalAlign=middle;spacingLeft=4;spacingRight=4;overflow=hidden;points=[[0,0.5],[1,0.5]];portConstraint=eastwest;rotatable=0;whiteSpace=wrap;html=1;" vertex="1" parent="byV3v_472FBZaSbdoY92-24">
          <mxGeometry y="60" width="140" height="30" as="geometry" />
        </mxCell>
        <mxCell id="byV3v_472FBZaSbdoY92-35" value="" style="edgeStyle=orthogonalEdgeStyle;rounded=0;orthogonalLoop=1;jettySize=auto;html=1;" edge="1" parent="1" source="byV3v_472FBZaSbdoY92-28" target="byV3v_472FBZaSbdoY92-34">
          <mxGeometry relative="1" as="geometry" />
        </mxCell>
        <mxCell id="byV3v_472FBZaSbdoY92-28" value="put de ordenes en la api" style="whiteSpace=wrap;html=1;fontStyle=0;startSize=30;" vertex="1" parent="1">
          <mxGeometry x="187.5" y="1305" width="120" height="60" as="geometry" />
        </mxCell>
        <mxCell id="byV3v_472FBZaSbdoY92-68" value="" style="edgeStyle=orthogonalEdgeStyle;rounded=0;orthogonalLoop=1;jettySize=auto;html=1;" edge="1" parent="1" source="byV3v_472FBZaSbdoY92-30" target="byV3v_472FBZaSbdoY92-67">
          <mxGeometry relative="1" as="geometry" />
        </mxCell>
        <mxCell id="byV3v_472FBZaSbdoY92-30" value="vista para listar el estado de la orden creada" style="whiteSpace=wrap;html=1;" vertex="1" parent="1">
          <mxGeometry x="-130" y="570" width="120" height="60" as="geometry" />
        </mxCell>
        <mxCell id="byV3v_472FBZaSbdoY92-37" value="" style="edgeStyle=orthogonalEdgeStyle;rounded=0;orthogonalLoop=1;jettySize=auto;html=1;" edge="1" parent="1" source="byV3v_472FBZaSbdoY92-32" target="byV3v_472FBZaSbdoY92-36">
          <mxGeometry relative="1" as="geometry" />
        </mxCell>
        <mxCell id="byV3v_472FBZaSbdoY92-32" value="vista para ver todas las ordenes creadas" style="whiteSpace=wrap;html=1;" vertex="1" parent="1">
          <mxGeometry x="450" y="585" width="120" height="60" as="geometry" />
        </mxCell>
        <mxCell id="byV3v_472FBZaSbdoY92-34" value="200 status" style="whiteSpace=wrap;html=1;fontStyle=0;startSize=30;" vertex="1" parent="1">
          <mxGeometry x="187.5" y="1445" width="120" height="60" as="geometry" />
        </mxCell>
        <mxCell id="byV3v_472FBZaSbdoY92-39" style="edgeStyle=orthogonalEdgeStyle;rounded=0;orthogonalLoop=1;jettySize=auto;html=1;" edge="1" parent="1" source="byV3v_472FBZaSbdoY92-36" target="byV3v_472FBZaSbdoY92-38">
          <mxGeometry relative="1" as="geometry" />
        </mxCell>
        <mxCell id="byV3v_472FBZaSbdoY92-41" value="" style="edgeStyle=orthogonalEdgeStyle;rounded=0;orthogonalLoop=1;jettySize=auto;html=1;entryX=0.423;entryY=-0.014;entryDx=0;entryDy=0;entryPerimeter=0;" edge="1" parent="1" source="byV3v_472FBZaSbdoY92-36" target="byV3v_472FBZaSbdoY92-46">
          <mxGeometry relative="1" as="geometry">
            <mxPoint x="530" y="860" as="targetPoint" />
          </mxGeometry>
        </mxCell>
        <mxCell id="byV3v_472FBZaSbdoY92-36" value="objeto de cada orden que posea todos estos datos" style="rounded=1;whiteSpace=wrap;html=1;" vertex="1" parent="1">
          <mxGeometry x="470" y="720" width="120" height="60" as="geometry" />
        </mxCell>
        <mxCell id="byV3v_472FBZaSbdoY92-38" value="" style="shape=image;verticalLabelPosition=bottom;labelBackgroundColor=default;verticalAlign=top;aspect=fixed;imageAspect=0;image=data:image/png,iVBORw0KGgoAAAANSUhEUgAAAcIAAADZCAYAAACzfjCpAAAAAXNSR0IArs4c6QAAAARnQU1BAACxjwv8YQUAAAAJcEhZcwAADsMAAA7DAcdvqGQAANxISURBVHhe7H0HYB3F8f73mrol99471fQOgdBLIARCSSCVkPZPSEJCgEAgoQSSH72F3g3YgHHHxtgGd9xx71WyZUlWb6/df77Z26eTLNsyxRhyn7TvtszOzu7dzdzs3e0FnKTjwIuABG8O00SS2Y4kJSPo5u0J5GHrEpYnt976Ten2N9h+S2RingXLvGlLb7fN1W2a11LYdvZSX/aj0gaCeyC0RZZnUzRXdXe0hJe+BTxJokmJOHLYBQKeQhtNEXng5jlyDLIKj9hUVS8t6bzYDR/dWlrvftdj3OVt6ZqD5WP523RTCL9UfnPlRNO6rOORSYu9cri0OgaMeOryGOD+1y074eXrw4eP3SIgCsmcZvZk293JI+Up5WVpmp6gnjSjegLzx2otiTZSgJYP4anbLEjrVSweJJMsMAgGRYs0Q5OCbcfSWJmYIf+puFdB7gleuRknX8vbhVXgKTQpT8HWb4rd5XvREpoDDFZxN0Jz/WCe3XK/yNYctZ5jifgs/be8vfDy2Vu5BemaoyVcmRvB5aEXMII9XsA0QTKR1ONcj1Vbz8N/l/PUhw8fe0SDIXTBBENL7YCCFXjSiUHasGE9KqurwPM7HAwhHndwxJGHK5nC0trtNwlfVp++iWP1WSAXFByKFHjoyrjohQuTqV83xx7EdvwaVd4LhHZfyJuHKwvbNiI2BtuQE4V/RDAgAu/LiWfYG3jjPnz42Cc0nHY8kei5SCSImEk0tpG7h3sCOsEESitK0KVbJ3Tv0Qkdu+SirLLYFGoDUaF1vbdv4kn7ZfXJV3AGMg7q6Ngg3pB6RDyKU/mu4fEaFKbttiWBkG2qnc8c5IfHPTe7QSAUQDAU1LBPRpDw8t1DGz58+NgzGk49nkipVERC0Ezb0H55wx4QFya85ZghhrRVog5piTZIRiNIJlwChN2tjwMaLdzfKbSU7vOCx2jTYLG7/M+Cprw+R9jjlOceinz48LH/4LkGTSKWjGJd/jZMX52PmCi3AK9SvSfrXk7ciLALirGLikP569//Cdf/9neorK4Db9sZ+Gf+1wb7y7j58OHDx1cMjyF0UFZZiaffHI5pKzejPm7yFLRfzdmwpsoymURAvD8nko2DTjwV9z39MDJysxGLk5CTrua5Ux8+fPjw4eNAQYMhdJKoKC7Bddf/Bh3FXIU0U4xWU2O3R08hiIC4fxlOFc475SB8tGQjqhIBhCLW+LE53xAe8OAu2pdd5e9SHz58fI3RYAgDEfTrNxA9W4ljl1B30Bi9pobPq/Q0ToKE/DqIixFMQylu+MOv8KM/3I0BAw9BGh9oEBI+d8NbhU3Z+fDhw4cPH18lGk2NJuWvFhHURLJQFgaiNHTNWa5GeSQKSU3zyHo8kIaHHnkCTz/6MDasmi+0Uc1nCEs9T4M+DmRwH7f0qqWldD58+PBxAMJjlxJYt24t7rr3YSyeNwv/vOtxLFuVb3Rcc4rOKkp9xYKvXIixk2hdMh31sSDmTXkfpx45COGg+Iq0gkSqjqYa4M33Bi/2VPZ54OW1J/7est3RNJ/59cNu++fDhw8f3zw0vFDvrnBhXoBiXLbuZhelaA1bCi4LKZg7fz4G9OyMG375c2yrSuI3v/k9vnPJRcqWoFeYgpdP0zaI3ZUzvifXcndtNEVzbXrRtO5eZDSPAu2pwa8J2E8GdqUl3bG0Pnz48PE1hDGEHkXmvu4OceQMWqjgLPnCBQvRr28fhMTy1dbWY8mS5fjWmaeDi2bsWa9SjAZBGFdb57gWb3cV1YBLobecWW52Uox6QgKTaV7ryQzCUy+VZSMCjoe+CtYMfVOwlW+EIfThw4eP/yHsssTa5wEZLVq4CPV19Ugk4vpCfn19FGee/W1DsDs0a2S8YrFATZKmFCy22dw2tT9uufbOLWtKkuLhgTeLcQZPq3tBMwx9+PDhw8cBjcZfn7A6vDnj0kId//74CTjv/HPdlODLsA1cZNu6mERDDzRK2x7UKV4h5QLFXBigOTn2IpvykkCSPZD58OHDh4+vMYIpLc9g7xPSbtg4jaIbbQnica5TagyQooUWhNQ2pFZk8ySSccokEf4EmTD5lDkRlzw37YiRDHIu021XjaCFkOm7/QxuFb0McOtqex7YYbHFPnz48OHjmwfjKtG4OGJcgq4loOanR8Ut7Yi1CF8ivM0wruY04WDNlOnYNmuRROPmdqGTwMalc7FxbREppIKDkLsU3OrVq8QQ1yNeVY7C5ctQtG6d8qAtjXOx70ACiVQjDhzeO7Rpt6/1svFCSU3Uhw8fPnx8A2EsiE4zOqiqi+JvD7+IH954O4bPW45yWgHC6xJ5418UaH+FLx9S0QdVJK3GpzaGxR9OR8m8taiuTxgjlazF4jnTkb+jwCzmbT9d48RQuG4F4pVVcGprULRhKUo3rBD6qK6SExaiWOVORF0Pk55gUhpV2882A7VYsHIevv+3m/Hje/+DzVVRfitDnWTzqM1eQBIbfPjw4cPH1wZqbxTJAKrKyvDbn1+D5//9d0z+aDoqmc2y5gziFwlKwTbcoHaZDWdEcNLlF2PAWSchKz0dmajF3FFD4WxYjy5duprFvOOVeOWuP2HcE08gIyreobiNkZzW6DvkWHQ7+FAgwi9pSD9itbjyioswf+FK421KQwFp2HHfc0yKq8gp1Yfv+TsuvvJqlFRU6LcyzMcD9MeHDx8thX9B6ONrhAZDGAyjc6fO6Noqgu0F29CzU0dkSHYjE7A/7QEfiIkE0PWIg5A+sCvS9AtODo694HxccNa3UFpSofJsnD0L5xx1Mi646lqMHzsOgZAQZmYiq0sfCT2lTlC8ujiCwuvd8R/glGMGG7srdfmKiF0RJxjKwMBeg/DGkw9i9eyp6NiuNcy64wnxUsVY2hPbP8F9fNXwj0EfPr5QNBhCnlxJBysXL8dLH6/AtT/8LnIlS6cqvSfefjKGwTDdQkbkJyQCaLtZEs9CaTAusZDIFcfmLaXo3Pc0oH07XHDZBeLtJYy84uYFkqZ7RmROkOYgJPZVFxR3YpLvmfSUahmRHPz5N3/G1acdhVWrPjWeIweAxtD22273BO94uVCRPGFf8FnrtQRe3p8neNFcuTdYNJfXInymSgJvg97gie4tKCSSin8V+IyN2z7sKXxhaMl5sjdYgZoK2ZJA2K1FU5qm5Z8BXzC7XbA3np+n7c8j777U9crY0rC/0WAIAwmsLyrHo59sQr+jhmDWyu3YXif2QQ5ofcDkS0bTgeCtPJ2WJZJRyWRuORLL56L+k2WonTUJFRtKcdSRB+Hjkf9GxZixWD53rjiRUovy2sBNQLzEeDV+fNHhGD93A2o1l1Om7uvvwrqwpBD3vfAEXlnxKd5bm4/WnbvK4CTEMa3HdT+6BtE6GYyWwLZLcd0OMOqFp2jPcCtalo0uStxtk2RjxqnMz4svjNEuCKhPvhuwWRssmsb3Jey2oQakPP/9Ca+MRNN0I0hmarWLAxhfhIiyv3QYuNUTQHObhy330jVH783zxrUhOXmanphMM9j+NOpXc51knreCB8zyBi/v3QQVsWl+MyCbRmiGrmnWLsNjCWw7zfAgbJFX9D2hud1woMF9oZ7/cdREkyisDyLMA0Kkb5OTjjQhonPWYDH3jDGjx+Ci71zU8P7eZwQHt2EAOeTkJQaxfCdQFUUs1Apo1QqR9ATqduaL45iFYEYOwlk5xuWzDFKMHJQXbgLyeiOPc77MJzjtKQQ80WrjcZTV1iMSSkPHbBrKSrHI9bjnn+/ib3de38BvT1BrpZFdaT3yuJt9g4e1F9yDmqU/uyFqihaSNUdnsywaNbsnNNMWq6WGjCAN026ebty8lFduDwcXqiSboJmsFsOK04iHzSS8BcxvrjFvvreuoFGVpjRN+THeKE8SusNlAGwdL71FM2XNke+JxT7BMvLiczPdA6zmt2007dSe0l545W6JvB5ejDatrkWWxhZKvJms1Ntq7ivPu8JWagovExcp0qZ1vLQ2TjSl0XJxP3TLk8sl8NI1By//pnD5epttKfbW7BeNQEIModEpFJehQcPoE5MikWdY9oovyhDuEe4AW9CU0ZjpPT/Zl/oQDcsZmtCm4MlXL0DimmSc0EQN6irLsHJ1DEcc1cvk2fLdwWr15rSzxR6K9ohGsnkg+SxSQ6EvWzKxl7FP9WN3TJvgs8q8J6jQ7pawbTDt5unG5stWo00ModWJzcFWJRi3TbYYtoKVifF9YrArGl+4uCDvprDltl0LZSAZto63zKLJGLUI5Ne0Le+FHWGTTeHNJynT0v7uyPeEXbrTRATF7gxhU1qmGZj21LdD2EhAt9xUcZdLJJ3JVtBvCFjLJWXe6oSX1gvSuVUUjCddYm6aq0cZSW8e2PPAy8RFKouR5uhtnsQ12WyD3kF1CZqlc7deNEcn7Pbqye8Gn6HK54KeKuwXd7tJMsUBEUMmv3SuUkI1NwBfOox0KaSidqeJfDLa9pwP8qEaPmhjscuICgNdmcZNCuxxbZpykEiINSVNMh0Z2R1w+JHdm+GzO5BwL8S2S/ZIbymaY21ZNDLAe2mfaCGZgqw9QcVmnNA8mxBoejeBsFuLpmkLVz4rZmofEXZnu2DSG1J0nxVNZbbwMt6d3HuCW0eV0O54Md60fBfssfCLQyNXfTdoKooru70OdJP7FBRs2gaLZsTRrFQlQSMmu4GXj6VvUse9adKwr1JBfrh10bQoVWa3hMS1zERTRXs9XpsWUG6qNpWfP25HxIAl6c0xKnW0RH7MZB/zGTRD/nm7Jy6BW28QHkLm0DrTA1L9x61UbRQkj3KRjHqSccmyoujWpWX7JjBuwoGKlPNk5WeKn9k1uQJGbQfcrP0LNsrHWgTJmMjifjRYDyEX2gGh4InLrX3QpllIAb0ldpZMlbG7ZWBVnQtmRC4DghEhl63uSaXcM0jWlI5pG0x3DEjoHjS7C7vwsmA+adgdBs1g2mXOZNO6TXhrSBFK8ERtkudFnCxdtkQjMs13iQlL21wg7FagVTxpzaBMZMd9qYqYJ7EKmoKe9DwhExJcem/QqhL1sta45a0bl9iFplgmQcmkgmWdgmWitw5MidbTWDOQgqb7L8VfE7uWew/rXaCVm1YQMMubzQbcztsqlmR3QcE6bj2FalU3aNpsUj2wtCSh3Aw2j/A28EUEge2LtskgUW+gZDxiDNxcr0we6NjbSm6XUnluYJpRtusNmtc0MJ8FAltPQyoiwYOmPLW+W8Ztipcnbsc4Ked5QjvGlhPiNZoDhzkMJDeea0jGqeGgoi4LhcJKH5Q4l6I0cRO0DnWfBtZnJW+QdoU5W2V9jdgywkNLXiYwbsKBiqAdYR1fHXH2zfqBpizVyS8LbIYD6rbPQLG8BwgPbkeMEjj4VjQGW1FHWYLXG2S5FkuEBtThc6AxcwJph90gxeQfE2JHlFzDS/YSLFqyF4WEsiolfxjIh7BpixSRR15Jqs7xBFffGjBuZSP0+G5IMGYMiER0qzksbCDbE2y7Llg9KOMRCOjom0wBp6Dt8aJNKBrKdwGL3GKKb7mp8dbpGNm6bdPw8uEsM0MhZfrwU1Cf4K0nqUBOWSEQLiQhuG0SdEO2bjDDzL5wSxkoBYNpX+ndug3nv8k3NBIoLmP6kmsDzIVjA1LNSWXuz3iqnDxInZQ6XM5B+LPINGaCFckDjolpl48W1Qsdl3oQrs08GKbQ48KAfdL+yDmgwebbIIxVBgu3gHKn9gXzVAJ3zMhUAnNsVXNhwXJeqEofWeeLDgIe3xw5HT2Jsx0rh1cek6A8AqGxY6iQuNsFw9ejC2x+o0AS+WEISZv2+NCtJ5i0aUWiDcFGUu0Y2bkNegLrspgw9ZinZKl87YQkEjwvmVT9zfGwPqyBHgJSxFJzOJGRh8KNO9qAG2clCY32nWVCGDJVp8rfpTfj7BJx44am3iDDgQpeArhRlV07676ylxogdyS/XNhBdgOb1oNPLj+CogUpkyFxCTn2EpVrIYl4BKShFHCpU165pEafT47yysgx5dqIp1pIeEXEAgaS5VImJzntJsuFTvWey8Y2n9oSLIu6i7NRHFvmrWMDwXxH6J2dQm/qWcPMg74RLbdKL//cko6QuF6ZMc+FQ4+Z0xWqHaQPLEz13wQtIg8bpEHvyaBQWqmn5fIjY5bUhiRIGZWKglsOktLX6Uo8XPZV5fVCytkui0iql1lKJyny97St+5xBUxLRZuvAZ3brJLNa8yWT95+FkCxU+YocJKUajnOax1CZH9swr3Ilza6F5IhK6mCwQJkoGmIS13FhzJVRKjLP4dHIejLUvO5im2yEF1Ecblah/E4iLhcNcW2+jCRSolfksuVKR+bqm4RaKFDBTB4hSRaxvhyVqJEQkItBRx9hIxcPUjwaEHftgAHlNzX4a/nuDkopRBwrM7KmfkKPJ4nL1vJhvxVMUHj3oLSHjMm3W0cvarhYR4UEpXH1KPNVKEtvwYbcIP6NRnhRUCVbjokZLtETwojDR4pkQPaKHltaaGpZvkpgonr8StocR3uCEczQ2cqGvQ0mX4JeoAhTy9O2mwLHTi64U8eeJbRbF1qP/fDwki2zA+wb29Lzj8cUwRKRUbL0HHWrmTGLyniZY1V9BclS88kdoHOi5mDmvuQFk2aTzh6jLkjKCTNylJTqhRp6ndqSFFpZJfACOsiLaImzq8FAvUSNAVcGwj8eN8byq4bbRQ4ePSUHq7Zsx+JVG1BQFdMlzfRA/bLhDhwDx909X+GUV+KVO+/C7GeGoqq8tpEsO5cux9b8InPymKE1g+vSKA8GundMMD/pahlmSUx/3INCkajH9LHvYOLYiQiI86nHmuVjIfu1anW+UTI2X+qPffRRbNlapOwM2IgUeOtasL1ALSa//TgWffQBxo+ZovV4lcd8slaRmtRlN7j4+PPPvIjVi9Zj+ZoNmpmoSmDqpwWYtWIbymJho5hZl4pfOkG2qT5KPqMNgVeS7tW9bU/l5jFhesMkp03sONJQKR9WYr6Maby2DJdd+3sUydnG7KZgn3YBq7pQI6KjwBORGYwLgSj+eHU5/njr4/jDrU+hhppPYMdI9zPVgAgTlSraNmWTuDqyWu5uk/VYu7FE40wGWY8ag025QjcnO8Fx4qq1OmOg8pn8t98agVppW/cdZTfZigDHRnbYvPmfolBk4XgpmUfr6tr0kjRr1Jv81FgxKXXeeGMUrv9/d2HtBrlwSgZdcV3Dq1d7pguEXoUzIYEXd+YCxkBpmJRA1toP06TJ94AfpdH9rvTSGi+wOGJ6E54wFXmxRYPO1fvZP73KsjRCktL1BLfxWrz8xjhcf/Oz+HjmWrcO8PBDz2En32uy9J5AEtNnBp0PwLgJM/DL3/8LnywqMAX8ES391vAJmLe8XFJUzkKpZZRcQH52KxlmnCXitqE/Lr1ubaP80TJHzi168y4jzZMgdOwH85nUHaCBCRcSN311IxwYTZsk66o8bl51TQI7K3hpyWOUF7gSdZt1xbdJ3VcpyIWX6i2CBOyDHIM78zdj1Ecr9GJVz1+BPlmhJ5DhSONqdQFh6fTYFB7V5dWopHIRWUxRAGs2bMLL787SlMrKkgaWum2Qlb8xzJ27FNvy+WDlQoTDkqcn6lcLO2QyeEms37gWq/MLUZWWi3+9MlyvYtXQmF7sV9iDIiKRNDnAA7JXgtzhdDkkr7UoBJ22U2rZO+oJaUKElisRifPleXNgSUR3Jgvd7lDJO3JY8OpN84UwEMMpJ56EU0473WUlPBNCQ2WiV00Sj9dj5vMvIlEnI0Miyeb2wst/iI6dOhi5CX7mIil+jGFkwHZ4JGpevWzo3wTlYMjQPE67fDrtbfzgujtS04AqrBv0/NE/ScqJRBJ27dHHnkZBblcUR3rixVEzUEt6IaqRwKvuWGovG1ZBTs/Rogpi0j75kpfKLpGoUNHT1hNFyuplE3VpomRgqioz1klKRjCci9vveQBpOex6ahRSoAjCQrtPfRd3M8gqJox5Eib0MpZBoEaYciZQLQqh3xFDcP+9v0aHLMkWWmlR22aIcyzkqtR6qlSVNAJ03Mg7Rl1CdrX1+PeL76NQ4pRFm/I0ydy4KB3aFsrJY5++ZUzS9ZoXFn7iiUl9fbdWhE8G0iQuYyjtB9TVVs6KOtVIGXLRlI16oaXOYT23a6YdIWGSpJSV4JjUSpnmC/21V1+M3/z0CqSLRGw2IONbJ0qnVuRJSEctHevVS8Te06Uh45hSfjs2LItJsHvIbdKAoksG+x4VPgmRiftJ+YRCmq/15NiuEzpeKMfkvOTxQnAM6iVqL6DN8WraoCepFwtiJNPz8vCv+36Bc07qr4499ed3f3gNApkSl3OQbXDs2R550WthHq+BODPA1s4/+2T89YafIeLIlZcoUpooekYnnX0uOg3Mk7SMizReJx3mviO/uHBJigy8iGWagcxsnPIqnWwpM2VnMDssKOPGKfqQ8DHGgmPK/anjxK3ka3kgrMcjeev+lkCQRqe3pYzHDOuRhrzYLvtq992qzcWYs2K75EsimGbkEHAcOAaUlecnn/nne9KUUCvKFbw5dpXARZoMTSYqHQ6waY8fKyfilEcu2DhebJvphMpoZNG3p8lHFOqy9QVYVermafUAOvfojVPPOTG1v7nlBxLYl3qRzaHzIUKr2nY4k8EZDd4sEN0tJxLv9zeY3q8OoTvvuPNOmhNHBrN96zaIiPJeWliJnJzWOLxfF4he03FQpCK7x+rVqzFw0EAZFBlae0nxGaDHSEY6DjvrW+hy/BCkpYtWq6/CtMcfxOJxU1BbWI3cw/ojPVSEFe8+j6VvjkXBzkr07NsNFRsWYeozj2DDpE8QbtcTrdu0wdwXnsLi0SOwYfU29BvUGSXzxmPcXbdgY0kVZkz4EEMGdcLKqSPwybMvob7DoejaqxNqNq7D/JefxYpx4zBnzmwcdshgTHz8EWyfMxMFa5dj87Y69BvQB6P/7x9Y++oU9Djv20jLlGuqbZsx5cEnsHryBGzYUi/tdcXTN/8IhUsLsHzkB+jQqwsyOvRAn0PPQZdeA4VHD+0vT/3tm5Zhe217nHrS4Ygwk0eXO/B6PMqYHnXMkWjXuTU6tm0lVZKYvXgNKkM9cGL/TJx5TE9E5Kya+fECPDxyMSYtXIf+ffuJAZHaZOXyqxfr8Oxr7+O/I5dge2UQsxYtxKCB/fD+sHl4edKnciKW4UiRe9aU6bhl1FoU7KjHmk2b0LOP5M1egb49O2Di5IWoqY0hJysdDz37kfD7AN//zvHIEe22fOUqPDp8IcZ+tBzZGRnISg/gT/95BzNWlmH6sq2IhNMRqijHE8M+xaiPlyCc1Qq9urQSyURZiaj6PUknhNVLN+Kh4YsxdXkBlq4twpAhIuO4SfjPW3OwuSSJaXMXoOdBA/D6a1MwfNJ8zFtVhCMO7Y1ZoyfglU+24s3Jq7FjZzl6dW2NJ579GB+srMSi/FqUVFfjyD7tdVDZlEK22zatx7PD5mPU1NWieBPo0SMb/7zrA3y8aANGy5XskBMGo3jxctz0wgys2gFsLy+V/TEQuRRaZSafJCpLi/Dnxz7AzJkrUJMMY8Ch3RHfvglPvjEbI6euQ4VoisyMKjwxYi5OGtIX8xasxNbKHGTXl+M56e+Yj9agpC6Brr3bIEP45W8rEvowOrTNghOrx9+fm46x05Zj1rIN6HN4fxTOXYPR8zfgudFzsGrjDhw9pDNmTlmFl8Z+gmmLt6Bfn75Yt2I1/t8rk/HJ6hLMmD4XrXr3QYecCHhRntJFpZvx8/8bj3lrohgxcSZ6HHkwQjuK8a+XPsALwi/QpisG5sbx98dH4N0Z67C6xMHqTTvQN93BQ298jOc+XIECuRI7qV87veAK8GJVAmcUyot24MEXJ2PCgkLMX1OJUFYmekRCeOjFiRg7bxWOP3EwWsd34hc3PIPl2yJ4RdrP7D8YnepK8dQbk/DKh6uwTvb5yf07qAEtLK1DrVz09urcFol4JV54ZyqeHzYdJ51wJDrJtWWsqhb3vzAez0/ehBcnLMJlp/XF+Kkr8cqI+XheaAedfDRiRVX487Pj8Mb01Vi2ZCUqIzno3SWX11B6PATFMEP2yZ1PT8L0NQm8Ih5nxsCDEE6EcNv9QzFtRSVmLVyJUE4IK8VKPPfmJIyYsRgZbXqKAAHMXbwUPXt2xtSRk1EYyEBOMISXh0/ECyLHOrlCPaZXG0ydtRqPD52JcbNWodeAnqJDt+KF4dMwnefK0rWiT7tg0ZJ8PP3qRIyfsxyxrE7o20XX1pLdJgMh+46qdmdJVC6EZ+L5D5djrVw1HNe7NV58bxZembBcjp8dCLZrh0E92mDC2A/Rb2BfDHt3qujLLijdGsWTMgZvzV6JZLbwbpeJt0ZMwQsfyjG1phxnDemC0eNn4rVJqzFpeTWmr9uE047sgRmzF8t4z0a0Pg9D+rZC/qZCvDtmPAYMOQxz569GSU0tthbF8PjLozBm1gLEY7no26stenTrjFa5AelXV+mB8USbgofkfoUYLIfvEirEx47FY8724q3ODQ8+62yTrGiqsGUYPWq0bhPxfago7TYbBOSS4K+kE2vXOiP/737NrJnxqbN1y2Zn8ZQRzj++dbBz7ynHOX889xKnbMNqZ+Wk4c6dpw9xnFkfOk6t4xSuWOXMG/GacIo68apaJ1lfJTwKnA3vP+PMnbLYNOLUSdju7JzzujNt2jJmOBVbNjirPhjDQXHqV6x1Vsyc7Tj1jjPlT3c5yeqalIxOPOmse+A1p6qqXhyYUmf1rMlO9cadUq/SeeofIm9hgfPMLb9xikql8uY1zieTJ5GNqc+2Pf1lA/Vx2aTSzUNFJoQuKqJvLtrpXP7jW5xHhk1xlkjT3/nRXc6Qq+50elzxN+exMXMNKSslyJwJGUNJ//vtuc6mSkkmk86SVQVOn8sfcQ698h7n8Mtucj7eUOf8+C93OZukSjTqOO9/vNAplKrvT1/rxKT+iAkLnHnL80WWqAxzrXP9jc84pTLelTHHufavDzpDvne7c+z3/+n89h9Pa3+3byxwrr7nNWerxCul7Tv/8YhzxGV3Ood9/x/Or+99xamWfJVOypIeOUvyS5y73pjpFEhSx03w5AcrnFmrdopj6zgb5Tj45/urnDLJHz11ubN6XcyZ9s5k55P11dz9znOvv+/IkDjJmjrn57cNdbaz75JOJERQiRMcG7Z42yMvO8dcdrNz9Pf/7nz3d3c6BdXFzqNPztJ2h01c4KyWRm5//E0nX6rWSXjxtTFOsXIQkFdCfoTvtJFjnPHLKvSoen/mcmeBMLjvxXecoy+/RcblH865P7nX2VGZdF6dvNQpLo4774762CkQAV57ZbhzzEV/FRnuds697h5nQ7kcs8Jy2rxVzrJ1W6SNmLNm/iLnrU+2OaXCe9rCtc7stQln+YLNztodNU610L75xjhn7oqNTp+L73D6SVuHXXaLM2IG68qxu91xHhn5kewxPTW0XxQ79VO03rnz1YlOvqTWbC11Ppon54oQFkl6hmz/NnyB7h8O3Y2Pv+OsknzycmrrnXyRf7bk/+yRsQ3HJ8ExiXN0Te4r4xc562TLsVFIneGjZjmy2wRFzvW/e8QprHCcdYWVzrjZEhEhdwqL+cLiuv/KOe0yX7J2uzNd+m9k5/5LOmMmf+ps5s52IYe18/Tbs51PSkTOeLVTKo3ukPwPNzjOqPXmOJgn9Nc/8LpTJnx5DNZRXNkyqHA1O5wn356kx1+1JJ98fbGO3dzN1c4f/vO66X/1Tue3/3lF+8XmXxq13ElKwaMvj3A2ivyvvDmFVM6zL05yTrn0dmfw5Xc4x/3+USdeU+U8M+x9He8qaT+/uFSHat7Snc74mYVOLfsWK3f+/OhrzmaJcsyeln3A/WYRE10bS9Q5Lw6d6pxwCXn/0zny9086dUL83LAPtb/bN29wnpi62imXNkaMnKD9HPrOJKcyXuY8/fp4Z4dkcPg3F8mvtFkiMiyR9M0fFCotMXPBFmeWHD+yR1zUOyXldc64STwSmYw6o8ZNdTZJ/ddHz5OMpHPf0FGO7CEdr8dene5UiODsUuNg/xry9jdSD0gSS5atwqYaB5mtuyCW5ISXlKlX4oYWwdhyzjV/ESAXTtIRwewMlBZt5wQ6nCpx0JMRtGrTHn+86S+4Zew43POf/yCvjVz1DD4cd7w7RryrLXjh0SfFY8nGikWLgZooSgvLEef8XiIo3m4AfbKyhI8w53xIIo5W4tv3jcvlFK+y5CdRw/syVcjfuBpZOeKByWVYeagagai0z3kK3piKVguvemTXydVvMh3hUARpFUVAba14BqXSiXTEg9mo4ZcwIgkkwjqR0zCm7B6DU4vNy2fgpTc+1KlIwkwKaSRFz43mSiRaFcU7I8Yjo30bPPD0vRCXlDMpOOs752DkG3fg+f/ejWOPO0q7qJ5PIKROIadP6iSdLZ5pvQxBnRS2lv7d+JtfYPibt+Jvf/8bOndKF28uCzUibJlUqKx3dIpv87btqJC6O+rSZBhzZOjCIk866qVhnZaVy+nBvbrj9Tf+ibeG3Y5LL79Sp0PrgxHxjo/UtnkR2K1bFzz37B0YM+zvuOryK3RMWEZZ9cBz+5sI5Qj/XJ0+4pRcneSnZbZGuvS5Rsiys2W/1HGqGSgpq5b+h6W6A3FEkSEDlSny1Ei9JMqREarRaXOOQZARHXfWNM316toRL77wL4wY9g/85JprkZUhR4nQhKV+jtC1km27TDkO5RCpEoErq2tTDyeSV1JnQUJo3aED1q0v0Cmikuqo8ujdriNeeuFevPPO3/HTn/0EmdkBHNkhF5+s3Y7N1XHkyrHVtXN3PPvUfRj99t9ww69/i1aZEZ3arA61Q1mog+ynMFq1ao1NGzbpFFWJdCyQHkRdLIaqmphOA67eVISs3Dx866QTMeLtv+PFZ+/FEQd31w7ywem8tj11nHXVKAnsPvvOgZeLTuRv367pbTulk+khzF6yFo8/8zGGvToPTl2tTudyf3bpOUj3CR/CWCI0r736Md58fQG2F+00U/ISlK+MiRMKIZYQf1/3n8QlW6IGIkQslKVl1Y54vOLuifOr51SWnJMr1m7CE09PxBuvLUb+VhlTaZ/95FlXilb6uTiOs06th/OEB1AhvJIi5PgPV+LE049H17bShpTf+q/n8cxrszH87XdVNmGlU7+t8kTnSYLjofdWWaiBOzeGnRVV2sbm4lqkZZvHT+KBCHoMOgIVkkiG5ZyXNrksMu+a1AgDinP4gAF47+0p4n2erv3Na98at/79Fowdfidu/cvvkAxloKaqXqcOxaHDevmJq6tXK556jU5jI5Qrx3BYp3TlUEJM9rU7s6kIi7cdlvOlbfts3PK3GzF6+O24/cZf69RmTYwTwuLolwX0IwqUsVw6UizxHfFckTOCsJwvO8vNPi3YsE3vwz/y+NsYNmwZlsyfoVPSZBJJ1CIidZnmOeg4cv6LvquQMRctiYTot84dO2LFgs3YGZXzQvJap4vOk0i9jMmO8kpzz1jATSpIZo2cR08//UQqb3+Dx0Gq4V59++KBJ5/BL//4d1xz1ZXIdvP3TTqzh8ydrBbC8m8aUhs30b4tTjzpJPz5u5fjgw+myAEQQZ8hR2HW5nzcdOnVmLt6jWi+Vli4aCX++tNf48HnX8P5F16ErK7dcMEFl+APF12KKeMmISLKfdaIsXjovkdx76034OE7/08N4btPPou7bvs/PPbPWzHqxaGI19ejbNsW3HrR+Zj36QL07N9PRiyJAacPwZ8vuxQP3XaPHD11+NP3voNX330LN159DWZ+OBt9DhqClx/9F+76/pW46pofAR3aIpjVGhl8gjBIo2iM0S4IJLB49gd45a0RagjNwyPNEbp5wiQtJw3HnXQ6LrjiTvzo57fj5CMPQjfZcQN6ZOGaK/+EVx99FH06mAcMtIoMJU863vb4y02346nHnsD3rroNb46Zhc6dcxDaOAvXXXMTaorWo2cmcNsvf4Ef/vif+P0tTyKQloU80RStpM3zL/sdZsyaLUojiKryOvz0Jzdi1drVuPKam1ElWvBPP/ke/vzre/Gj7/8VPTvlYcuWUvzsz3/H+HfewXW/uFvvgf7sJ9/HA3c8jB9f/le0S3e4pLqYEOm1aqcA4rUxrFq6Hj++4Ta8/da7+O3vHtMpsfv+8zT++9iT+Nmv/4b/PPMustu0RtuqYlx19d9QVFqJHqLzY0GxUklRMHICp0eCSJN6ocy26CTK4oqrb8TDTw5lI/pkp7EEEqIJXHPh6bj7lvtxzRU3yRh2RlogDWnpvI8hikB+0oTfTy48Ez/+2R9w7a/vRKu2HSCip8D7fLxPN/iYI7Fh1SpceOmfsG1bCXKlmctPOw7/+utDuO7KO9GnSyvhDRzSuzNeePNNnHLOGaqkzjj7BDwv++xH3/8LWqfFwZX+Hnl8GO7594P44y3/wDNvfohO/XshLV6Piy75A2bMX47eXO9BeL05bCTOv+LPOPacC9Gza2v89qIT8edr/ooXHnoW3XKB98dMwT9uvRNPPvECrv3FHbx2UIWqtluD/MgAhyIZ+P5P7sVTL76NAYdmyMVSe8ybMxXFa+ehYOkcfDhrES7+wa/FML2JH/3obsxbvR1ZHTph2gejsEqO30N6d8SkOctVAVMPSLfUsJSItr3sJ3/FMy++gh/88C+Ys3QrthXuxNW/uhX/ffUN/Pzam7F5c4lcwEgdqRwSQ5ORVoucDu0wf94MLPx4HA7ukocJkz/FG8Om4M8334rb770X9zzxpuw6B7ff8SgeePgpXPWjv2D4e9OU95Mvvoaf/+YuXC7jIg4L2nfphDEjh6Nf5zxMHTMBa9YW4sbf/QXTp8zAlT/4O8Qm6dlFY0h7pGMigxOQC70f/eIBXPeHv+GsCw/BJpHzpj/8CUNlDK755f1yiZWJG669Gr/6/h9x9Q9+j1NOP1it6gknHiLH/ma07yjHhnC68MKj8dEHr+OKy29A3fZCuQAI4ZLzz8OPr7oBP//DTeg6sKM+OdC5e0fc/39348Ir/4DV28px/RXfw6+v+n+4Uvp29jnH6bEoh7d5rZoCiy4896xjMGfGCNHdN6N6wxpE5Eqnfac20q+/YcT4OcgTUy7XTHLBGcb5V/0FsxctRziShR987yw88fBDuPCK36Frtx4Q9Yj6yp0Y/+Z/0SuzHg8+NkyNc/t2bXD3bffi6l/eiQq5Cnv73Y9w7c9uw72P3I/f3fSAXigcPLAfRr70NM468wRJBXDZt0/HjT+4Ad+7+o+4/Pvn6VfxOKIqM4OAq5AV7ShCJS20m+eJ7BcE6IYywl89IXjUMkePAhNNlbUAX9oSayqlgGcXZaOcLnsqd71CcvOioo2ComV42z1NdjpFZyCJViEdn3igW+LlJ4FXcdzpooNQtnUjdhRswMBjz1AHhWX6IKBbKcSDUA523qrnw+zavPIWj49HaFA8E8mnN2GfYCRvnls0RHJMGKhQAu0jiRnlLWRzG1l3he2/lrl9obaQWFK8BPaf3eG+Yi0+5ZeUq0iKwyt/bZB1pd8BXRFCiCUdkytCyqP3iQR681/qR6RmgPzFENBVc+TA/3jxXBx5yrFyDa5VVblxG+BTbeQnBl5fnyBEMYV5tjIqxeIkqyyE3YbJQA6smBigSER6qQ8lyNjxQkFkjASlfdlGI5nqsKcLOzMWDmplZ4izouOgP3K8cSEEfR5Dkqq/LKRc6SRPjxUTNbDCeDLNqMrYqAwhM4YsY6ZsKSYfIuH+427W+2C8octybUhAIZpCH1CSA0bKYnJJHZHx4THFBqQZ/Wi0+dyYQULG37wrZ/Yj26WCVlmY4TbJ5JJFG5DXpQPadcrR/cJ9ZI9t7m7RtwZCzIss7m/1jF2RyCggGbGd4v1N34EfX3wy2kg2i21V7RIbJKQ+vQKCu5nPsuo5KAUxnvuyLyiXnc2hPuB7cY50lAZB+yoMwyJAUM4TtkNKnjG6k8iLDcq2Lh6HI8cydVAgGZVxp8BBOVYT+tBHSDzMMM9nkVRPCY6vHIiUwR7X3CTlqiguNOwPVZNecLF9GV8dT5ExFkkId+oMtyIFqKnFax8uwnnfOQl5QqeHtX4IQBjoOS78JRqX+mFX52lL9SH89fnxGHDUMfjRcR2lv7I/xSWPybkRCGdqCyE5Jhx9WMVTzx1xrgDDx8JCQbki1RPbyMTjgHrIHgMWPG8pN2cQOEKhhFwIygBQC6oOEJADLw7D0oRW1wcGpZQJgp2hWyvHtGo1idbLOPNjBno5LQqCHjsdZe4PHW85EXjehfjDgy1NMnQ/SJoHoxx8ZMvAZtg7c6y4CNRi+bJ12LEtE6efKc6GKkvCHnlfPgI6QWoHwR1UPs2WuoGuHWKugHlmX+wWX+pao96zkrCyUM4mcqmO5bBLvrsLNZPvjulBJPm633giCUWAU4aaLQZEcnjcEXryyVbL3HZYFgvE9GDjk1t8e4lFatg4lqwggeIyqaetzRcoa4m7ycbyk85NJ6ipJKJd1kqCVCXCk0lXRE58Klabq/W4/7x1GLdpHs1CnJBO8olH9pWQXacKF3FRWaKA9KQQreGQTsZOyaycOpYSUUMrLaq2lkzylSLlY6EZEqyAhOQlpX5ACA1L/uqLDal2uJ/45CfTdox1/7AZCWq41QILEfNIKIEKl2PP9vSygorE27YmGNwK3AgSYrlDfF9PWGqXJM+RQQnpwSBBMhIiAB/o4XiwXDYKPZdUJmnbsrawhNQeFNIdJyroIC2VZaLQViWQRqQnH0l6DXxCFCXfSLRychpNFSAL3bZTSpMgoWp/uUTkPhMFyP3DlnR8WCFah6pgOjJEAewiv4DnFXmTi+4DKVeZGNwywu4DbojUuMiWbTKfWUZmnnHM4dlnyqzIpGnYiqGR35jsdPIwNMaSm2bF0IqhMausyHlJOs2XS1dR+KEgJwc1aSpzy4pU/JLQbE7bCm/GWdeOAb0d3acyAHoholIK5ByK6xWFmE+bJZXVLkuaF5aEyuHG7RgRHCceDqkLFbYiMth9qox4kLOOHRRb3/LzwpW3oW/ccEZDIjaPfNy6PG1MFdGDsiMpD/erisMC6hVxIznKTIcZkfocC8qckPEIiMEIyg7h06bkyzM5aGV22zEDYjsgYBnBcjbIujaPsPX2E1QylZ9yiyA80PW4sCHVETfsL9j2LRjnWaBymALOaqVo5IDUKH8kqFKXTvHxYj0JCekjr7yVhseb8GEIcDdbGjkEdCdLfRovbSrOF0EF/JE0vaqI0Jk3uqSuCKIHjoDkComE5QiPSOOuuObokTjTelwwX4IqDYJp5kva5PHwZOauMLkkMpXrXaXKfchmLHivjEqPJ6QaSSmncuQJoLZDBoQ9CQTickLSdLDv5C6FylPisgmIRlA7ICU0AnrkMDCDaSXiRuo59VLb0DeCDhLbkDFjFZbLmcWTSKtKXkgUtd3NCm3beEFhkUubkjiVhDHK3H/SY77lqztM/hkkL00CX2jnacw8Bbe6A7jlj+1EA/iEI9sxdcy1ul7tSqYeS5IRosyeahSLgWPMc4h1dF/KcWmWhHMJeMVMy8TBcSsFeXme4sVMghkcMNma/13a4zt9ZKVKVPizzVS7bnsNzdB74tW/tC8HlxpQzWf/aFB51EilcAaypW/cB1ZsQsddQBnUzpCvjKOusqMHsxBzXF0h+Gi8R1xTj8Us0xy2q0sTSC95IgsPKXebccGXeMhO6KSAixBw9SdrcAx4vpqpa/aK3l0yKVzFZdfDTQskrkbQ7aN7HKn8bMCtbV5OMV1gXTWCbgjLRUc6y2TsWM9UEeMpBy2PWHus09ArTw2iF4SWusRlbWDLec5Jvl7vChzuGw4U2bvtGnllY+tLnqq9VDkhclAZ8sDjrnDBVyho3pUXIW1yTdFGsjBOT5WrlgjnoPTTjpvmcS5VoOORksPtk7QXknMuyNkQ2ZKGtoNuh+ovt49cbMNILWgkt4Bx74H9FYHHmAhiJOPOZFC5rLDaGTcwz+Z/2bDtccfq1jRsPAYDfow+JZtoRm5SaRfsS4Nj6grv0nDqz7yNZobBPU2ETE437j89IgSiaejhKqSeucISplKJB2BYBEk16R0vaZztUyno0c4ybyAvCake8ei2ZdxokowEFFCDUIty11ybJ9D30diWxE11KeC/BL4bxOeDePOcSownKkOA/WK5XlFQTknoiSJbZSREDFYGd8MrR4W7MRbJk0fLJRGrPImGuNBqP9lrk8lxJ2yzCpc+NTYCLac4DC6o/LhKjNZUAtZgMPtVwU7quBm2VNHc2ja00VTDEuWxlGrHrcQrKMk0FygeSBnJLAueP1QSWtU1zEEeSMxQTcEfydQDQ6LkzS2DgGbdbK1wzaNxqShjYUvOCrLwCMUN5z3kckLypUBkoLGnYjPnEyk4qyFl8p/alTKs5szw5LmBP8qq0Q6xY2946j63wYWlNDBSKTNXiae40Qq7Fx8ad8GznO038OH+l5S2wR9Rwyx0h7kxWCCZ0hkdfgnWgLGMhpbFrMojKtUQ8+SiQ/PlR899AS/21I+WZk2OlKUiqR8Fz02bpJQcIRJrtlum48/gbgxTlaSBlUtr94deWFGPURlqp9x8qcuLNZ0LSykyaUHfyWoAU9zzNGBmZF1405zKZQZ1g55qdn9oL1y4tOwcg8CMjxmjVHlz8NT5qmBGxXN2U48kqPTteFkBZbvf5GVbPDEoB28OsVHuBIG+tGzlVToJLombZX4MOfehVGWGDQJWFzY8bkJqPcJ6z4e7l0+jRcR9kuNeyc0tVLl6FmtKc8ErUp3DZ7bUC4XM/DrrMsu95eq2z0FkLbkSpyfEdpmfCnWNDxFaPt4BF05Wp6u9SIGZ0hLfbXKbMY3qt/v1ZGPSXJWZipy+Y5r3Bci5Wij02k+KSUFF4Kghl8B7BSqzlYjcpKIoogTHn4FZrMitCyZpZBW0sA4X87VpCULLsWYVqj6uGcuTnp4lJ5g1X8eNhKwgrcqWORwSljFwWlsPC0PZSA7dyAnPk46XKXG9ccHTVzwELhOkakxIhNDbw2Zh+XJrXAaBmbpV6TRCAgleRkxaIhZrxHSc3dPLDVsuIIkudsSIBPaL+4ZzG+y9GYEGuGSKVLOS4Ug/eZybcvmTQlW8bgWW8b6R+leaJwK4xoVmhPskdXFA6NStbG3YBczUo0gC/TG2wYsq4aXnJ4MxNiqoDRaalh89KISXQyUuAyE7WxfNYNC95BoB3XcmX6fc9Dh06TSQxt1qXY6BZpq09NfkuoLYIjfXZlij35Bn003gZtPIqGEmWxeUmoH7gAsMcPlCxkmiHF1as1EzpbM1JmUiuv9Y4IVHlMZT1hKh9ZU8Zut+51aGiLsxpfp4zNm4J6i8Mv5BvYso46wXsS7oWZPOurRuO0qjWUIv+9wcz67AbvvcmP5E5Je+tN7UaBlcHvsTbs8E2hmBKFneZFZwQ6FcEsK705uDvYpodHWxr5CqvB/Fg3jjgkXY/ukK1MbE0bcyCqyHo1ObuhpFXE52npgUVghFdp6gKq+ecAkUTZ+EDS+PQe2WcjVNCVo7CQk5qWk49KqIpDoHwIT8ihw8UMmLJ0pEzIlTXYYlUxdIJg8Cw9sOUeo+FFlYWdygUx/MY3ZFIVaPfBErPprBGRSTJ50q3bwG5QVbUFdbo7UszNQmmVIpyEErUebpCi2y5So6PISprrV5OUD1BJPA/K0bCjF03EoMm1+g6zwyf8yU+Xh29HqsK07oo9PsijkBWZERBp4cEb0i1ktt0oi2559RJIaKbShcGgOhoSVz09w0DkE9PVRuzSAtI+TJI8jUtYsP83UHLk7MEVAyNsxys3GlIVcJrsYhS5I1giFsqNgUVma9EnHjbtu8n2Xb0WB5EUrnBi1mz5gwFzaqwAiWaZyXA25agrtnZUvzpBPWLE3BJVM0LnHLhKcZN9OqIWIbSaTJMWrWJ5FM9RAY3HqeoFDv1427+6MxmMc9Zy4wlJs0bheONsxsZz3YhZVkkP++BvauuXwbtCG9JNCtAc892Z82KbqlqYhcY7MxyKcZpLIZ0ZH+fNhNM15YA6qwcW453aX7szFos/RugZtWWh0fG29BaIrmaBhsI948F57oAQ05b1xRuYnrNSuGDh+Jl8bP1IV+eTWpFqiFPbLK0W4/K7R2XRRzx03ExrkLjWwccJGD3o17/SIHCD0APkcWRkQUT4MaMAqTxosnKJdK21RchD5XnIvMHnmp+gRZ65WdeGPp8aicECwxd00IpkKSsIqpbPtmjBo5USoyJcpODsSIxKm4SaEGmxEl570J8dccuTLiFTOtExm27oSBF/8I0egmSbjeomzXLV+BravXIlZeqTpY26grTRljnsu0WMzmecuear5EuK2XCGm51FUKUuegXp1wQntg+DtjlQWv0c476WjUl27Dpk2b9fqezQVdz3vP4GEjIysVWGcXkAVl06kfI4hRS/TqzJHhrZfyonksunHWMnQN9Eqn5QzNw5aoR8rAAXKPm0Zhj7AEUtEytM2KR5LStV7Y8ubAClYGC4nbsWkWqfY01YCmafIhezfsAinUNST15jiJzSbVtNuGtV+Kpm20CE0Zp7h9RXAHnBaBQc9wxk22Dhrz1cIwEKQjvHnNoJnxYRa9r880dPsKbyPasIlql7xi764LrLOnsK9oicrYF3wWGT4nQncK3LjuycVLVoggSVSnt0Gf3h2RI0LpUmnuIFPG3Y0vsWb1Gl1ijYSfeYk1qWsUWQjp6eno3K8P8jp3lJO1BiumjMeKuXNQJF5i5wGDkL9xJaa89hLaRfMwfdQUtG6TjbRQFT4c+iy2LJyPXgMPQfn2jZjw4uPY9slCbNtcjtYdOyArJwNTXn4Fiz/6CAf1PwzBTFEUJVsxQfI2L1+Orn0HIC0jiLkThmHBmLEoqwmie88eqM5fj1mjxuCYId9BpwEdRcYabJgxCbPe+wDV5eXo3KcbqosKUbV0Iz5+73WkteqMvHZtuP4Rxr3wKjbJ+PQ96BBEQwF9EXbHhiXo1Odg0a+cmhSzGk5DbvsOyGndGsE0Mdci1q03/ARVETGc/XuJ1yqDI8o4GUwiLAYxUQ8MG/0xVlcBb344F+06tpeyEEZNmYfD+nfCu5PFw6xNokfnbFQVFGDsiiJcfNYRyJO2+MbCytVbkNu5Dbp0MhcHVAzms0vG0NmdzQ2TRMPJZiKk06trN59RewWbIpWYXiZI5YY8gSZYwjLNURrCGkg1hW6xluiBaGhSdVykaDzyfC6wHeUjP7tpsxH2VGZBGtO1vfNqrtzWb1q2W14taUxgi71ke6nyleAz7tvdVtnX/gqNHVG7JXhYtqS6haXlYd6cqmw4zwwaJZvSMy3Bm92UZNeM3cDS2XHeW73PuD/2iC+a317gXgJJT5wYSqprsCWajsGHHaYvphMqj2dOcq/yWYLP0xHW5eCmBdHv1OPQ8fBBCPAFK5Fj/uRJOP20kzC4QwZWLlmGnv374ns/+r4aonN/eCXa92mPlYum4eyLLsbpZ5yIt18fjtZdeuCSn/8UF556Os79+c/RvkcHbPt0Ns446CB899JL8def/w6oqsOwp5/E+aefjTPPOQfl2wpQsW0DwsWb8J0rv4tjBgxEbXExsrt0wrk/uw7LZ39qhq10C7ZtWIALfv0bpEVjyF+/DKXb87HmowU49/JL8P6wceJCxvHU32/FBT++Fn1yWqE4f4v00bhNASddfnmfRiBnQ8e+A9GuZy+Ec7JF70qu0N37+OM47+zTzJjoPTghde/X8VW78WOnYNqSjTjmxLPx1nvjsb0mibHTVyORjGHc7DWYv56r27A5+RGv2V73kh0fwef0L+O6y7RQUsmEsTc2393aQNi4PpzgZpKecfbOHjU27uVloTz0qt2kzdW70AoxjSOnmkNyQcS7KYbObUwrKqlpsyVoMaEHVi7Ctulp+zPxJLw8msOeygiWs21v2C321phgb+192diXcWyBrLbH3vBFwvJrro2mebsLFt440bScaJreG/aVvjm0dJfY68MW4YsQ7EtAg9Zx6jB20kS8s3gDnhg2GqM+movZKypcCp18axFSV/GyTQ0kI3sKHqSyZcBsUYosEUZ2j8GIdemOVod2wZaCQsnMFIOZh/6HHg3kSTK5HQXbtqIiewCcznnYXiBGIJoFpHdFQXaOkItKDlagomAjduYXon7JUvzmd38QVywNl3/3MtSu2YqxDz6O2noHuW26YGCXftg88QMMf/ZZvZel79WFHWS42n1TYT66HSIesLhTAwf2RT2XoAq1wsGnXQq0z8O2NQUidwBDjhqIsf+4BXNmz0JYlDnNUYJPnMbFGIo3yGHmC9TeA0XvN7IkmIMsMYr6NQ0KIUFfAhaPjnYhS6InHX8yDpNtl8wcOJF0MU5yIRPI1Aef1NuSuuZhdLO8Gx+e4BjXhTPk+oIPr5gxDvLleIfvpnl2QDOgZHoFzIjQUTSFxLXMjZOFTe8S+JOCm9CLLhkTKdRg8/cAPXzdraYlkIudquK7TvrQwN5ZeSAVvPOF3GogU+FuLw5T+W7YGyiHCueGvYH0NpDebgnbJncrw77Atm9ltmkb2M7u+mPLvyjY/rWUZ0vGeW+w7Xl57SNfkn8RouiFZBM0PjeaoKnMrL87eubbYOHNay540NTI2WHj+WQD63CzR3gJvG3tLuxnmAeleHKHsnDt5ZfhmV+ci5svORWXntgfxx6Ua+QP7sMTP58RbMc7Vs0iEkV021JUzpmKjR8uR//+vVBfsg7JBZORtW4ZKhatFyPRHUcNOgLOJ++hbtoKHHbMoVKxBPXzxiG0dhUqFq8Qw5iGvK69UF5VgvQObfDee6P1XtwKMYqZbdNxxtmHIlq7E9HyKtTVxtCz1wCccMQxiHF9U8nDwoVI27YAtcu2o3eHQ7F5gfAUA7dw3jK0btNRHyHg9CUNZhaXVInHUbwtHxdecjlO//Yx2Fm8A6GanQgsGo30DYtRNvsToCoJ83SjhR2NGB75/fcx4oMZqBXDZ5/VM48wC40cNFzFho/8cHwS4iLy1Z9wRSEmr6jHluoMMZbpKCmtx6zCAMpr0zFvnXRD6i3fvBMLi+KYm5/AKrmm0MdAyteg3xGXYNtOY5RbpF89dOroioA02vrwEdlInPc7+dms5mH7as8Au20ZvEqDUW9tGkdjVN2MFsHKQzDuDQIy08C4yWoxOFDesDdY/ty2tI4XHrEbwcvLy9uGPfXLlnmHxRv2FeRng48DA7If7TnT3K5NnQKefbbHXX+A79sAl/pOdZPuBZN1NdgZDyC7VZY+VKHFLeyId2WZQIgPSwhYf08Qor2RsDwYrcTbTz6KYy+4BO2T6cjuPwA1tSUoW7cSOcn2KMlIR68BveU8jiJ/zXLkiMvUauBgBBMx7FixVPoSQGk4Ez0PGig0SWxauBiZmRnoOGCIMBdPqTQfpQVFIncCrQccpPfrilevUu+vVryrDgP7IVpdivKNa8QPbY0S8cp6HdQH0eKtqCoqQ6htJ+R17yhGNIa0OjFqbRwUrMhH1wHd4ZQXYEd+OVq1b4VYJAetsrNQtnWV9CmGKvH4uvfpL96qeenBjoXqI0mUrZmHZKdDkZMnRk3yxB7qloEPyq5Zuw1tencRowsU7ixDl06tkb+xDBX1NahCK/Tp3AoZ9SXYURJHTVqWXIHW4+A+7bFlwzYUJdLAVVTaZwXRv3MIRYvfxZ+GF+O/d9/QsNbsvsJ2wG6tsATz3DivJvVEEgNpixXM1GlcN70XWJYe1g28BcYYtpjdgQ8eJDw4WgIOCvFFdt7y3Bv2pc2W8vyi8Y05KHx8HngMoaspUgeke7bZdAtPvC/CENo462p9gUoTj2LmlCk48qxzOSGqCo4ft6RhIPhKBOOsz2AfFze/BKdrTdoi1S3J1Bflm3kUWd1/BiFOJBxEgu57W5LmTKWC5dIIPTZyaDpcusKD5LIflIWy6+s5Fqwv4BOfbtQYPFvBpaUfSN5uc2ZLr0uIG+lHKWBvtVUh1F5zupN9kMZ1eTCXVKGV67Ht0wnY2vokHNazPTIMdy3eE/RBU7bhkursIePMZ5rxZtjw/U59oIqGMNWU/HC7D4awOZCd+RUmslEZUm18zdFoR+8FZiC+2H5bnntDS9tsKb8vA9+E48HH54axVN7LZU0zuGeaTX/JSDWrqd0gHMZJ3z4HYVobIaSIlNLoYSf1SoR5XducX/VxvgJv7lfyS9pUuFaHuHragPxcI0j2BqwnFaSM7yyyXoTWS7KopxvepDNgnBz4TiO/0WzfRGA+3zSMuzWkamOQgJluAdth0KQnn2CU5LZdpZNGLQuNsF0JfLWE4jKfBpEGXY2P5KdYurRqmcVn7nLweThWjSBhW9s9zPiQp5sh4BJ02iJXA7Dv4TUD88ohx0MIyICDyuZYfV+h8lsIT0mTc2q8bbGXbI8g4d6CDx8+vgmgHjVoem6n4uZe0ZcK27YbvIaAOlG/zccI3T/xIPjYP7MI6lljvqhO4+JB6R008dRU9SOiz5RQMYoRIw9WlED+KW/OBWty9ZUURDHzW1lsw3x9QBjoWpFSVximabkhpbAkId+I/PKNRsYJquOIuI+aT0MkdVRmVxaFG9dVYdxgyygTvwFGj5f6noaaXbHdoZfIQDo6fRREX4UkWCCElIWrmPDKh3HW0/VuJKHBWrKwXE647eqGxmkP4Kgb79Is+6bBEc+an6tIcrVD+tkuHEmTqQruCqa9ocASKIMNBGldWfYEJbE7gvufVyDC3nCRfJddS3g1gJX2EsivafhfQDND0Wz4KtGcPM0FHz4E5mGZpkjlUY01T7I/QH2mxiTO1eNlS+XOg1e2STFKumwU80XpUcHyCwnqHkmmExcfTPKDyYgUMN9syJB1zKLT5mlCBoKLffGeqL6rR7AtRhmos2llmkydUn9TpdeLPNHUCjNsSAyKeEYcQVbldCQ/esrPHdM0ML/RieiNeyFklImBhps2glsGSmLaM9X5qA1bZoIXAfpwCgskkI6GntcS2rQE0qeCOy4K2VJmm9RIKtEYzCZf8y0Ot2JCOCazRBj66GY1V/WyZQz4GZ0kVwJSY8cecJxkQ7lcWTUQ3vgewHV9deeyIV0BR/iGA/rhWl1yW8ZBzXEL+RnYTjcNHlh+Lebpw4ePAxHuTTyBe0JbG2DSqYmr/QuRgfqUt48YT6M3Ze2PKj1RoWL0+F0wdVikTB0J+0KbbAOhiAQpYJYF+Yo+JCsuPxSWBtiGtsPChKhOp1KqSNyC9V22jQdCaCTNLD4hma7ycM1GDwIcXnpgEkQmvg8XEOOgizpTYE8zjeJeuPJTZisK4wGddzXTfsl4vciwE6F4pSSS2kel1IeflEyNPWkZbETjHqTuWSZoPlJNeyruCmZbOvrgKQHpOdfXaZImMkI56JJGOR4RuXAwBjLVbTdC292Q2UJIs6USaoQ9v5GnFzqSTS+aQd8/3F0HmsWeBNhX4Xz48HGgQ3WYPbXro0BBUSU2FlVjY2GFXsWnjMR+hupysUtD73gAs4eOoE41cB2PiuVrUJRflLoPl4KkqUwpsXo4HtHZF3vrUy1WI6XLjjqYOX4kPpz4gcnygsVqNcW7Kdgp8rnf6FI4GPvQw9iyZUsDW7mi8DSdUsOUN3Wx0UKkyBmxCfflIycRQyQcwpZpH+NvV12Od194PsVfjQoblqAXCmxbS2SbingCkazBgzffiLriHVJfKljBdwepp7OSTtz0LSZ7rroKj95xM/79578gyqXiSCcu+Ccjx8kBVo4pEz7SCxiOUCDOzz856t1TXOthM66wcu0OUl6wvRjX/eI2HHnBn7G+RPaP5L3wwru45pq7MOzdT3TKuNFL+193fFP64cPHAYLUrSg+UlJaU46Fq9ZiVUUCm+VSmgqExkQfLP084IlrQ3OQfPXsbLlsVRHGksiuiyOrTkyyaEd1Bt2XznPi4meFI+ZemN5vMjJykeekUy+KL6H320ymBFez6jqcjLMtnTpkXQEXMJV+Hnf4QTh8yDHSbynjV6j5cVoL8hEhPvi/p1Ed5XfqOeEm9YJJXHj+2ejUtasqcSp+80CKKwBZ6Mf/HLNGrma6YMIbCCs30/zkUoJ389y0B0nR+EG+pyiyhJfW4s5n38T3rvu5+dKPSKIPq9BKSaBMfIpWiwQ0jCbibik4LZkQ/vTKK5GRky31pZD7XuePpdzKxX2gVxvMED9QxlBXexXygBhlJycHv7jzP7jy6mtluBy9F0l3kxPDSKQhEjTfGA9LybKp7+Pdt4frVz84TGSpRtLKJWB9Fc/dMrBlbV3ounRrj7f//SskQplw0oAMOQau/+n38M/fXok0zg4IXQqs9LnQiNtXg30RgbQHgMh7xIEun49vPFJrjTqicKsqK1FbLco9ozXats5Bmyxz/0gXAEtpzj1j9erVutYoPSI+RNEiuGQpaolQUSI9gMFnnoROxx6qt35CsWrMfe6/mPTim0irDCG7Xy+kh0vxydDHMOfp11AtFq5b324o27QCI/51F5aM/BBtuh6E3LzWWPbmi5jwzNPI31yIgw/rh7WT38V7t/8RZdVxvPvyUBwzpC8WT34bHz75BDIGnIzOPTqhZvMmrBr1Jia++CLmzluAow7rj9f/eiMqPl2GNQunYv2GQhx60CEYetON2PD2DAy66ALEM8RT3LEF7//jbnw6cjgqanPRo383vHzzz7B9/nrMGjoaPQcPQmbbvIYO6zeRdmLHsk/w8ctjsfSVNxDNzEOujP+of/4RGyevxPx3R6pR6dy1Eyb9U/o2/G2UV6ahe99+eO+236Nk2hzM/mQKdsiFQ59BvbF43DP46ImXUCjea98+PcSaFOH9++/A7GFjUBdohW69u2He20/g42eew5yPF+GgI49EJFSLcXf9Fe9P/QjHnXEGQpkBFM2binfv+hcWjZ6M9j17ITsvgoUvPITZE0fjo3FTcczRRyJaswUjH7kHi18ehpy8zsju3V2/FVmZX4icdh0RTk8TBzaAHgcNANpmoGffnmo0uYLNsgXTUZzMwiFyAcJXYmjtaKx5V48m7P1xM/DTlxfjk5kb8NHsZeh3wmD88Z+v44zTDsHLw+dj3JTFOOm4/gjVFeH/Ri7GNZd/Gx05Vy3tbdqcjxIZj4MHdUNYjDwfCGIRL4b4FHBILpjUMvI4VQOpplXSeimzm7AXtIDkc0NE3C/t7E94h/iLCD587AvEYLmIOZu3FTgvv/uhsza/0Lnt4RedMsmNJhxxwuKGpAUYM3qMbpMJ8SPlv0XBi6ZpF5q9eZPz9r/+RVGdsilznO0Fhc7S6WOdBy4+3nn20u84/7ziB07ZhpXOiknvOI9eeqbjzJviJPPLnfKV653przzrOPUxp3pniROvrZV4sbNj8qvOtEnTlZ+TlD7GC52K+W84M+escuqlweqCLc6Ska9LftSpXvyps2r6NMepjTkT/ni345RXOY6MjROXHwkbHh7mVFbXS0a1s3b2ZKdmQ7HwrXKeuP1+x9myyXnhL9c5tYUVjrNmg7N4+mynjv1RSEPsXKzE2fzJRKdg2XYZ9DLnmVv/4zilIlNtgTPxPw87TpW0F6901s6b5RQt2ST5Zc5r9zzkOAXCM+o4Wx8f6jgV1SJ31KncutR57IoTnKcvu8j523cud1bNmOZUS94Dl5zt1H4wznF2SuvVceehX17hvH3TLxynUuSuFBnYn1iNM/a5u51Y2UZps8x55957ZSuFdWudD9+RsZCxmjP0KWm/wlk0YZyzdtYU2RkbHKdoteMU5jtrJk5zZHR1SFd/Ms+p4ThZiJzaXfaXwT2sNMofgpFkQooojONMHDPLOf/fM5xSiV//j5edj4T5NXcMdUqE7tHhi52bH5mg+8rZuc7pe/GtzspqibNxwcyZy5znRs50yk1S2+EPORvu/LUNf06QzRfEaq/YX+348PE/Al76ukgiGArgmLPOQMeuHZHbpi3KKuXiilN5LfXsGkHqtLQaL8Rt8MK9QNeLdKbDIUQry4D6GkSSaYjHHfE2MvC7P/0J1z3/PG67627kifc3+KCD8btnnsXmZcvwxvC3kJ6ZjqKCAnJAoo7fHSRDCXUx9M9rq/n6AeB4HOnRenSpr9bXJeiBcWlRTgOWlpYjlCNeXCiIqhBfDZB8ztFxBKO1SE/UIUfn96JCEkZaVArrY6itE68jkoFEJBOlGWlAZhzRZMJ4vAq3czLGfCWDH8FAXTWySEsZIwF0byuuIT+NLV5OblYmAjX8emACdXX2xmlCvCmhjSWFRwQhGZMrrrwc1z/7DO5+4P8wYFB/ZGWl409PPYXqslIMfe5F6UcIf7jtVlz28+sx7L5/Y9WihSKKyO9E0VZCOBqX9iLmyVOdNg4jJvxra6WNVjJmoVZIy0hHZiSO9QvnYNJ9j2P244+jqKgYGcImLN57p1ildDdm5jY5XjJWOvTaXxO2rliEeYtXNHzYl0/sOA6SCakntMFEAlkyDlzdJxyK663RzLpaVAqTymCOeHnigUtZudMO9chAuVTjQzME86qCbVElcY4UD6fFi+Zj9ep1Kg4XMGceg/n5msCOlQ8fPr4QNBhCUT4dO3TAU8/8Fz/+3U0YNGgwOraSfGqMfVASYlxTW419USctmbXJwTFDDsINF1+ECaMmIyOUg0HHnID3xeD98dJLMXHhIqBVGyxeuhK3/ux6/PeFYTj5zDOR3rUrTj72ePxOjPyEYaNFpgRmDnsDj97zMB78yx/wyB33iy2JY8Rjj+O+m+7Bf2/7M959aRji0Rh2bNmA3599JkZ+8AF6y5jQUPQ7pr+0dwnuu/3vcMor8JdLv4NXX30Wf7n4SiyYtlDoDsEz//wbbj3/O/jelT8A2nZENV8l4GgHaAhj5l4dDSffe6PRESMYCCbwyF134NYLr8Bxp5+AncXrceslF+GlZ57GdRddisIN29Gha0+Mf/FJ/P6sc3HcCd+SMWmFWy4/Hy8+/zBuuORCjHtnFNLadccWaezmSy7Fu++PRaBVNtav24Bb/nAD7nvocfTpNxC1VTV469VXcdP1N2Da7E/Qt38fsRZluPcH38PbLw7FdVf8GDs3rsd3f3QZ/vzdS/CXC3+JU04+R2xardjETDFYtKVpup/7DuiHCXMWY8z8RZi1YAEKV27Eg7/5Cf514x/wm0svx6p5YmQJHgv2iONxJWHG+29h9MRJej/aHmbi0CHMufAkn0ONo12gStdPzQ4l0VHaPWFAT5z/3Rvw3MsvSHkNNm/Nx/k/v0lqJvGjn92Bpetr8eBDr+If/3kCTzz7Kv50y5O8tYtYogovPPWo7Fc+S0rwGDWvt+j7l/sKCmyDDx8+vrYI0C104w3gUwt8/D1DtE5C1AQfmmihVzhm9Fhc9J0L9UnAgFzda619VRS2KW89yUvysf5QWD0AvjBP94Av28fFY0gTLytJD0bE5qsRUSmmc6EvgEg5X1lgt/hSPR+o0U/bSuU4v/knaPDQGlC+dZMYwtUYcOLZKguVpTiU+s4d753yQSJ+KokjyKeOeB+MonMZNn6x2xH5KCv9bt7zSpPSqBhSloV4//GdYYiKXFXBXBx25jHYIXKG2pyALl0MHwYaTGGtziE/DkxDEpNO8mv1/GaFJLU8iWqEnezU2DmJeommK33K2xKQnmyYxTjHy9ZRMO426IiHmBD5zNiIAPpoVUBMYVDHkbJpVf64PEhBo5OQQYmIjPrAEgeeTILmzh9hPL4AguGkOLJ8pcTsL/LRtzHlYiEsXqh59UHSMrZ8GlQfyGF9JyZZ3AsGNVLGfIpIo0nw+oIePfdPiO8uJtbg6u/+G68OfQnpOUIgFyFJOZ6k2DxTJAwYd6vvHSRuCgrhw4ePrxUaGULGrL1zRIPre3maFq1HhUTKvZzon2mt0WZgHq/XmP7ahmlY+OQllTANEW00bXVYFHdclaZr1CSPL4+z1p7ehqSOZhN8J1GqpJSgxvnjakjaC7ZpiZhOyMVCGh/RlIHjS9tBoaA84npoHZ3HYyV9GtNyptziEao4khcjQ1Ho8p+ISX5YIlZU10jx4Y4gDZNYVO2/8ExK2+a9RENqq5AbR0xlFTDOwHzmkY7jxaYtjYJEUuhuUrD1OYmYFOMaDKULL74LKIZG5NPua7lsJcJgD5tYTC5cxBKxjIacHaIh5AWDw+ODVyxCz2MlyJ2qlc3X962szGL/xV6aRgT1nLolhfRfeUtIxBOIizC86GGLHHLuOh0riZvhF85J95JHmUtgPreSTkbrEEyjcbVcffjw8b8AV7W4uoDnvigNVSJUTPKvE5xSwPKW6IYGg/P5FQnbNJNXKoVypDfGLW9bqbIUWfUJRJExLF4h7ympAZEKvB8VpGeq974kQSay8YJqUY0gyzzQpOpD0w9TVYxBIK5Gj6mwjJFOrAmNXjSoxyQhTeIUlAIS5MN8elgSC4gnI/6SKaDhc+lCEeZ5wHyyNSIIxKuUPLKLqNI3uQoV2JTZZr2dZZ4ltxcSNDKNoOnGmQ1NiwkLRaQLYsykHwxqBIWcbWq7QkzbxjjrhSWhXjmD0HKBA96HJvTVDIonmyArsV0htK3r/jBZpj+s5ubxPqguSiBJXhjE5CckvHlfl5de3E/2FQw20XANElav3l5ksUwPFUkzI5jG9XuYy1IfPnz8ryClIlIQpeBVsEnRdLv3p5qBS/jZHrBpDKOoKaLxLG1gDp8dSQlFy61rTIqyZh11BYxSVk2sLorbVW6o61TTErKlkhcyy45Q5UsSBrqNwp7jkBQ+3NIXYRF9HD5UQy+JH4CNiVblqpt8PsStJoGNUg4JbE5S9KYc91MTFJ+fU1IIDy79ps/uSD6NLt9VpMj2dRQrpx1i7qGkulzk3BgkcVsXuOXcSNA8W4VbyeDQKexWYEbOcOJUZUj6QUPGMeJFiJbb5r31hJa1Uu3YMs1wK6boJa35ZqN9s2nyJoTWRI1HyqDT1NzRbvWQjD9b5W5XAyfwNq372QapRh5K5v5wP+56heDDh49vMqgHXJirfBtPKYN91Al2prW5W4/7AlV4woPKlveZuLYo7xvpC+68jLdBNRm1mPh2fMDCfbpSOaSsi4XVqAQVnqo9tz7NWwNS4jOTrGXLpjjtRmVLTrw8oDkwWyplGglThXI34ieBxpHdUJZCwBXHuDwqxabHZPojHBmEiIra3COj0eV0n3AhI3ZNNlZEQ0GunhbZAWsJLDTPMwbeYjJRhpJpGbvkWsW1TMYEWYIG2PFKNcG0JWOeEsgxZvOEnT3ctA03rtcwEtgK2fDiQotIL4EXB5ovlbREGxNow7IPhYEZLeEj9GZaXKuTyBNMWya/AZze1lxD4sOHj/8BUF8oVJmrAaHCEe9G4lQxqQde9hn7oEnYgDcI2HYoXo+SxQuB1evEAAUQE5miouxUv2swSlBVnSpqqSfNcmHreLQM25auksIGOTitqdBem7pmdRh+JaEKTl05arfVYNvqfKv39V4WFTDXcTYtmOo28FUMqk4GcqQtI2yardMez5y3CcNnlaGgnkocqKxOYPzcYgxdHEW1FdHVwW7TKb40cpzCVY+QBUJvaNhzbcENHigtqQi33FRqCITdWjSlsR31QsfUBvZYLihcPtos6W19QvP4I8eSN89u3dC0CwTrmYeN2H/o1DDHIqTeJitKIeuRAQ8MESdJaymIx/TDWxKTfSwXUFwyjvvTBi6QIxt9LswEK4DwZLUWwI7CFxF8+PDx1aCJikugvHQb/nDXM1hZUGKUur3iJj7rGUulYsPe4LbBVgN1DmYPH4dlk2egtpLv7ok5FIsUDbpfo3Bv/jAal8t71tHl06RbRVsKMPztsUCNMX7sRhB891AiUsERBRoVdywuvQw4EREtDbVF5dixcCNmjJ6orzaQb0Lo7CDxvUUqTOpbtQVkJVYyWk+FK0kpc22ZTovS42Bdfgrq0L7dsXH6JCxdsw0xIchMC2Jgz2yMHDedrxvq9KiCfBvBbcgLHcddCA2Y7Q0KVmCgNE12+e7g1rU1G6GRpTOmeleivSNlFHcDK60+kas5Bo2q2T5yywKxlkHevBSkRcwTwdxhfAiJxw7vU5og+1X2i94vFXIGvX/JA2Uf+kLSLyr48OHjq4FHvyRQU1mGcdPm4fe3XY/OXdsZZa5zdh7s9Yy1BJ/x1LYKmFY4HEaf449DxyMPR1p6BiKJGhQsmIGFo8Zg9ftTwXckSjatxuzXn0fNvHWY9eZIVGwrQPGmNdgybSYuP+tq4RFRq5TYuh0fDX0DaxcvVdEC0TgWvTcOc98cDmenNBZLRyQ7F227t8UhRx4iBGZKLS5e6dlnXaZGjt6JOiAio5aJ+1mXCGD42FmYtrAAr7+/HDsqEli+tQQz8qXN6iheGT8PO6JAXtsQOueEEXckSN30SAC9O2WqciYzbgh2u8GJpQH0GEE7pHabAjPcTBv1ZO0WbMcGwku/t7pN0dI2m4O3blMeVrbUmDSBl3Z3aAmNQMnUyPvw4eN/CZ6zPooN+WIsVu3E735zA94cNUVVcEqH7E0hpdBiwj0ixHtDGRH0Pftb6HDCEQiliyTRKnzw5ms44fBj0Cdch7VLV6Jd5w446bzTMP3p93DyuZegU9cu6NirC4777oVY8rEYPc6jVZXg//76e3zronNQJH2sKirAzqXzcNwhB+GUb38bt/zqD7q+drh1Hlod3hkHfetYffIzKX8ZaWF8MPEdNVQ0UImEnQZMip0OoLwGeOLFkfh4WSGq0jpj1MQPsXTzNkxaVYV4VREeenWCLmBOcBI2xJVf3JSOUCCpb1twSpdpO02Y1IW2zR6w03upoO1/Afii+HyZoIw27A5emr3R7hWfq7IPHz6+hvAYwjh21tXihEuvxuin7kXNtjJs3SIamrqX2M/6ISQeEy/OM7jUmHWMwu3QesDxqOzZARlDWmFT/mZxrdqIu9UVfY8+CcilRxUQoyJeYCt+745zjsB2MXxn//D7Ut4Op1x4DnJaAxUbFmDb5DEoHPs2rrj8Ar3/xCddTXeT4rnRbPEBFTFb7jDwKwvhoPu0qEvLBxYT8ah4jUdiQJcMabteLimCyBJPlO/+0fDZZ1YC/BS8407ripx86Z9+p07LCS3vygaltuOI3EF+K0LvDJK4CYyUXwgo237etz58+PBxIMGjZdPQuXVbhEq3YtbmcpQla9CuU0gfFEmhBUrTvjbxeV+fsLaPoNqnDQHK4WxfhJw1C7B1aj66du8PVBcDq+cgq2I1nA07EaINqayUvALkFK0GdsTRuWM/zBoxAli7CKs+nIWKbTFkdz8I7bt3RacTTsX4CdO0LfdtBkTF/aOh06cPg0lc9d2rdGo0KPn04yiKiYmMtFXhuHmgIx4TQxhGuoxl8fqNmFPVCdXhLIidxMaCGqxLtMOyoiA2lYkhFn7rC4CdNVmYvxPIVyNZjnWfvIaDzvsxdopAOoLSyOcbSR8+fPjwsSekPsNEm9guNw+ReAI1VRU466QT0T47rA9mqg2yTshetPLqVe5nmJLi6/Cempu/RzQlYlqCuzGB6XgQKxcshdOlO9p07ouehwxEdVUV8rduQ1Dy+LncNl3ao7aiAps3bEaHgYOxsaoMnfp3w3Enn4QVazegXZ+BaNOjhxjCHigoLkZ5dQ0u/ul1SGaJsZU2OG1J75D2LSCuHF/G7yb0Hbp1N0+OiiB8CMZI5SASCmBgn344pG8HdM3JQM+O7XHUod0QFrcvWFuCM449BMf0zcWW5avRs2sv5GXWo31aErmZGVi7dh0OHtAbgYpidG2VhtyMIFaPH4dDLvo5jujXRV+5dxtrISiTDx8+fPjYFzQssabLyajJU8/I3Mdy4dXFe9G1zS6x5kVL9Lqt1JRWvL2PJ0zEkRedg1Z04ehECS3JGPh0IQ0m414WWiZBn8yUCDc0dAYmU1grHY2P2h6v4JLm06gcHjWUkt7lmQrWcQPfDaRcpFXunjLvwLKscZaDj559AoOu+Q3aZwZFRlvJK8ye0FI6Hz58+PBhYQwhNTLRVLl/BowdMxYXXnSheoR0rXZRzdTrnwNcQJpGK1NkpsEhzGoyJm7B+3CaLzS2yHaTYFWTdvQhmJBY0F3YkIBGLSH8ZKv3ESWrOUOpadmSFxf15qM25i0/c09R60gh85UR812vWWGFk3bqpQbfm9S2lEtL0XJKHz58+PBhQHtgfk1sV7gOY0thHUy7/UIhep4GTr9kTsNkNo31v9usXZnFpgkaRq3j5nFRbaZDaoV4PZAUI5sw62DbILT0MslP2Uk6xVIMpD5Iw62byTbpB3NNHD5sY/hLntRPyg/zzF1G0jYIrg/USDafFaUJVAppf1/MoA8fPnz42HcYjZwCtTm1uovPYMy+qIdldgcui0xQMtqpXeA2yzL2pJEYEuc7fGblTqHhEzDSx5hs+egLvTYuocb1K3VkaMHYkMQtG/JLPUAk5YlkHIGwK4unLUbDnrG0I8mVaAK6uKjk6FytoUnxl8CmSU8v1IcPHz58fLnYVdWqUaCiNsYiZQy5sdp8D0iR746Wmn5vgeCWPGgnOBfKdIPdMMVSzm/UcRaWoMgsNl6VkZ/39vienpWdHdb1OyU/yJWtxdpE+IFZKdFFosU1066T3pXHcDJZFIUfkTXfiBfDxmVjGBc6VzQDfh6DhlbjwkaY2G8oqhS0qORPSV3ZCNpeZrMdl1LKmWOCYelJu2WWBWXlpKxmuJke9jpejWCXtLH0NlhIMceDMmqRW0aPn6I0ITXgFyrcFKd/2QQ9edbV+gzmHZIG2KRWkx8llqjN59bN9uZzUfiEDopLoA3JvzuoXN6OdZSthTIxIDnLyIeIc+kgQjts6dxt0w4TLuPUDAg3elzJWEsZ9yOTmm+DDx8+Dii4T42aMzQai6EikI46UWT1ou0z1DUSJUtdy5g9id10c1i92n1qVBSDd+pvT9iFymbUJvHS3f9B3cbtyD1oINL5eSNqHjEi21esRo1EM3OyGu7dUSkJiT7xWV6NWEaaKiE+7UkDo+6glKtYdTG88cDDQFE9srq0Q0am+JquouNiOrRjBF+LYLfdllEu4zJ8/HSsK65B60g2WreKoEy0XaXw5hclMti4VCirDUgwnwdSWymVy+oDqI0HwFcjTRfFN42GUCpl/OguF+LWfO0P3ysM6H4olFAr/NMjki87o1KscFVdEvUhs2/4BQg7hcouRkWZx8TAsw+lkqb8XI+AS7ntIB96sFEHpSJPFflJHm0J+ddIW3VyJSEbHScugF0s7dVK3aCUsz2OJReVo/HXsZYWdsYCqBA62nlKXisWpiIaRJ3EdVFx6WMwEUcspHdJhYdUln9aCo6fkOoHdYUEpdVR1IubTV7hRBQOl0QjLau4Wxqw8jrZ/xHhLxcwhVGuQyvt1pkFy/kWaVltUOUOy67luATFIlN+HS1hxHEpkn5XSX/1vVBpj5/TKq2W/kvn2Y+wjGVAhIw6YX3fU2WOJ3Vf1kg9zZODLC47oaQyiWiSfAPgF7Xen7YQG3dGMfHDj3HckEFmR7C+bM3FlpEjBU/Uhw8f+w/GEPIF7mQF5i5ZibeWVyC/pBjPDZ+Mo446DDlyctKBSp2jjOzhhP3chtBVFnVSPxyNY9PUGeiY3Qq5R/RHIi2MCL02IYoW5COa0Qp5uWIIbUXRcspLFNTrN/wTvc8/TV9vyGAmXQN+w84QSwN1WPfJPPTKyEP7gf0QyIogkKjGmOcfQWmwPTp2aW++rScaiy+5U7U6orSqhc2StfkIZLbBwM4ZwtbBI8+8LcaqNd77eBF69W6HivIKvDl2OTZXAGMnzMRxhw/A0DdHYHZpB8xbslYNXtf22Srr2HHTcfeLo3H+ucchUzKcQMK0KZYpWe/gnw89j7XBLnh//nrkZqQjINZs6IRPsaGkBm9PFd7HDEKWdig1dIjGg3j02WHYXJ2LUTOXoWObPLQNOnjgmdF4ddoKnHHqQaguK8PY2dvxxIdrUFQTQSJag6yMDLwy9hNs2F6Jtz+ahyOOGYD5H83C+yvqsGVrFfJ3lKFnz9bgCp7Dx85B21y5EMgOoXB7MZ4ctQbbSpJYtHwtevbriuHvTMHa0hy8MWk+2rZujT6tZb+JVb/9+XE4+ODByCUTEbZwzRrc/NYMBLI74KBOmXh7zBQsL87AyClL0KVLd3Rqzb1tjCf7x91HZ+2Tpatx54Nv4bRTj8XO/B24a+RmlNbWY8SET9B/YF9sXDofI+ZUYktJLRYuWYKDB/dU47t2yzYxXgFd67W4shq3Pj8TZdVBTJ//Kfod2gvvj5qO2fkhTFi2BduLduCovp3EKlbhjhfGonvfg9FOjOrq+fMwYuZObCwJYvai5eh7aDeMm7gQi7cHMWlJgRj2BA7qko1lm8tQm9MG24t34IRD+yMknaDjSNtngvywQ9xpDD58+PhK0OARJtPQvVsPHN23A/qnOXDEChw8sJs+mMLzVa+kJTC+J3wuQ0gxOJUmjaSxIbEYg884FZ2OOwwZ6WlIc2rw6SvP451/P4JOiXbIHjwQ4fBOvPGPn2Pu808iHuyFbr164Mmf/wDlyxdg8YyJ2LqlDIcNORizx7yBUf+6C6XFlaLwjhDXLR2DTz4JrYcMRDBbDAE9lrCDZ59/Ar0GHI0+fbq5OorqVwr5MViJZYl3c+zgHjhUDELrrDQRMYIzTjoU/fvmonRHLbqGEyjYthXtjj4WvTrnoXDDRvTs2lYU9mE4ul+OeJA5yM/fgP69umLd8vWoFtdhzaYynHP64ciUBmNixPil/bAY7W0FpYjkdsKxR/TGCb06o0B4HX5YdxzWuxuqW7fDlk0bcKpcIGS7Y6eekGyLd5Qju1VPDDioC/r07YFVixZgxaef4PQLT8KSpUU477iB6JCdicP6t0FBjYOrTu6CQ0RxJ+srcfKQ/jiqXybemzID/Y88Gm+/PR4/vfwcHN2/NZasX4vOYuTSZB+9/d5MHHJQL7TPzUBOVisc3qeLjCOX9qnFEX3biOLvC4jHzG8u9uuUg05tMlBeWoQ3xs3G2acej9x08aJqqzBh+Xb079cHrYMV6N4+Bwf3HYCjBuairjyB2qpa9OuZp96ktRmIRVEmhu+j5UtkvHJw0pDB6NguA6cf3RHH98hFQeE29D2iJ0ZNnIVrLzkFR3Ruhe3bC9G2X3fkCJ+FKzYip5VcQGVmYcH0+TjsqCMwqE8bsXV16NetAwrl6uWME/rjsG4dMXfqBBxx3BAExR1/c/RMnHD00cjJDuDNWQvxwwtPRf/OWdhauAm53Xtg09J8nHTCQPTq0Q6jh7+I8089BgN6dUT/jlk4+ZD+MmYiu3RAzx9v8KJp2ocPH/sFqlt0gouLUwvoXSxcvw2nHnOkKtiUByXg1SzDlwZRBDSeKWPLtj3tY0sB1m7Kx29feg3dBvfnhJUoySh+dOOfcd2Tz2Dd4iXSjzB+88zrGHjEyfjjf1/C1X/4JbavnInpw59AblY6Vs5ZiLJtheY2jnhm+k1AYa0f8UUE/3nqLXz7W8ciSAeS/ZUBSIoRbAqKGJeanPbjNNfKhVuwbPFcDBCFGxVlXVpZj0cefRqtxWDVRfnVCvEmy+N48NlXMOTQQ1BQFMUW9MaAow5FuZOFMuG3sw548OGh+M3fHsdqMeDl0QSyWuXh1edeRWvxRKprK9Q3TUYrkZa/CBmivNMSQG15FW6882n85u8PoUiMB12m9GAGXnhxOGLVtXJRkcS1P7wS/dqEEIlXqkdKSFXpcdS8OymWNDcnU2gTmPDJFhx96GFoLQV8inbOx5Mxb9YsJOL1Olb8XuLfb7oCfXp1kP0jrp0MXn10JzJLV4mjXYGdQhOL1SJZuUO8oApU14hrLDXzOnbFU/f9Hh1bcao3gKGTl2PgsUcimdEDVYGOqA5nIJIBlJcAy1Yuw5CjuxkheVzoBYmD2kQaZmxycPZ3vyP07VAlzVcHQ8gUAzxvwRYM6NodbYSyVq7cNqzZiNkzp0tdMaoytnfc/yr+I973LQ++jidfGSsXRUWoqyrHvXfLtWAyjrJStiDe4PszsH75KsTr6lEvOzeSm4PH7vsN+ncVr1ZkqapPIH/LJnww7j3kZKbrF0ni1fV4c9gYfLJgoRxTIdQn4jptnO4k5AJOZLfHNLcS9B6mG08FHz58fCXwmhlFfV0VZq/djLyciE6BpeA5b79MUN3xR7eEawypgBFOQ8zchEJGZiaCoSC2by7E639/EMNuvR+l67eSSrRPSDwtMRl0JYRRpij+n111Na75vwfx+ztvR+sO7Y2HwSDkDX0KYs2cKdhcUocEtZhbEJN8Kw+31M2Uh18iJMmSJZuwcF0J/vzXaxEVtyw3Lw/tgxHcd88vsXrjBrRu2xbFFQncP/RD/Om2X6Ntm3Ss37wZw0a8jcfufghb1i7GpPcXQZwr/OXPP8AD//p/6NWrNXLysrFm9TLc8OdrsX5nEpnZWdi8tQTVma1w/JFHoLKyBrXSzcy8HPzzH7/Evf/8o3icmQilhcVTKcAf//J9VMd4j06sqAhej3ZIRnJQJ53m+5iUPcK7Z9IZdjckRm3c9FVYvNnBRReciFwZt3aZYXzrrG/jqNNOFBYhLucqdRJYubYCZVVmmblVy9fAyWmHAYcMwraSUpTHgB1FMfQ7qCM69+qFdXLxAicEp74aM5cUokLKa2qT2LB+E5596CUMffkFvDv8bfBzkctX78Rjb0zGRddehJCMB29Sxmrq8MHcVahOBlBRWY2PZ87AA/c+hQWfzMTLL32kS9iJ5cUzbw3DQQf3gthZdMzMQI++fXHyRd9CcWUdOsgV3i23XItf/uJnuOnG3+InP74Ivfr1RklNEg89ci9qk0m0aitGVYz2hVefjK6HD4KTlY0scbGTdTWYtmAzysSYRmSsemanoU2nXrj4B5eKB1qKbLlgSMsK4xe/uQhHiGHPyMxDWihNxleOEBkgnbCXf30+qKoSCxZ+ijq67xbMt8GHDx/7HWZqVM5Jc9EaxxtDX8Qhp56LXm2zEeELcq5LyNNWT13P+dscPuvUqNUBnIJNeYQCRml0dHosI4Ka7dvx0h33oaqsFt2OPQLtsnIw/pV3UB1Px0nHno4qUd7tu2WjavtSvPLAA1i+fgtOvvASrF28Es/860GURusw+PjjxTjwXqOA7hwbJf/6nbj5l5cg2vNEDBrQQx/uCAX5dqF5H9CKxSr0FqnLNq0rws1/uwvztmzDuDGL0LZtOo46/CAMf+4NPP/aSFzwnbMxqFdb3HjTHZi4MYZ5E6Zi544duPC8k3Hx6Yfi/GP7YfXypfj9zy5HunSS942o/2mYsjPTULSjCDf84yXMW7EMv/rhRcgIpOMm8WheG/oOzrv0Ip3WizjiGQfEKxIvIyz107LSsHLjNtxx34tYtzkfv/jBedggxupnf3sMn67djslT5uGEE45FVnoAa9dtxiF9OiEjERXjtg2//s9wlBQUYsSID3H84SLf8UfixjtexNDRU3HpJeeiS14IaclK3Hj3cPTt1wU9xb0LhzJx8/2v4LnhU/Gt00/E4M5tMGviAtz84MtYs2ULfnHthciTDlVt34zv//1VnHPWaejd2sHpJwj/045At065OPHQXujWqh3uuus1zN+6HuMmz8KO/AKcfswg8c5W4/r7Xsall52tS9GdfcohOPfUQSjdvBXX//AS5ImRmzxxIgaddBJ692iHTNlBg3r0wm33vo6Xhk/GJRefj74dMvXVm6L89ejdLgttxZPr0Lkz3puxDA8/8Qrat8/DsUf2Fzkz8bMbH8DEOfPwxxuuR7dIAtGyMvz4zldw7AmnolduHIO7d8Ft/34LLwx9HxdecDYG9hTTKxdlN932CObOWYTbb7oOuXLA6OHPVR/cCw9eNmxfMhfvTP4Ih558ErJ50DPfPfjt8dUQ8eHDx/5AwxJr+itXvw4XkI7oAwmRz3BCNl1ibXdgc+75L35GQ5rBvvCuSkI2DO5snntZbSbKYpJJgxGkR0ACCXYWyn02RhWQ8fykgBZVOsZ7kCzjlTr5sI4qLalDHuy7vuUgpXwC0EyRMs0cEUH4sJhG0viHrMQpVIlqWwISSrFDl0AigabrrkmUJXyn0HGXoqOBNZUlLoX2OoItMNvQm4TdJuViJaiP87ov6kuUFxLMIZSFeGB0ZViFj0bacm1KIo40HNC+hPVp0XSOAweWIKHQa12B1pHMKsmMSFlE2k6IsLxY0CoirD5J6TbApzbT3JllHQqh5+sdbIfLBkREuJD+so2EGCtKLGMZMwuZ82Bgub4hIXxTY5KMyoWIZDBohgSJ6r7jBZzsQH40mXKzv1pPyvT4IF/ZcuwSXEhdyCNSl0/9plNGlyVFSchFhuOk6dQ5eTHwEFQ6DZLjzlKwHpMUhdPPUSlnexwXdQAl/vTQJ3DYIUeJR39iqhnDx0TdAfbhw8d+RIMhJOyZzpORL3/J2a+Kwz2JFYzvAS01hF4oe1cZ2PZ0K9WtAUpxEi2jeZKhSk/iSsK6yTqpw+t+k0mFFRANyi+PG4NmiQ1YTqNrs6h4qZDTaAh02RnzCL3aCCGysnhBpcdiPgzBpdUsN7bL6UBNeoeBjbrTYtpniVq2TBI2rbCZ7GzT6TQm7ZZRsf76IWXNk0xuKYa0z7GMikxpfJekSV3KTxEdKdcPBTdBQi20QHiayWBzzcA6TGmOS6I8yUJ5W84yrtJvGk6+62GMnhgfCazLQ83uT4542J2FMM1yD0hEb8ZqtoERQ4yYyEzLyx1BMJ8Dy7FinrCKx8WYyr5Um0keVizS8QASOmbxdRDmq91mBmkljxc4akgF9S5rZSVxR0YiGAjrxZKCWyO+9tOtplmkiQbkGJXjIo33nd06eqybaKquDx8+9h92Pe3UxeJWfrwnaCryxYEsGdQgMC4JXlyrDnc9h4RoSSOkSyQayNWTSpeCxNUIejLV7omSNEuaeYkFwo7KLJVLWjdPb1YJgduiIWpSnWAWOas4kqCxdaPyI5zcQvJRnU54jRkhBSxnUGVKQuZJnIZBy3SAGDywbDzs1Agyg2PAyoTsT45XXHiqESQ8ddkcKbk1loKGr3FrwQA/KOwaQXpRNLguDUfK2iCFDoZA22joPF9jQdhUIonbkho7Xi/RW6ShtEaQYJTv9akR1AwGqaAG1kCNoIDXHHFGlbk2bhoRQfkcmLKloJSHcZKIdWOSdfX6RPINNxdCozObLju2GiY/2ZrqssdlzMjDyGaCGnDJtIY+FeQnggxjBAm3QGWzwYcPH/sdqVOPJ3NczmDVn5xq5FZPVD3NDZj+guBlRQWh9ssTgqJ9VPGIIjRqjwUNsjDl3SqNMhFIP2jG2Dmu7sEy7Rc1FBNUiNTgJNcqUihbkui6o4yLdqL94YvZahgbmm6IarkJ9Bq8+doOtxK40WYEKRoB8wJUpiapGXYcvGPiUBOLlo4b+6xIRMWIWGbSFqNJK4QKTgY2nwpczY7xvgQcAo4Jpxj5AWOOF4tsqI+RWsDuW83OXxFKWKnh0LQUMa3TmBJJJmPg1/Udvs1PeVmVBAqJyL/aJykISox2TkEaG28KbYs/DCRkIGMX0l+WaJ9Mhv4S9Ng0l1WslbMXCS60iA6ndMrhG/2s7zbjpaR4xuzZtjm5y+CCRW49C9PXhqzUtL+XMePetA8fPvYrzDnMk5C6QlwovfrlrI1srbL7MmDP/WabkExVHq7CSikaajoG0VW8x8RSqiSGOqvcuBHtSnUd5P0pVhYC7Ze6GCyXoBflUqA3ExkXo8k+s1A8ED60EqQl4vsVUdlSJgm8P8iv11P5sl2qTbN2ab0qSTbPlE6juhcRdGAoHvNd8SUhvwnpBS2JlJHcrmZjwClBLZKY4YuwXKhQFEmEwuKfaaaBOG1mnLRdEsmWD9HYe4hSiffylEbAl7uDUickZWni4xgFT3lcz0y8R7Iympw/SZU7Lhx4N7DGlZXjq1PHbILNCm2QT0zyJhldJ9kwPykG1whnIFSmDhP80YgHNo9Bq/HHG2xPBNxXsuGkuMnVCoqAwx1N+V2QwHqMwltjstVsyQ/RIjKXBRJcf88DUrr1m4LZ5OnWtWA0td9tvqdc4960Dx8+9itSeoMnb0jchjiviF0F4dEX+w/SGKcC49E4wqJBK/lKxNZio0koLS+pxXjwW3303szKL5Ktlk7KqHBJS+WcLEF1aaUaDJ1NY7CdU0hNXf8rIIZUSwRx1EqELHghEKULFQqZiwKJcnaPa4YmA2JlhSnVZkT4BJ10yTXeEkUxn4hiSiqpAIY/c1gHTh0qS9YiVlmDylIaCcmnvmbDJHKl0aiAppATeRybHYWVqKgBKkWEOiHj8mR8cIgfuaey1ZraGF+AkQLpX0KEioi1XLx1J2qsIIJgkq9WMEHfN4xEoB5r8ivM/TKCY+Zw+XAJUo9h5foarN4c1VV2WMz1S7dWANslsbOad8Yag83RmOrWC2lDm+GPbc/C5jXN31fsqb4t22MbzRXuoUIzRczirt1jMz58+PjKoOpaIUq9OlqLB18cjt/d/wDe/GC2LixtFSu9kF012ZcA0RZ87SLMBTpr6jHy6Rcwf8wEcZ7qpCCgD+Fwni8krlFUjGBCb7AYB49GnP6NGi1mV+7ArNmz9B5QjRhWzaNLJVRU3qrYJUUYg8bmxcTybXtBKFCHYFUxls5cow4ctZkZB/ozaRLIUBR/fSWWjV1kPCO6fvJPxaeaT+Sjd6mtsrJhLQRxLJnyDtYumIb5M6enpiwBvnxOMuXgUZ7q4yqv0aPGYMeaHdi4cYvasIce/C9+9qf/wxW/fwhvTZiX8jzUSeZWeHOCeefOEtx85z0oqzL5HBc2o+uDC01EWg1K5mNPPY8dBXzFX0C5hJakabJliAR3YuXSmUjUqf+s066TZy3Cqs1lmLd0uY6ryqDjIdW1fTMG/8swR6oPHz4ONLhLrAmceqxYsxptBg7BOd85CyPHfYwhhxyGXNF8VGCpk3gv2uwLWXTbQhRqTWkZOnXvhpxencRjTaB622asnTUL8ZIS5HbrhtLCzVg99UO0i2Vjw4KlSM9KF1ljWPrRh4jsLEKJ5Pfp31vqrcWmWQt0WdXs1tnYuWk11s2ZKQY3C8vnzEeXtnkIRGuwaMpHqCrMR8cubVG1bQNWfzgRBQs3orK6Ch06thPnMIZPhXfdpkK07tYdNYWbsOHDD7B5xnrxKuuR047rj4pvWC1+Yrga65ZvQdu2rREo34alH8/Gji0FyO3YEZG0CKKl5cjr0Bvh7Fy07dRBPMkkJr71X/zghn/jR9dcqc8rEcYWmT8at4ryavTo0kX6GtYX6E898RjktOqAY8+4ECcf11VnezeKfCvzd2Lp+p3o1rMN6uvqMXfRBgw+5iwc0iuXaw7oAzQfz16HlRsL0bV7B30Cc/acjegy6Bgc3K+9Gj02/v6sNVi+qQRdurTTi4W2bXOxXTztHp3b68LsJKsRl7pz+9bIEavYqW0rc7ywIBV8Q/i/3n8fPg5UNFykiuE6ZPBgTJo6FbfffA8uueA85OWIxySugn19YL+cyWxLkBA3xUkL4cQfXIpeZ52MSGaayFiLqSNex8H9eyG4YzlWLJyP9q0ycMSgnvjoqbcxaNCRaJXjYP6HwzFkYH9UFxQhVlWHWFEBKj79CIMG9kJd/nbEikvEqGWha90WzB//Po497BCE08XTeu6/OKp3bxzcoS22y0VBq9a5GDK4P47v1RnHHHMkIhkxLPv4PQzplodeZWVYM+8TZOXmYeCRx+CQTu1x6JDjkJ0eRnnxDkSL68XSlGDy+CliJWIY8eRDOLzPIAzpPxAFW/JRgwz0PeF76HTw4Rh8xMGm02Klz/nuZRgx4h19grEBDQOfFHfrW6efgLa9c9Gtc9vUDuyc3Ia8cJl6tnwf7l9PvIxoZkdMXrwBSzbWwglnYNBhR+L9MdP0SxeI1mPYu6PExWuLrn0PwoSP5kg8goMOG4D1+aWo4E1YYf7wI/9F3kEDsDbaFlMXbtLbrPT2kk464o54zypaEicd2hUD2kRwSO+uZh9KoJdJ2qhsKdOuk6Y+fPjw8dWjQd0G4liycBHOPedyvHLvLVg2cya25VfqU5sWdlbvS4Wr8/VhEOtR6kZcmLI6VDvZiPYfhLyDAyirqUQyuzPQdRDaHXEK0LsVkFOOpWsXY1uXweh57tFwcoGSNXOx4aP3sGbUu9ixYRWSITGqrfKwMycL3Y66BOjSSdzEAA474lAsGzcdiyYtEYMmfHPaItm1Bwpa9Qc6CSMxxv369MOWj2Zh/dJ5SMtuj9qc9lK/J8paHSbWSPjm5Mqg8hM9FUgEw2JvoiJ6AMedeiIWjhyJBWNHIsvhK+LSLf64g6qGL5COZGYPdM0L6HSjlklglIHeYJgPdMiVCe9T1gfjxriIoYkkchAWQ8oHRjgDe/SpJ+OE/hk474QBqN1JI8mlwcrQU0TkQ7DRYDrWbS3EkUOycEiPav0iBXnlyRC2DZVJe9XSXhRnn3s+pk1aiYLt+ajj/VgRhO9M5kojNKh81gdB85CNOZokg/dxtT9mypmfgKIHyu768OHDx4GGBisXD4v3l4byqjJsE+O3oaIOgYxsD4FRxl86bCPcNmpQtHdeJrJiVUgrKETFyjDa53RAsK4MqNyG/tECoEJo4rk4auCh6LJtJbBuPULSr879j0ZlekcMuOYq9DjkcNTFq4G6agyoTeCw2i1STxR5fRpKi8pwyLXfxRFnHowNW9ZLmznqEWfVLheaWqC6GNOmjkOPcy5Fv7PPl3QUmaLzk7FS5AWnCY2YkpoonPoKpK2fiVBhIXL0cdEAtmzcjCN/+n0cde5x2Lp9sxlXGg8vnCosfu9fOPnMX9KJ1FVx6r1jIPFUFZErPRFHRPhzZZS1ThcU1ndAqRDwAZqQ3seMi0FNiBdZi8poDDsTrVGQ2QEbxRjWiIUa1CUPi9YmUFSfjfcnLlFDVVkDFNa1Q0EyGyVIw7gPpuD87w3GKacMQXksKnnmm4xb0BmbpBNFlDGRmdpXCX2U1Ug5Z9ib+Oe9D6OKZTbbFPnw4cPHAYOGe4ShCDp17IItmzdi85oN+Nbxx2JAF1FwomjNE5ktw5rVa9x7hKIbP889QqswbSGf7AimoXev3lg+byHC7bqg3zHHoHh7AVbNnoO6zHTsKC5Gh9690F68uAVz5qFK6Nv3PhhtevRA+27d8en8xQh1FI+rf28UrlmHLVvLUFRXj9J4FO3at0daTg4Wz52DMvHiDj3xDATSggilZ2L7zhKsXrkSnbt3Ro+BB2HR7OWIB0MorK2XtroiIvVKdxZjmfDM6dBJ8zZt2KDf7+t92JFo370TctvkYfns+Sgsr8bhJ58mXYnwtlnjzkucxo336A4a1DP11K7rXJkgP6aeHaAgPvlkEcqqS1FXmo/cUDq6tctC68wwOrXJRUYkgja5mcjOzsCUqQvQuUNr7NhcgEE9OuPoQwbj0xUyDmu24IIzjxfj6WDenEVIhpMoLtiB7u07YGCfzpj5yXLkJqLonOGgZ8d2mD19Mapq5IJJ+HTKa4P2rcKI0yCLYImkWHARmF7xJ3M+wFkXX4F2Igcftkn11W59+PDh4wBA4yXWCKY+h6IaO2YsLrzoQuhnZvbFEHoNH+NWDgkpkTgNxxS9HCcARzxXvlRAJRvgUzD8ZIS0yVcXeG9Kp+Kkjt7XSop3FORLFy4vgvz01QaTwyTrcWZPpyYlw7y35z7DKQWsz7fH1Q4JX44e74WxnK8ckoCGi1veP1O6AN8EZDOswAgJdgO9gmCEDTdsiEbVJFP5a4QZTFB6HQ0RRtxEvv/HqOQwkDDMDqmAAsnku5N2Tdkkl6OTsjrhQbk1X/Yjv9EeYR3DJPWkLZsNyZgkZez5FC3b4qoz3O18Wf6tYS/g4u9ci3C6lDlR4Sf7h2PgtufDhw8fBwKsSlQk+YAKX0+gEiVUwXrAdNO8JrB2tal93WdQWUqg7qU0nP5TiJZ1RKHyxW1aAhotJRLjlNQykzafv5EgW4pCI5gQW8kXz82NLYH0PqYEzDNsWIemhAkhl/K4eGaSIGOxsJSDSQXrMJsVhBcHk0aAxWyGq8YwU5sTA0A5+GoBk8akMjSBGGXzxqCLZkgUqXztpab5WSiaQhVP341oIFMRpQ9JtcwupFrDAZA01wNSTyWQOJNcVEDXCGWRdpB5hh8vFkjDl/K51bj8BUgobV152c+RmcnPEcWFrZSyPol8+PDh4wACXSrVnKqcdTUQrsivqtRA3B0qcJKpkdkHRWbJ9xiUsQTTAiOmgHFpmC/MhymAWDB+JYFPTRLUqwyUSW0k74mJotWlu8Q6cqudki6xjYQY96Q4JAnqaLVOrMPQEA8LfZALT0uSlegRhfm4hzWclEeYOmIc2S7Fom5Xz5MLEbhkaihUKOWk7TNG40cZWceUNAOXVss9RLvQS4aOnRtn4HRkWAL520ZYxIsF0lIuXS2HYF3mudtUBQG/AEHj51KaIoFtTzepQjGbDl/Kl6gGvibhVjC2WLxGXUxNhoeVXCY+fPjwcYDAaCzRT6oGRUdxEtD4I+o6mcKU0vsSoLx3oxyptFkkgYsv82sW/JKEVxzKre/bubpXp96EIsitzWM0GFIPRo2nZHHmllAjRoYMQhcSOvZcLgc0T3V5MGIcLMpDz1K2tI30emkME7w/xgWtyYP5sonZdccI910IGiGSGDDWkEqhaVYzJM1iT/UYb65cgtpFtyxlwAQpck+53dKgevNTPCS4w2+CC/Klp0hDrVPmPnz48HEAgboppbToHQTFQ+L9nqRs1flSrbeLbtsDLFXLqI2tcLnTzaL9oLJk0BVeRLNKfn3CrHXJ+3EKrSe1YrVidSqN3VYvTKAenCRYgUkJ2oJbR/tpogaWwC3nhotuGwZRIwt5u0qe38FTz07GRr0/WgIGl4+TjCISYj0uZy3iqTge5uTnJlsCYdk8dlvQQrC+l8fu4i1BC+n1PqkPHz58HEDwaCXRzJKivua71PWi2KMSaAqos+n5tEx5W6IWERsFaoNraIx1kUQ0ief+djdmvvgWauMJ/SiGOhQeZ6tgxQL89vxTMPzRJ437xnyxeDU7t+LJ+55QWt721Hx2wq2nsO0K1LNTQ8rv4TGbwlRjwhsPYeH0qZg86WPTLleNScbtSm0mT+qpV0QII64QU7p9M7p06oFzvnOVadK9oNAE4145Pgtse180viy+Fl82fx8+fPjYR7i3iPhbi007NuHx0e/jiQnv47F3p4oZaLBNLdVfdvLvcy2oZY1ENIaOySBaVdQhJAYoLFnubSdjgCR0PfxkPPb+bPQ7ppNmmMWio0KbxGknnqQ0dEL0IRF+bkE2+iCP5Dm64CgZCY1sQrVRzBo1Qg2baadcrgjWIBgrFec0Q5tEoBIbl47Bs0On6P1G7abtqmxVdGmwXoj/NfIDTBj1JtJ0gW4tMeX8Yd3/VbD/Zjh8+PDh4yuH+in2nuDWgkL0O+4s/ObcM5Eei6K81HzZQfW8umKCvSgwY1Qbti0Gyb2BaJ2Bi++/FYf96cdolZ2BtHgJatd9jDu/dw5e+f1N6p3ViSHjHSh+IYGWKZSoxcqpE3DPFT/FiukblQ3z5rz5Am4/7xwMe/wFBOLl2Pzxhyh5YxQeOPNoLJsyHyXLV+O2738bEx+8C7dfcBomjxkvI9IT5/7kEQz59sU497zjdDqUFmzWx4sxaeIEHRcdFtc601Dqu5OS2blrL7TDTsmJSnfkz33gJnUP7X8Z5qDz4cOHjwMCrl/CTSY6te2COePfwWMvv4L5qzYiKlrb3tpKTe0RXoPVJKSmUBn2BVY5MrhS0chwttK91SeRVnj7pfG447W38KO//R47d5YinZZF6PihIBqkRCCMwad9G/8YPQKZwQwtK10xC8s/HIqTjxiCivXrUZK/CTHxNNNa98SNo4bjzReGoV3fgbj7nZG46re/xV2j3se3LzjfWDYnW1iIUKn+pOPq396E4S/dZ76qYIfFLafMOwoLccNvfoX8HaWIJUQovurRwMCHDx8+fBxAMCaHOlo8qj49euDmn12Js7/3IwwY2Bdd2ki+GgMJVPhWl1uD1UzQe2U2fBZIPTbjzlgaZ0sy9LmZZADRqJil9CwgLx3ZubmmvUQF2sbEXMbjQu9OoDpR5EWL9VkXpzaOKy+9GOfdcjuuu+UWtOvUGYlwJrJ7Hwy0aoWasjrX2qYhlhbRdtimWf+T/+4wUaZQAFU7t2LZ+vKUd6cP8JDODR2F/yOPPYa81l3lwoDPI0kmHwTy4cOHDx8HHIyGd8GX6Ue/9y7GvzsRv/v+mch1Evq6AfW4wlLTKO0m6P03u/0coKflmh99eEXtSFY1Lrn6FDz//67HO/c/hFhdNYrWLcST/+9ajHjiWTz21zsRFS9x2/x5eOmXv8LyaW/gqVvvR9sBp2Ll9gCevuHPGPveSOFo3mmL6R3STARSb4aHsG7hPLz4q59h0UezjG0kiWvE1OgmyzDm9Qfxq788qg/vEGbK1CDBbxsFw6itqUX77Fxk8GVEqRjg6xXE5xsWH03hj6cPHz4+JwIOX+xSoyXaXHR2XNyekHoxfBSS03pSxGJjC/aKMaPH4KLvXAR+QDfovj/3WcFmXcdQV4qhPVIxOF9L90wskCMWMyl/Ia6Go59zsBAzxjfoKQJp6baF6S0ybTrEaUw1YkxyDlaLyZuvPqSbum6WPlaUEsBBrUT40rkaaWHED+ayjKTiM6Js8wrc88psnHLmeTjnhAHI1Ho+vnCYAffhw4ePzwyzsoyCXyng1wrECNIA2BfECW5TdPsXbFqNoUTse4DqLor3pp4Wk7RYQTGCTNjA6VE6YUrAclo5sXapeUzmS5IGkPGQ5Ct/lrlG0CXVuK2jCIgf6RpBN03QPvNrFUimoXW3Q/HrH38fR/fvbFaZcWVXh5lxN/0/Cdv/L2IcUvvEhw8fPj4bxBBSm1ObBMReWK1Cza3m5yuFrtgi29QsK8Vj3IibUoJW6kbQeUwXKWUrEZsvUdo3M63p5rMoRSuwLLx5HBY3ncomnQS1z2p00ySSiV7dOqFLuxxErEEWsI4N+w/eVvdvy7tgt83vDxmbtrG/gg8fPg5kqBlIaXJV1jxxRXNT4XPu8Cuyh2y6cPt2der0PuVngdVBbvdM2vZTYL3BFEHDJuUNEnZr+TWBta3cWFJCp0s1YqrupvreYSt7QyM0m+nDhw8fPloA1xASVKRMitamEVDPRuJWs9vtfoBKwqbpCib5TQXzJQi1yfsiR4pWauq8qvQp1R9Js7tkmnI5BTp36cY5b8rv63mNDOvTSrtRy445ZKXs3EA72PRbjup4uuGLA5lJsA17g8ItT4WvAI3kaQ77Q8ambeyv4MOHjwMZZq1RMQjmjQHRVFRWNBAudObUje8vWNXBJ0+TYjFoXMIihEesFoEmTJGMI1G1E7FoFaqrzbOejsOHaYSivFg8QzF4iXrJlDK+HBiNCq3EQ3E41ZtRX1+MaG2tR6elIgYim+aoQeW3BxtGzE4ymxoN+V6avcM1sTTeZKTM3DwN5OUp84avDdw+pMKXgaZt7K/gw4ePAxnBvw39CGUSiYvWrBWd+szbI/H3p57DnPVFENWvul316VdwPvNrE3SddAaTQuyDDCQ1hpO1KzF36ihsmP8pJo//WHN12tKJ4cn7HtC0flXCfQcxunErtmzZKuXlmDT8MSyZ/RGmTfvUfBORHwAOluurE1YcbhnIMygjWRutxKNDX8UfnrgHb308S9du5UAG5GpDWZBWR9Vy2AOUxG1BvVUbGrIbgvw0V0Y0Te9vsLvesAv2StA89qk/TdvYX8GHDx8HMoKIpIFLbqaJZ5Gfn4+2gw7FT359HUaMn4TqOiFoojybJL9UBEP8up60505F7otOURXEanyKMxBBu45d0SqnNTq3b6flicoSFC6ejV//9MdSLtScgi0pxpY58xAorkSaPmWahvZdBqBtm87IbZNnFogJJjHq9edw0fd+k3rpnxtj4Ix3tmTlUhxx5un40W//hHkrlmJHeS0SNFAuGrqxDx3aBdpDN7QQ+0j+pcIrhz2ovOHLQHPt7I/gw4ePAxrBY/JqkB4Ti5esR+GWTXCy22Do6+9jUO9eKN1R0qzi3B+6VGcrY/RTgXCT+2x7hat8tJq+VpGLAcediy6HHYpjTz9SMs1X5zulBzBz1kShlwrRejx3y43oLL7eyrkLEK2uR12gNY44/7foc+jJOPbYwcqTtGecdREeevAB8x1EF2zSfuW4Z98BGD3pI9z/73/j7FNPRPu8TCkMIhlIpN7oULRESZKYhlpD03STkCLwwCZl25Lm9iu8IjcNLcG+dqi5dvZH8OHDxwENfukWEWp0UaQBcXnSAmF06dBZjFBCdLfki7JRj4xKh87VftKm5jVGaSwpckja+Fr7ANdbMx1wowqxsFygO7MzcPDRCOZwYliId5Qjt0d/BI45AYeddxJCYiQJ1WVWmSmfDLTqPACH9M5UL5CBtxX1XXx92jaOjavX4jvnXIoXbvoLli1YiG07itUA8uu+jpNQ0bQ/LR5MjoAJXPeUtWxQ2ITI6b4J0wiNaL9JaKavPnz48LGvCJam56IgmIaqQCba9+wBp2QrzjznCCzbtBF5ndqo/tUvKlils58Ujzaj04mmwX1q2hKr9peIrahbtbASKsUalaBvfdxYsza52LB0LsLlxYitL0eixlhSPvrCkEKyHHNHPIoLr/m3TilzxZuUoSTEElXVVqIsugMbpV5+TUz8zwy1fG/ddSdueuQpVCih4d8isHk3eJ+X0WaZb+GWNZsnsFsfPnz48NGAIKorMGXCNCxdsw49unRBh2AcM8ZMwPVXfRfZXH/aq1T3kya1HqhZr9Q0uouC3yOEkG4aIRtdYc3kqm3lCjBlO8ow+fXRWFWVgdFD3wAX7P7Dv/6DccPfxdZkDO26dXJ9MHrKpr5+iSMQQat23XH5JWcYhlKmK/GkkIaTjjsJ5atWYtr4Cbj87HPRs2MOnHgS28RAXv/TnytfVjS+3W7AIhuaQvKYrX3iwHhDcxDi3RX58OHDx/86AgmxNlbX6sQbP/Og7xCaPCp/ndYjWqBNP9Nao9ToHkVOw0XjUrC1AF27dW1ol4K2VKPzEU99usWgaVX9moVAl0mTEUi9/O4BH3AJNc13GXHQaIRYumtNF0LDDwWzCiV585238P3LrlR6Ixk77hkjl7eC8UYZjWH5stRSeOM+fPjw4aNlCPKpUCplBlWiXMbF6mYp07x90rCWsMUV9ozPysZjBGlwAlyEG7w/x3nQpBrAkMQdvjjCdwoT7luHqcuCZowgwWKOi3ic5hsWxpyRe8p7dmkIShGmYZft1d+7UuOcTlUxxJIqmYe+0VbdPbdQPVwGQcB+P8O0b6dLCVvdhw8fPny0DOaFehd8EIMvsHuRSrZQw1r65mzIfkNKVhuhZTfvCPJr9saMiFkRY2ne54tI2v1yBQVnNRoht7prfhqgfeNHi4WP0NiLCb1+0LqMuJC4kCkPenFJxllf7bRpXX+8gSAzBiE2+4TLwkqbEuV+4huL7A1JWGyrMvjw4cOHj5aDelRhdbfJMCk+1fi1Vaz0uNTyyNYN3NBzY5/Yz5B+iUIskiTs5wINmC8QQmUjQUeEP54BoSfG54h0KlczNLsRjY1zo2NLHhLU8WRgU9y6SGW5+fzAPT9xyHhArC4/kkF56iToPUsNkmnjPnz48OFjn0C3RiNU1AzUuYwlHfMOXwqNEruHvePYcOfxK4A1CmJEtD/6rULxAyUvIFG+o2gKxMtqTkzxvGw2u00bqd3nj2cceCuVL+IHuHYM+Xkr2cA2bZAkDac+hKsJEzzOp6FhRH5oxxmvlp+o8udULnTFHxrCqJTzCx0GduvDhw8fPvYFwZioXmsM+LQmlwOj1+QEwq5nQqvxNYNrTSi/+bZiLZZNHYlti9di1gdzUl+ziCXiamzcawHtv4Wd2g0KE4YGt1A23PLdCW6TVfh05gSsmL8QE8dOM23rAmwJHUdDIz+SzyiD5WOh481gC8W41sZjyN9Wil//7n5c/funUC7Z8VAQ8z9diWt/cS9+e/dbKOXOoqA61ypCujL78OHDh4+WI3jdA2NQLAqUyrg6VotnXn0Ntz4zGqV0oviny7N8DaGWxbUNThSx6iJUV2wGasSXYhkNZCRo7hym7IgUeF1EGkCh4z2+BOlTdDJeEcnXN+njCFYVIVJdjYryWq1CHvHyHRg+6kPTljbAiBtUKAN6d6yk7LVpFgYRCYfQrUsbPPToXzGwRw/1CHlf8JghA/DynVejoIqGUUgtfzs96sOHDx8+9gnB7xzZCWExeiHx/ObNno1jTzsdA7t3Q2ZKX3u0dgtgX0No7nWE/Qpp3hgWQagNjrjo5+h/0uk4+dJvib1wsH76TBQOH40/nDAIy2avVI+vetECXHfS8bjv+v8nBrMUm+Z+hHH33IO5bw/FrRdchrJPVwAVO3Hftdfi7+eei9otxcK8LQ49/2r0P/UUXH7lOWqP6IYuXboUTzz5pJmGpRw0sKmQxMqNVbjid8/ijkdfw1HfvQk7xbANfW0kXppTiG35xfjhDfdiG0WXfoQjaQiLxVYPU9zXmGMW72YeP9SvoCX1LaEPHz587DOCrZxqpNPbCIZw2mmn4vBe3RGurdDPHqm23UflekDcI/RA7Y5YxQRduhDX+5R0KCb5SeRE2uDh8SPx1rNDxTVLoCB/BZ6bMBbXXfFdJGpLURuP40wxgOFAHPc/8Shqyzdi9phXcMrgAbjotOMx/LVXEY/SoeNaotKYGKagzqMCR5z8LUx+/x2E6HLqUJgnRO3lQTKYgeJK4PLvnYejTjoD02ZvQiKQgcpQLrIjGUjKlhOsZFuXiIksxkGlkRUfVN+D5EM0duFv81Ss5e7Dhw8fPlqKYL2TjnrRn1S6teK+8HYWH/+oFU8jSm/Dc9/sawU1xHxR3pgHnT2ULM5mJlGvxqR178OBNu1Qs6NUrEotJk4ahfuuuBKvvPRfJOL1SKa1Qnr3gchq2xpolQWkOaivL8cpP7gKJ/3ql/jxL3+BcBr5m0Zok/Q5W77MH6vFjuJqY7zcfAa7ZFtShMnOzMDB3duiTessMYJCKYY67IgxTGQgGguZ7wJL3VoxkAFpRz/nJDSBnG5wgll6/1M/G1wnvyVFKK6qMt9gNF334cOHDx8tQHDM/NW466XRmDB/MTYVleCRl97Dh0tW456XJ2LJ1gpV3l9LBN37mymDYIwi7/eFxAxG6GuFs9XSOMlasSgx9OvcG/0PPQKnfvs0zJgxB0FHrgTEqKlxSTioibXCsd++DOOfexoT//0UNqzPTz1oQ9B701fcxdvcvGwWLvrhr1BP/pKvT4aKAEl9fFQSgQQyQmISozGRs16MXDkOOaQ/PnpnMm55ejgqxQMsLQb++dB7WLi8ADc9OBZzPt2A5eu34+YHhqNwawlu+9cIFJRLixkRvPP4/Xh/3jxUURBXJm5oSLV9Znhg8/YUfPjw4eN/AYGoO4cZMfOgojjFE5EtMz/LZNsXvsRa964mk6BQLRXIanJLz+5JnIaQfplphD0U0B3mexVMki6srrD8CxO+Aa/dkMqydeJxsWOSH4o0NGEjAkcsI9mSzgmruTX5EiiKJeWWD8CkSWZcAnlEKJ9smeaUJ6VgnagrQjAZFxElVww8DV6GBIorziIee/QxXPurXyE3LYKQjr3xFumt6lcdrQApWEkaZTZkeys0IfHhw4ePbxL4tT5EqPP05plZqYT2gPlqMDR8DUHl7VHgtGfsnGYluEoLF1gTM8K+s8M0flyWTbZJvq9Hi0RrwrXY9MU/VpSNPqFiVqEJiKlh4HyrWbqNdYRQxjJgjSCHT7Ld6uY7wbJlWVrQeKkBaU+nbiWPZdwfGUIQkcAvZGVJSYaENJEnSE9XynNYX3hluryuuPrHaC1GkC+9mAsQ7kuzEJuuq2oFICTtiItqAuOeYIoluBW89Xz48OHjGwhqTFczS5Ra2QWVoZpARr7OcOVnX/SpS6alm/SUOPWZepndbgkxiDSUjcChaXgyxYVaUAlickivVk2SDGRGchlWGj9G6WDa2VoG+9o+ybXcJpSG9xLNHUUabJpZLnGg5pY0rGv2njqzXTvkuh6kmylgmuua2jZTcNvYXbCHQaM6Pnz48PENhas1VQU3gtGFVNUNivVrC9Ho+t1AN5nS8K6B0pfumSdBHUGJentNmjo+Huq+rxcXD05HjBaJnjStEzOkrj5bpA1Jhtsg+VueDbaSxDK+JBMjavIEyTgSiYS0QVNoxz8sv8Z7UxKpE1WvVRqOS5Ct/ZpGU3BJNjbFe5mWRBcOkHYcCUlhlpS02Uq/JHARhYAIpjLaSj58+PDxDYWr791NE+iSZNTOrjL8uuhEyknvT+Wl/FTsAUc9JFoeuwSp3m4TO8J7aXEpV+9QrZHrPbpGRA1YKE2MnBSKVQvLoOiIkZYRMlYiR42e2kW24fIyY0iLx5QZRU5LElpdLJxlgWBY2gpJG+7y4EIeEoZ6D1F48A4ufdB0+aUB5VSuo9O67Af9x3r55QJsUoGWU4piNHxSzg8Cxzidy+lV4R8MxBHSdeKkP2xPBGXQd0CNeA1bHz58+PiGQvQs/wT80YgHX2MlSG8m1Z2QGIboDjVs/GIEb6EF6yoQKNmmr1OwmzpVqlsDGpuGjCTSZauGSplqbBeIudVia9QaUVkL62711xKppXQRTepDMbxvqFS2iFs1WhLk31uF0bCYbm3XSZO6GSIx6wZ0NjddDB89wx1i8TcmIqgWuoQYvuJ4BvLF0a0VfvqAjuTZwC9daCPNHRc+fPjw8Q1C8PHRs1Qxqssheu+t92fgqdeHY+m2CpNPUNM2bA54GHPEO2wCnU9MYM6HH2DJnDmYMPJjcGqxrHg75k+egGljFxijJ0jpe9ogenDM0UwaIAF5SdmSd6agus5jaF0yTjmSUttlTOiVjSY5tSlUNs3BtHGB2r1oHHMnjsKGWR+jaocYboI0QstiFcvdpupq/+KSz+lNtiHE8q/v9UvQ52YkvXnDdnz44kj8/tb/6n6trIlj2oxP8dd/vI6inQkdAxpSGyheCo0SPnz48PHNQrC4Jom6OBWsgxVr16Pf4MG44orv4aGX3kSlS/T1g2hu1/Pi4yZ8Bja7bVdk5+SiTV62Olatu/fFERddhHROG8o/PaZAXS0qN6xHZf42ICbmJhlFojgfNZJXV1QqeXVw1q7B5nEfoGzdWhRtE2MVrYVTvAU1Wzaidtt29eSC8SiqN29F/drV+ukkp14GuGQn4oXCt7IAdRU1+rJ8onw7KtavRrSkTG1NPFqPzKwQ0jOyxBkTc0TRRdafXnwJSiurUS9p175pvkK8tvz8UmyqCGBZQQxlwreiXgxfkUSEZnuZhHKgV5/OOOvgbkKfoW+LZGeFcf7ph6Njx/YIiNVUnpa5N/jw4cPHNxzBo9o5yHQ17sDePXFM7zbIrStEu6ws9QwULP4awYgrVkC8pTgfBJEeDjj22+h56EE44cyjtZQ38EKhTDGAtcbjSSQw4t5/IH39MswbNRL1FbVIFm/D0jEvIn3jUhStXg/sKER82yq0qtmKnM1rEd1eDJSW4LHf/QT1Kxdj/AsvI7GjCOWrl8FZOBeJGVOx8OPpiBUV47Vb/4oV7wxH/ofD8cmHHyFaVo2tn4xE7oZVWPbhh6gq3IlwTjYO/fY56HrUCcju2FHkjol1rMNtt9yGXCmzts/0T/1CxGqA2//+MB4YOhMj523Hs+9MwqbqJG757zjUJ+px86PvYszMddrHQFoaIsH0VP0MMXQRuWBIBuKSEoPtXj/w3qZeRzAQX7P978OHDx/7gmCyXtyHoChDUXZ8UKJ85048OmEtfvKDS5FLBWi9Am6/JgqR+lun+ESb6zfoxWakOUlxnuLajQTnRoP87kM1nFC6bAWBMlx46RlIF3PTu3078c7qEBTPbPmaTfho/mIxDkkk8tohcvzZqOs6GM5p30bHIw5GIpiJg8+5Cm3POBvfOv9b2FlVibxuvZCTGUZWm0xUifcXlzaOOOdshDt1Q4dTzwLa5qJ2ewEWvjsBI959R42lU+363wlrqLhbIkA4A/1OPkZfms/gPpItpzETEuMjMXEmwgGceNoRuPLobgjUiFebCCIp3ixv8/GJ0PooH6MR2kga4tpv7sokamn0wmmoS6ZLSsZJiPjuKG8NMuhA2uDDhw8f31AEKzNao1gUZqUoux31CbwyazXOuOA0tO6QrWuQcq3qRt7B1wGuJaEy1xfQ2QcGtxOBgJgQeoKlxehZvQ0QrwpVdZj8/migSyeE0muRkRYUbyuKq39xPb597Y8RLS5HcUG5EIbFoJShdX0Z0vhpiWAQUXqd4Sx97SEtGMemFYsAMYTxnAgyE3E1rnVi1BLhTMTE8DjCIzuvFQYffxguvedunHHJxagPuwZZLF2joZa+3P/rP6GovEJXmFGDJoEGXZLuw6hJZIfiCMWjUp6m9wUTZcUoCqSjJJgjxk8uB4RpgdMNZYlW5h4hIvqATHWyHSojQZ0GTwrnRNUmnH/p/8O2HfxclTuQPnz48PENRui0s8+/c8XyVUjT98ccrFy7HptWL8eKT1ehd5duyM1KV8WsHgLRSEvvitWrV2PgoIH6YEiLv2VIfauNaErTbK+yohKtclu5mS5ayFJBPtwKMz5Aw9cC2FQoEEL+0mX4+K0R2FZaidmLVmHIyScgFq3H1ClzkNejKzaXVqFLz+547+3hWDlvKQqr63HsOWfwEUy0aZ+JUW+PwJot+eg/eJCYjyQ69eiFeCwm5RG0btsOo8dNQHGsHluET6eevRDOzkF2blu07toF9bEAOvfpgdp4Dca9OQrZPfqi7+GHGoNtxNUt7RDlXz9/KQafcgLSuHwa8yXQCGrfJFFaWo7DhhyGvDQxvk49Dh/cEVlio8dNmi6eaQa+dWhPVOZvwsSP5yGvTSusW7oKh/YbgGGvj0VS+rx88TLkRNLRt2srlG6ejaFTtuOn156HNL436cOHDx/fcATEYIm+5Z9dk4QPTgT1/bWUxrVgei+68YBZa1SQjDkIcok01mEbdiO8KRlfQmcxwalhnRq0IrttcV2XQNK4aXrvjH9ODBF+DkJBQoKvKkifWZ98lJG+jSgcwiKLWTJNLZmAcrikKh63MYfvOzKfBlt+JVPJZcsl4jgu+k4/K3jAJFsiLfm6TaCOU8KSYDuoqxcB0vULFhHJY3sMnFltQBwLP3gWm/POw7nH9dG1TA94sBNEkzHx4cOHj5ZCdaR9h07B2T6rJQVUsJJlDMjXTNkEuYq1K3NMOmgXr06IweG35KNSxicoK6WvvF9GmhTcehybuOTTQPHJUi5gbY0gx4Wvr3PFUV3gRawgR5JGkGUJh2/3hY3RiQh/a6E4xmajX6hPcqFu2XKZNn5t0JESchCuYvRkD0ghy/W6QpgxbgPT9Bz1qVdJcgUdgu8P0uCZLklmJA2OFKZLkKsfNbJuiQdhHHn2r3HJ0WIEWdC48MBEaiB8+PDh47OBqzI3hvk8g5QkJUo1bjwMo1C/HqD+1vtoSfmVBLvIvDT+SN9oH7kkNs0ZQytJZ8uW/SQtDVQDgroAuRaowrXWIar0vP/Hci7u4vWuWMagz7JIYDtmqW6Ba9BYnsWku+I26YLCMSQxPubDz1jw2xFsV5smpK6RwPzSQHPVnACXyGF/XdAz5WIBDrPoQgphgC6tBP6xfpBzARL4bURyo/GkUWVXFalGffjw4eObC36gIAVVrdTOogn54Vr6JV9XaF9cRc5eWE/JdjLVM+krHyK1U6M0AqngptW8CC8zJckIt8Yr5HQljQeNJ2kboEQpsIzrfZKnglsbWNkt43Jv9DCZZe0Q+RtCA7PSKQPzJJBAg3ifrhAs0dlZCSnj5qZNVH3XVGBbtMc6NctjgBlk4sOHDx/fcOgcHpWnVatUgHxSlHqwkZUkvkaKUfW4uksSSSQQitc2kp89YxEj7D/TuhVrpGt8uuXWq2NCjYmFGh7JZn0mJZA+ZeiY0gYMbJQipZ7CJUMGtzGugcqpUvOCg+HJe3p8etfLjEtwG8mYJ4FC8COI3DDbLeHnpDSPoaG6KbRwWaQ6QNgO+fDhw8f/AIIxUcS8d2b1oU4punGGRsr/awIru04vqlKvwoqFU7FuxVLMnbGEJCZbOxfDyDeHa8dDQq5Tik5MH3xRgxWPYd7Qt+DUG/NUW1uFJbMnYd3iOaivMovQ8eHYsPuJJo6fDcxhoHdHqMflxpU3jZa0ZwV+/4MZuO4vj+GhVyfpgzxF22vx59uexvW3vYidkqa3uAu0IyaoB+s2xlcqgpwONcnGhlDp5cetp8GD3WT78OHDxzcSwZ/+ZxSqRWtzMq60tAIPPjcC/3zqbTw4fh642qVXf369wEdOuKE6r0dtyRbU1JSiqLiUuWqo1AglqlG5TvI0QyAWKi7elfEKJTMUR040ikDM9Y/r46gv3IpIWYmwrkFMb8IB86dNRgVfn5ABowdp7veZ8dN6hIhCaWjQ1GwyQQJjQ/Gdb5+Mmy87Hos2b0eV5HfqnImH7volWuf1MASClHFixE1YXvq2igQaREpvQgM8VQQkbgKXQJ+eZTC5Xz4ahGoc9+HDh4/9gOC3juuo3kJtLIRWOa3w/35yKa79xeVYv26NKvB4XNSsVU4t0Iz6CR/P9qsC73uZ+4LyE26Do878AQ4bcjzOueBkyUsiUrQND/3g+xj2r7+inqvriNUc+9i/8drt9+C/v7wR8XIxcmWluO2qKzF72idIipWhTc3MycMxZ38PPY///+2dB7wdVbn2n5nZe59+0iupBAiQQChiUINgoQgJXESuUgXuT+ReFb0ooCIYQOBD4AqignSCYug1CgkhISEhlfTCST0nvZzedp353uedmX12Dgk5iSGckPWHtWdmzVpr1szOeZ/9rlnlVOSXdpX7tJFsasSdv75TvMV4yyMKnhmPk+I4/uS6+3Hr83Nwyo/uw9yKBizcmMC19z0vZ+tx7V2v4o0pG+Rhu8ijK+gUZR85tdVh79PAHQzLzzavCiq0Ocfho+eG5VAow/KUMG2Q7mN80rlPg/15LYPBYGiF3dGLo8ARYysuTDRqYd2yRZjx2liMOHaYttxFI1l/pm2EFncHy7v/oW1VD4ltnRy7EC0WQYzBn8ClHrOnT8b1d9yHc6+8AkkOUUg1Yuv6clxwxQ/x31dcgtWr1yHaoRt+9/RYfP2sM/S9aVioV1SK5jz292SfThuxwiK89N676Fxa4r9PJDnGnVm3bqtCQffe+PnVV+ODabNQnczDlgY23caxoT6NxkxM6si1DmOS3sk2p7ITb8bK6PUDx1HJ3Q/RR74TUdlJlB/ZlrC/Ca/5Gf/7MRgMBw8iEyVqdGNigGhcBx9zDC6/YCQWzflQvEGJEIOkrYttxO+I37L9LAh7Tur7stxqUBMp75kmNHHF+cIuyO99GGJ5oo4i+IVduqOhZ1ekS7i0rcelAYH8AhGnBKKptI6vZIcWLZYCG8JrSFqKYNBSugOc79Oxkzh8QFccbjUgX67N4RZIeai3OiEl1/a4bpIUWY9iqbej4xubpFxXCm2UXymNco4dZxS5SJLngsNcWjvin4WW7RPaWnE+ewaDwWDYS+x3lq3Ffc9PxeTF6zBt8Vrc/sJk3P+3mTjs+KGI0LKLQVKbFBqc3RidsHtGSzeN/Q/FgCKuWhVUg0PoKCQcW5dySjFk8BGY9qe7MOPhp5CvI93z0Jx2kaROxiK6ckMk3oBZf7odS/71Kt77w59RtWKNlsfHUijPweNSTYKXTOOaU87A9pqEPwk2e2tSjQNFthxLZ7hhB5ZoJB/5ImzdS+iENuCGR9/Doo21iMuvjQ9mr8WjE5di9Zpq/PXv88BXlw8+NRFzVtbgnkemYuEKvrVtRHLzbJxy5vdR1aDFywVSflPpwcrBfO8Gg+HfxmpyPY8DsmNiTagbXDovIkbZjfrzcvqj5drOuDfH4ZyR54gGcJB3Gy0U9YJJg+TUD3b53+sp1kKxbp2W8RIyXiMcJ6rem8WmX6oX01IPibp1jg4wp6ix4ww8Oclun8E98ZUdPURGKYwIfjj4F+KKHuy56c9ZwNMsNcYdKUqHREhgSy3llM8+fNbsn8qqcAA+8/KY24ioe6FTi/L3X8UTSzrjhmvO14kAtHphPdrAHiQ1GAyGzz12gXzkiyWlISZ5YswdEUHbzaggZsnZbfcEIqPk3oLEcc5OOPkiTI6uBOF6csPyP6dRo9joB+cWlcQOVY4vT22+Y2Tzpf/jgFCkQp3ngHyNCK8pO0xHEQzhaYpWRHaYr1CCrgcoIU8S83wIvxOKIotji2mxBL6RzKeLbhWhx6En4UffG6lpwq9ov/f0NBgMhs8JgaX2N7m653DpHprVnLgDSgxzCerNDTWL/hb/UzELzmUFRIVSjhghidVJ3IW6MJrZ2aEl+z6ydXkCiwwedLYSPM72Q5I4TR+cU2Sf30fo6TEpT/NnS37voeheGvU75uyibgbDrlizag0mT3oP27Zuw3uy5b7BcDDDUQZZsh0tAmNMI+wbX4HnDiCju0O9eSCBokfxoLjtcDvBOTbJcvRCRnZ0VhZG8FlIHEM2T3BMmJ5Jsn1ncq6nA/q4Gx5L4DPmwP1sGsmXW49sfu7KPovQNSF57EfLjq2eLa+bjRN2+L4Mhl1QVFSEzp0745ZbbkHnLp3RtWuX4IzBcHASmm8fWtHAs0mLhVePhPG0uAcirD/HQVJNQoHRG/I32duSe+Zpru6gzqAIjTZrUt14QjaeiqLk4oShWoZfkE7gzYJ4yLQh3KeSMX5n50PCeL84nzCdxHEsZCjc2S8rrf8jIefCbKHnaDDsju49u+PYYcegoaEBxxx7DIYMGRKcMRgOTmxOEkavRgmNqVheK2JpT0vq4p7A1Qxyt58pUn9/YL8oUTAFmq6XFBDWkPeZ+5NAU/KFG/flnOqYnmecBFs8RilXb9FNSuD67vIkmTAsXgQzk+JzkKKoZDnlZy9MeG2GME72dTeIb5KwVnbZxwZektOmokbcWl1RXs5Rl1lXN6fQIGs2GAw7EPxTSev4KPk3on8jBsPBi/30e6u1V6IadX44GSxYsgIfrqlEXKL0TyTXiB8g6O1wRzu8NGLaxOewfMY0THpzgp7gLVGfFDnIqKKEWwb/ptMioNpsKseueIkZXerIP6ejJzJxLHjnFZR98D7G/uNlHWcILyFJEnBjclpT5uBfxhfNQJuz0OuU83HZJFIuaqob8fzzE/CjXzyKel7WimLL5mo8/NBLuOS6v2gcPUFdD1HCDmM3uRsEVik3GAw7YP5RGA5y7LXrNujAcf1RKB/VlZV4d9I7WL5+i3oh7LVIQru6O9rLFGsKK6wCkkakQHSHQ0LYbVNOZJJyd3pOtk1pv4doogmR2gZEGhqoiJo5lq4D6hpgya8CWzwvJyWeX3U97IY03CZ5ONEipNixSLZFRSV+T1LRyU2rluHL3/oukiyGzzD34UkaimizlFkrxW2UwEWB44kMquQ0m2ir0jZinYpw2XdPx6Ceh+hwEi7V27t7J/zgghFozuulP1R4C6HYUp5b+rUK4W5bvjiDwWA4SLFH9GiG43raPJoUR2b2ggp8/9xvIs9KqmHNnUClLdLWXppGs3Wl2+d2xvBTvofBJ30Zp4z6BpJWJdaULRUFknMNa/DXu/6gqjTtH4+g4q1/YvXECdi8fh3qqiuwcvJzqHn7Jcx+/QUkKlejdtkMTL/lRsx/7jmsnDpL8jk4/oxLcNgXR2DUqNOD60YQKeyEX/7sJh2OopF6Qp6JPhYXqzc24Lyr/4RnJs3Ff9z4JCYvSeGZlydh7Nw61K9vwjW/vh8VIqD67k/ycM5R/SrsDArEC014aZ0gIHzKeV5SVFESs72UkTtcz2AwGAy7wm6mYInbFxH/Yuq8mdhyyGDMbbCxtF68Gs7zRbsa9n7UzwMAqShnkNHXfBQEVRBLBL+lObQgT/Y8+rxJX2zcBNKJekwZNwGH9hyI7p27Y3vZBkx64hW8/OpLmD5+POpqPHQ4bjjSR3dEp1POwtBvnawj4tnBNGhZVe8v4zko6H4IzjrzWPXYsu/vsj1a5IeHxBZ2KMR3zz4eXxw2CDWbyhFJJ+GKkMVE4iKui5jUm62lKUmvi+USOXY9G3mOoyvuRySws44XjIcM3EK/UpZIJR+EwWAwGHaJXZXXEdvFqNZa+ejdpz8GWQ0oqd2CvKYauKITqiVs5gwN/QEIqx5Wn+IYQ0ekt1UC6xcC9XERE1EPpxiDjxyGS++/E9s3l2H+/Pko7tYdXzv/bFz1yMO48KJLUZIvqicC1dsqQn/6Y1IWfyNw3lBtCZYtx+Jz/cNM1Sr87w2/Axe24LqARHVQRZn7NlJsavWa4IoAckhF1LGRbJAfIHYnNNol2uTJnqGJaC9sl32dUS3qYKvVF02pQjTza5HAptTZL4zBn8f8I7uoryqmRTGUAvzLGww+wb+HcMIHV3tW667BcFBiVywvwxMPjcEHcxZhUJ+e+PIRvTBs0EB8bchA9NH5u4QD0ZDuos5+dAT9jz0Br7z9Gl548mX0PrQv2Ju0QcTwsbt+h3cWLcARQ45B94GD0dS1Dx4bfReqxWjkd++BKS+Nw6wlG/DkQw9g7pQPtEdonG6fQFtC8aLwbdu4HkWxqHhuekrhOR8Hxfk2hg/thXwp9/h+ndG7cx6+8+1vYf3sd/HgX57EkH5dkakG7vv9U0hWVeDu28ZgwYI1WPZRBR586HEMKkrigTvGoE67jwLLli3GmWee5hev0MiF7bIGQyvk91FWEDmzQ/ADzWA4GLG8jBfMr+bpVGF2MG8YjToDT+3J30i7mmuUSHq2/mb77uSeC8tjyIiacTq18KY/CVU7CZIvTP7xqnGV+6jGsZMNK8CG2CgT5l5XCwvUkiticOK08FxQj+zjyalb+IxC/v70I7jk8qskkuInfLxCBoNy7z334tFHHsVNN92EO+64Q1t8lpctD84aDAcflpfbqyVrcfXIN6aBQdVEst2dbR33hgjhKBHCjAghe2K2hVbX/beFsC3k3JtrpQN9EUEK3+PJJpQodiSilrEJkq1IrBtTMTtTOaEqhrR+jmw/lR8Fejl+8DwD3+NFJBF/MPBXCEPQqzW7npMVzRE9ide53Bgh6ajuPCT+DUhcsDUYDAZDm9CpNlUKaZiJRgQhNKp6XoSN293QHtYjbDO8PwlWijcfNCMGcURXuBcVolZRBAlbkSiO/iHv0vLHFoa3q3kkSJ7sE6Arx+EYQbwWQM3VudakJIove8M44dTbcsx0/MiKIGE6qadNr1H2pTzVbRajScOL7y4YDAaDIUT9FHUKaWwZaFjDENpM2ddmTsbthvawHmGbYPUkaLNpNAY3O72OHxfiykPRY35wG/5gEDhRK71Bm+KUe7sUJsK0zMMXiSJ6miTogcsDDr7niAdF0tLzy6Qz2gPV9RwRuYjOKcoGU/qHrCI1m8WmxTPkYH+KX3gZ/5fKJwWDwWAwtMZm11C+w1I7z6BWNTCaoZHmtq12NDfP/oZ1bF1PjZOb4lCJQDEYxV2i7w55oDtyJt2kLZaaSKLU8eIp7nCb9c54yERBWXINj0ol/7P1ko+Q6zwGSYJri5zpdQTZcIwmy9ahfww8lh8c/M3hiQJ6LMhNQmRa/VVtRWUa2bdlJ0L3VDJa+n15wQw4OUPqNTooXCvunwsD31nqFHsSQtjrlCE3bq8JKxJuDQaDoR0i7gyb2cS3EVsZBjX4hAaM++G2DeQOqOdem0Iby1Z2WkAQdkKa1t6LY8O8qdi0fA3mzFoSeFjieUmmFOrwxqsT/Ntz61G+cBKWLliSvV8LcdUwCgOLCl/JaYwoJledZzmcocZiW6roDbOqCPJhUn+UZmxaNg1zPpijddUfHBKCVk19BhTEiAgcRz2w1dQWZdu6bAG2LJ6P+ZOmaXpen1n9XGF+iqEc83uU/+jFsmZ+myq3flrWPxS5qibgd396GT/7w3hsbPQfXvn6Slx3z+sY/eg7qExIupab3QGmDoP/sQv8yxoMBkO7xr7wtudRIzsZN4HK2jrcdP8j+O87H8Iv//R3NNKQ0epy216MWlvqkWOcte+JVYfKTYvRWFuF6i1VuhBuRApyJSREGspF+DjTGm+2tnIz0hz8F5BBvnymVTyItnrKM4nLnsd3f+LGxdSVk3ipm9+ZphbzXv5/WLnKn6YuSfmSHwZVm7ch3ZzyHW7JwmnV3EyziJg/i4/29wzrzm26Hk1S7+rKjSgrW6kKxsV4neZKzJ+3TKdv07lNWb5Fefczs46OSiYT+LKZEdGOcpC+CCazFBYC1/342ygWNzMlhTB3/z5dcOtlX8LEBeU6RjGiL0n3AW35zgwGg+Ezwv7mCQPVyFt2BJl4M/7z/Etw46//Bz/58SW+WW1txPaRbdxr2nL93DrrficcNeI76HfMIHzh1OMkTnymrVvw95/8D969/24UeiIdUu67zzyCGc+ORUmsix5XLJ6FP19zIZY88QL+eNV1WDx5urhU9Xjmll/hsR9fh4aNtXoJd3kZ7r7iSox/4kVEMkmMf+z/MGXM43jx5hsx+prrka6pxPuvPYYPxzyIHp26+M2mIj2Tn7kXf7nmMkx/+RVRqkZULpuN+WPH4JGrr8S6+cvl2+mEgSedhf7HnoRTzz4H/jL2GawpW4yrfvhD1DXRrxX0HjOiz/RSU9gu7txNv38TY16bhUt/8wi2ihs4/q0ZeH5+FRrrgVsfGKs/flQwHfEdJb8+Vimso10voun6LaraQ7UNtOU7MRgMhnaK3SPWpD4PGwozmQxmTZ+OZ558Fs89N06dQd/jCDhQDZ6Vh2iH3ogUF6KwQ7FE1OLD6ZNwxU+vx8jzRiGj7afA1y+9EpdfdRkaG0U55L77HXkUrr33PqxfuAE33P9/OP4rQzFv/Av4ymGDcNFXhuOtF16Fu60SDz18H278819x1HHDkKqpwhmXXYr/+M/v4Re/+g3uuP8eFJZ2xIhRI3HZj6/G5spa7S9TXbEah3brhWv/+DBiro2apYsRr6sWl68Trr7leqxevUq9RqtDL+R16oGuh3TV7yIpHt4gEcYZM6eguCii7w19JaSPS5/SRmPSwgdLt6HP4MNQ0OtwvP3uStRUJbGsWrxgcf0+qtiCOknJ790Wb9aSCqmnK994xJGgK2zI181OQAaDwfA5xxabieYU+x5GUdK9J879zun46eXnIx1vwPYafx5ObVxrTyKoxn9viMhtMHMzmtwmpEu7w+4/SDwtURx1fgrQlOeIMIlM8H5FQCkXfQ47CiiUXacBDRtW4NBhJ6LLiGG48NKLUdfcgBNP/6qcL0Hf4wYj2q2niFlHbI5EsDUmmVgE38NGOiMtwhKVp8kVPZobUyjtMFAu2RV9+vdHJpVAyilCx6GnAZ2LUCPHrAKHFmrVpIo8jjhR+U6kULmNfIljk6p2LfU4eF8iLQeeqGNBaQzDjuyGziUxXXeOQzU4lRa/y/BdJ+UulYlJdkuPWX6dVazvKHns/zwQRBhbjv0naDAYDJ8XnI4njxxd3miJZ+AiHm/CS1PnYmFFBRKZPAw/4QgUiNXL+gW0gLuxgmVlZThi8BHaWabNM8sImjJMLhaZzXX1dfUoKS0JIgMkXjXKP/oEgkJyYIcSvRcrgg5NcVSPexHby1agYpuF4087EZUzx2Hz2++hcsUqeB1EJL06rHj1CdR88AG2VW9H7yOGoEfnQ7Duvfewde0qVMQdDDz6GCx/cxzq5n6I7Svq0LHrQDiFEbj1a7H1X+9jzdpa9D10ILbOfRfr//UiqpaVAeLl9Rs0EMsnPov6ubNRsXU9jvricaita0JhflcUFVdizertGHTU0dpL1BFPXb4hHddoeQ1YWTYOJ591HS6//FIUsLmUC6wyodxuBgnUJxoxZdI8jDx7GOYs3IjS4hj6DeiMcVNXYf3mKixcuwlf/eZJGDdhIcYv2Ijy7RnR3iJExNt8aNxqzF6+VQSzFIcP7IyOTjNm/uVePDNvK4Z84WgU6Rcg3608W326/MgOMN3xeRsMBsOBgNUYdPPkygx0jOgxNMtHnuz7DW17xptvvImRo0bCFaNqhaPQdwcNPLeBHWWPSnZ43OnMMoTpwv1dwkJbGWYOX2DHlnCEOstgW6H2nJX9dL3EybHXSbw6pmOiRlGXfL5M89NrVAIopqsn8IHxXRoHxLOPTYHGCpIvIeXmiQfHquhHXNwqySdlM5udkTQuZ4iRJy1i4vLG7Shsix1qokhJFtaUzZ+8tN52QkQolkRavEI9lkuL8ynHrgilLeky4Or5yZQIpxTN/HotCfTqmIfVZFMom0abJPB75ioW7PuTlBOaXj54h448s7/95WGMvOJ/UFzCZlSJC3vECqwX8Y8MBoPhwMMuTLkopNETS6lGVyxbiYQYbXuwtlBo7NoNe1UhDnKgSMiNidVmky8Hs8cjMdVGvn9LREuQiXaAG+FK9H5TYLNXqCLIJkpelsEtylNxo25pVbj8hJThiXLwmD1HM24RknkRbX5k2dr8aBUgLb82WK4kkesXybXl+qyAXMMTEVRFsaKq1VGqFRHhUe2WYOVJAjvP/5EihVAE9V68lA7Ety1HPcdCyatCJoFOI7PnSzzz5UvFC6UGPMdeqNoTVc7xd0uB3EG+BG4pq67U65TTz0bHQlv/bWiVcn5gaHX9XYPBYDggsXX0Nq1kCK0aj2nxdHhAzjshWm8xhu0etc6tzbMci8CkRSjoGfE2KCC81dyUGfHOgolg/EfBciRxOCQvN/CUXkYLa9nnFKsUFc4lwyg+Sg52p9jQu+ObSn28QZlMw2errZtyQEGjEOvUo0wTqrAiO8zAfFS1IH++eIiallEsONhnObxfRRLyujEKq2xZpDp3ElquLRm0UD8wTf8jDs2Wt1OYyGAwGA5QfCEUWmyZGEKNki2NnxpGbiX4ST9b9rYO2jvSRpQdSwSKA+9MGynl/3DRXsZxIAJvlx4QxxwSbkJPjp4Yj7nvI0fqIvpHHBivZYq37aTSKjRab1UkV479m2AXFJ1ijVWSLZsseQ2ezkic9oHRMqVm3HLmGpbBoK6mpAkrwWOmkWO21HIdw6QE5o/KscMWX54PKylYXloX97WDXqIkQo9StqqDsrVZGe4Ed0vn1d8JtkTPGwwGw4EJpyJRWmxZaOm4FZOYXRpdYKI9MHph8t2GXKO6O/YkbQ7pdEKMuIuUBF5TV3bnlmoTVIQOlq76LirEFlS1/aIR3NhyHJMdRyuQkacTeMoqgEFiiWAv3LgcJaiW6hZGWsSKF2BOycIhFFE+X33pJtGSj/UJdv2nL2no3GUkUptvIyLREamQJOCrRcbp7xhWiU2keh1XvzK2oFIItSCGoNWVn/RHOfsM5zJVYeMwCb0P2Q82/oekZiYNklC2fhlCdsdgMBgObGgGxXbSkLew41FAezF8e1MPL46II/KUbkRGFIg2nve4w31KuYynN5cO1Ui2adEIl0rGY01AIRK/Tbwzi+2OEplRkXCQElHj5GZ5WrKlM8do86steVKSh/ObyYbiwuZT/gCIBF8Bi+ZeGMIqUDB5zCtxxlHXiqq3yJlgKLp8/0gvcquEBsnUKBkogPUSqiVdgoWEBPu8lsFgMBh87NdnrRYDTrMbIBb39feXYmtDS3NZu6ItVjw3DffdJsx960UsmTMPE1+foCLDd3WOCJwnasTpx4jqhKSnsPgTCSSRbq5EXXm1r5rMKGnrN6/HHTfeLgl92aL8+dgiVY54lI52QOGYQctNSJ44Uk0NmPPaLIy954+iUvXigKXluulATP1qatOlhNA54yn1yOSAqfieMeInz4pjPOnihX+8iRt/fC8mzV4DL+Kgpq4ejz/xPC6/9nHUNUp2/tAJRNBgMBgMO2JPXbYFdaFrlErjr08+i8EnHY1ocUSb+A5cKCUCBUDcLwqE5caQbwfjG1JJEZZGiUuBww5UVUQYI6k4CiSr6obbgPz6LahfsMo/r3EplHQoxU03/zY49hBNNomHGNd3cWzp5KWtlLh/29bhJ9/+NrasXAPbico58UxZcESebTqFVCaJH152Maqqq/V62swpgUKoEivCm5TfI3yPyFUiQjHjkAcKLX+quDEbF188EueedJicjqledyouwDVXfQcD+w5GUr5Eiz1hdug189nBbyX4ZgwGg6Fd4PzsJ1eNPnpgX0TdZqzfuB0Lt1lYtW497FghenQs1C74e8JeDainZQxEQKGQyP5OB9S3BS1HPqQcLdoqQI8Bx6JHv74YcOQA0TQPTQvew/wHbkVF+TasWrgSA3odgrfHPI7m+TMw5525OOLoAUivno/Nr4zFhkVLsWlzFbr16gmvdjs+euElTHx1CYaecQJQU46nrrsKVsMmTBz7Txx73HFIbq/AgkcfQN0yKfekb+HIEV9FpiCG7kP7yf5wZGIOHBFnS7zLTE0cQ78wHHYk+7pWt2xSrROv/PKrfoZF27vjhVnrUF9bh8raNP4+28WXu1o486f3YOiIU9BPtH3+giUo6T4Ah/Uu1om1+SZ0/PsbceoJfVFaSK/XEmH1rxAKUe71fILzssnGtZzcp3xKxRoMBsMeY3OsYIIDzZFA+dZNsPodhivOPgbjXhmHLVViFEOr2U6gkd4TK6pNi4Lt2OpZ0dPisIbi449DrzNPR9HQM3DaVZcA3Ryc+Z9fxzHnjsSpJx+HtHiP0WO+jG4XXY2iU76Dk668CE6Pboj0GYSjrrgMTjgtm1uMASefiWEXX4evXfBNbGnYiLp4AgMGnIjBp56NFAf6RbUvi/hr4rNJhWJSC0di2Gnlgh9ciQgHcWblyb89xkSciHiNRThr1In4r28Nx8Y1q1CbTiLqNMO1E7KVOkq6VCqDpHi89eKdsucpXUt+o16sRvYTKopWIIJ85xg6twaDwWAQM1nrFKHaiiDhdEQkvwj9uxWiiWY6PyYW2fOFpx3RpursRLyZT9+E6jlRsEwSnZsbcBhfulE9mpN48U8PYuvMGVhZNluSZURMYkhHY+jgbtXeKRxiAb7zk7xd3Uptm3RTHpJWvlyAYxRtnQ2mtENnpDMpxMuX4etnfFV7nLLJNLd3LHudRkWwnrr/fjTXN8hx7p1JQqblRhSRq9Lny2k2cdqxGJJ1tai0S5H0iiGXQcZxUIl+SES7oEGuxSWUGuWLa0ABtkbyUC/i67hJNJfPwQ9uvBM17GljMBgMBsWeOW0q/nDv4xj/3iwcP/QoVHwwAffd/QBGfeMU9OlktXiEOUb8MyUQiN2SW+8gtAiRhYUTpuCZf7yBhx+8G88/9jRQ0BldBgzBU+PeRnNhMcZPngzbi6KwWx9MmzUZ9/38WmxftQJby8pw30+uw+INK3DXL38lnlgEeZ27sUg4RV2QF8tHzPEwb9Z0PPuPMbjnp9civrlqJwIuUpjOYN6cD/13lAJ11q+ipJYdjr4YdGh3dMpzURx1cUjXQpx0dC80rFuCm26+E52jKRRLujvveBRzZn6IV555FP98fSoqK+O447Y/oHrdR7h59P2YNG2xlrpp8Wx06t5bZ5TbLR+vsMFgMHwusTyPjWVi9WiFfXvskxUNgUax9fldkDvXKJsj2wTL5jUC48vxcByRsMu5RttCmDY06NljT+fiJFq73HSsh7h5HF8XNqmG8DHxzRtzhas1MD8Dk7Ipks2f7NZSOWcmXv+/x1BQEENtpCt+ePttgHjaH6PVNVgmQ65OaQ9WuW5UrsTRf4SjGDnGUAfuy1bvw6+a3o7WXY45zILlMY7veif+8U4M+O4P0bNHF50SNby8/wNBc3JHy9UyW6L2GXopYR8XazAYDHuNCCEb88SEh5Y8NH40rNzuocX61IWQaUJr+knszOIyLiwjjJdjXo/R7Fzpt2Gy4VKqJSrCqdbEcfN7ewo6rEIChah12b6AuFJeHAm7EPmy76Y9cP5PX1lykLQsQq+rEb5o8VFEGasPwdGvhc20FmXQdcVLtDWO19d8Ug7zsSps+mV+QnHTuUcl8GvgUEjbS8MVD5bxOo4xJ61fEz/mY0KYuyVhxr1gHxRhMBgM+xSxk74fo1Y0tFLc0hLmGr/2Qlvrw7qH9xAGwhd2ufGyzzk7dQ1ajZeP8BryTLjLObX1nISgz0mW7OxkEu+fsqWIguA3hS0/BgIRZBszFScnf6ui9Ctg8Avz91gOZ6DRrYggY+ndUZjZKZdF85xC7ZQN62xZaZ17lKIWijdnueGGebnNoueDyNbnSBgRnP932AdFGAwGwz7F9r0BQawTO8bs0CtTLaq/23bCDHuccR/j6RCO1rAhOIS7DNqTUgI9K+pauM/AjioZRvJA4pk+Z8cXUCE4DPDXPdQnoB/BwH05YDHZRyNl51bR3w19uhb8uXAkW05ilqOzy0hgLK8XDodk8cFqgarrTKDeLo+DsnbFJ581GAyGzx++eRTrSQPq23s3O7dz1mDvAeG7tdbv2PYrqgRi8mXrG/ZANjxXmynDplBOt8ak6llJoLcVCgofDN/V6YoOjORJLY8PJ+4nCMSRqMPn72bjsqgnmD3rI9fW1s+caO5yAd7WhKKWm5jfFwMvFcZSFPV7EzzP0UH4PNZsbBvdU1ouZzAYDJ9b/F77geG3Mgmx+fRb0mJkPTGsrm4JP1vb950RemE788b2G8GlOX7ON/9NWLdkGrZUlOOjheXqJTE+w/eB/L+VRlDz+G6NhLJEkeEPhVQ6CSvRjA9efFOFIpgh7ePscPvyLJsasXb+BsyZOIUD/1SktUmWp3PKyHro3DI+9zhE9tlxJl9qlYcUnn7uTdz66LsoW5fQr7O+vhl/HjMJN//tfWxOBMWLS8hr8tsNPcwQHoUhZMcUBoPB8PnFvvC3f8dGzqXm1WHW/A9xzg0P4eLR9+H8a2/Hump2/DhATaJUmytMuJzsOl2PyrVLUbt5A9YuX6mdX3xPKa1iaHOliAD1qHjIkGlGfNtazP3nDPUO9f1cxELz9k1Yu2KF9qLR/kC5j6ilqCw6l6koZu2Scqyb8aGoagquXJfD3ys3rm1R29zJz0W0dFQFlY3IloLNKde0+VoypeW7ychPl4suGIlBsRQ2VzaoWJeWFOCK738NW7YkwJneWG9WjNm4esaOYxYNBoPh4Mb+xomHojBf7LSVh6OPGIIn77wWf/n1jTh1xFfQoRPXRhBrTEPfXvSQNnwP7HjUEbfL6YTBJ52DgUcdjy9+9Qva+SXWsA3j7vodnv/1z5BokF8Cnvh8lWvw8m2/xZt3/xFobsLKmZPw3G2/xpynn8ZDv7oFVRVr0LCmDG89+CD6dhsqSuugfMlCbF++RAQojUR5BZYumCkCWYc3/3gvHr/+59iybJOITx7yCgtx5ClDcdoF54macm6ZDDKZOK783g9Qub1ah0kgd8kroTHp4Zb7HscTEz7C1bc/i5Vb41hUvhVPzqxCvDmO0Q+/jo+qLX8CcRH7ulRS54dlv9Iol7rI0LMPv7pQ3Xf3ltBgMBgOLuye+c3gNGu2GOsOxSXoLrqxYclynDNiOEQf/c4WBzSiEl4B8roMQLS0CJ16dpC4JCpXfITzL/ouLjr/DLz/zjQRjRhefvgpXHjVVfjWeedg3boKHPalr+D711+P7154Ef77N7egyyGHoLhfP1xw882oKNskeYD+/fvjtefGwEvHMW38FBw9cADWL5qD4b164b/OGYk/3/l7eJwl23FQ2LcUXY8cKALK3pu2ROXh9XcmoEvXTvoakt4cO9UQOuJp18LMBatR3uDh6+dejFf+ORGba+NYuU1yJ+J4f3456kTb2DE1kp8vHqQ/0pBvPm3PQZSeqNw+4+gLBq6kwWAwGHKwm+ibOJbvkVgZuG4cU5dUYEC3YhRrEoH2s73YUOrEXrg02mEk2wTpIiHe0pM3XY+xd9+OUk6RJmL10cpaNPU6BM5RfdHziCORSkeRKuyAyrxOQFEErhMTPSmQYCM/06hCiIICDB5yODYvXoBGT55YQUfY1XXo1qEHUNoFo3/5v7B0hLxUIOcZcp7RDNs+g9Hzekruy/UbZ7XzDl+zuhkbXxp+JHoWSQ7bQ8qNoiQTQUS2XMKJzb/MEkeJZM/TR5MREfS8GCzZcn5VCqxeoaX3kMFgMBgC7Omba/DCrJWYt74aCfFA5sydi+KBh/pL7e0VatJztu2DsDaeJbJgx+EmtuOskd/AyRddivJF80VxqnDOhcdh47N/w9qnn8G2lSvEzbIRjTlILHkLK197G6nKGmQ2b0bjq/9C3oa5WPPOdFEdCyO+MQLlrzyOYWcNRzwvhtJDj8TC5ctQv2I5xr3xT18wW2GJdEUy1bj4G5dga21Kl1ai+MlF+aGwEdOSM5xnND+SQtzNoKhLD6xasRLPTCnHtlQeGqXsSbNXYsqq7Rg/fy1mr8ygKgm8MekjLN8ex9jp6zBvA7v6CBxQL2X5HqLBYDAYiLUhnvI473SReIVi85FMi7HMyxP/IoQuhKVNdfSqQkHZFe1mirWQ3DxaHYnwxP/lBZoT4i4lUJ3w0LFLKaxUEl5dGlY0ygei7wCRlso0iJAU0hvksQhpc7OUkQ9xymAXiHBx9Y6mJmRKO+staN8brkafEK+xY5FfB8m6I4z0kK6z4ZT6R6wes/pPzRUv3UatlFMgDis7yujjkQ8utlsgOVLynZWIg+o2ezqxtjiwiEnCzjGbc4hjk9ymOLLonCdCqlk9KdV/yMGj/kTaksZgMBgOdKyM5wZTPvudKNQgy4eOi9vZ+LfdsDdCGF6X+DnEzfEcbNqwCT379PLrxOgw0d6ScysUdrYUckWJpNynI/dpyWXVK2Pg+zV2XpF0bFrMTknGOsgO9ZArLIXHFLC0iGZMvEj/2QXnctECAnLP5cZn4SAH/zuhsNKpZN2yX0eYP9imgnOcHM6SG2MyLqoRY7xsdTgL75GJDQaDwZDFZlf60KbSSOr4ORpPKk/W6n66UEQ4/2VSdviukn4L65BIJNUh43nl36kO84Y3KlveXjhfKNcJ1Lk79Z6ZgFtfBAn1bodLS7xOuxac1/IkxALh17ThuVwYF4ZccuOz533R0hJlZwch1vMBjJTAdQn5vtAORJBwKjbteyPBogiGeRkMBoPBoOjs0vQgiMfR4eIqZccO5hrM0IDmxu0jeHWd2UWCr0X89NCle1dYUheKYYpKSUIrv6eE9d7b+n9K975Lwuvtq2vmlrO3z9BgMBg+h3A4WxaLHo0okvoUdMNyDeanKAKUPTpYOh5Otp5nix67KCkpEC8njXxJEBWVDPW5XXOg1PFAqKfBYDDsB2w3Qicwp/2R4heGXMLj1vH7kGzRGQsZeqd8O+e42vGD7+mM7TYYDAbDvsaeWlaNNF+OiQqlUhnMK1uH9xevwLJNDTq/5n4Vn+BifD0XjUSxdMFCfO+C83Hv/Q9oBxTtyGLUcN/wKf6gMRgMhgMJ++WpS1HPTpriFa4pX4vKtLiI/fvisXFvoaKGJyRVKD6fsghR7JTASB897EQ8+9xYHHfcIL/DihHBfYMRQYPBYMhif60/Wx/TsGwX0Twb5dXrsGhxGQ7v0wfdSvnGLoDGky/zPiVUb1sbaK8S0999AT2PGolkzrtMg8FgMBj2FXY6E4fNsQOZRjQ3NqD/gCG47OQhqCpfjbqapD+C4tP2xFzRWRE6HbrBV4PZ95U2Rpx1Fn5xxek479IfoMl4hAaDwWDYx9hNeSWotKOIOx2wta4Jtp2HlO2guGNXxBPsohKwtyLEfG3JS8ENg+BxuIQbweS33sXjTz2Ol8c+iuin6JEaDAaD4eDEifUaMHr8xBmw3RS+fPKX8OSYZ/HS66/hpBO+iBOHHKIDtbO0brokrUSurOwjHDF4MNygd0v2vd7O8oYwTSshtDgppmNjwMABmDhzua7qEKMQ5qYzYe+CwWAwGLJYCY/rFAihGAXoqu1yzPd2of7slFyhkzyvvf4qRp13XiCENjiPKcnIscMR84KOB+TpsNBdFL566XyMvvVG9D3xbPz2hp8iKnn202Q3BoPBYDhIsEQHdUYzFaNQZKiCOt/YTqCIMV0gcLofeH9uGnhz3OsYde5IFT7OYkpPMxLlYHgO049ItkDNgktodtnf2bqHqVQa0WhEp13TKdD8aIPhwCL8m2kLbU1nMBj2Gb628DP3DzB01eQPmBq3w4wuYbpwSxXTv3QKm3h9UfEvRdVsyRi107CjXCzWEc/SVqHk3KZ+Yn/D3DsTQRIREcxICjbPskpuuASDCSYcSCH8+2pLMBgM+x0rwzbM4A+Qgsdpzvy1DnwvTttG5X/VqiCdQu1T/aM4BSdkO3vWHKQyaW0G9dwkTjv167j+xl/i+htu4FIX4ilmkOGLQ3qLFEjJxmtauuKErq2uV0+6GTiqfnJkORIrHiWvI/XJVtiwl7T8eDHsOToFoe7s/t+hpuA/W/6ibAPuATGPoMHw+cJKa9uoahCiwd+1emkSMiJckeC93sfQTLk7kk4Mw6L5c9Cxa0fklXRCWjy4w3v2xehbR+P6X92gF6Gu6vtDSluwAFT2XSEJ9mkQbBU+ySMJzGB6Q3tC/wnvhvCfdUZ+zLUlPXG45qXBYNiv6BBCumDcsuUxxVXs6ISlxFOjQvF8GAL0Ryv/yrXJR3Zy2jYdqw4TJjyHO/9wJ9bWVPEvG1EtRzKJZ2eJF+j7guL7SbSKYG4IsHmCx7LV6JxzBsNnjf6z300I/01T3CKRtgX+KZlgggn7N9jDz78NcdEodlzhwu0XXXIDDv/CaXhp6iI06l98TgjQP/LWBC5bAh0w8vRzMOqEgdi2TSQvkhe4mPJLl0koslRQbXbVLAp3mWynhOla1cOwl4TP0YT2FwwGw37HvmTUmcjwpZybxtw5c3H5DaOxdO5kzJwyA/U1fqLW7PD3Kge+TsmO/O+6UTSm8lCfimFAr1Kk0gmkxavLpCUVM4YtP9wXPdRtsOHhDoQdcWRLhzIMhn8TPkMT2mcwGAz7Hbt3aUaHOlCJNm/aiLUVq7F61SrMnbcIDQ0iRG3449QkgZsYsR1U1jZh5ZYqVG9ai7SbQYJzmUZaFRUI4C7J9kaVreVmm5p26o0a9ozgWZrQDoPBYNjv2HVWGl7EQlqU6txzR2FEj0Is25ZEwYBD0bVv4KN9ghj6IhhIlny4InwFMRelBWlsWF8rIhvRYRC2l/H/zpkwDP6HbCi4Ld5f1vXTDC3WIZvfYDAYDIZ9AvD/AY0LpYBGH/HiAAAAAElFTkSuQmCC;" vertex="1" parent="1">
          <mxGeometry x="720" y="670" width="450" height="217" as="geometry" />
        </mxCell>
        <mxCell id="byV3v_472FBZaSbdoY92-42" value="vista del objeto para tomar la orden" style="swimlane;fontStyle=0;childLayout=stackLayout;horizontal=1;startSize=30;horizontalStack=0;resizeParent=1;resizeParentMax=0;resizeLast=0;collapsible=1;marginBottom=0;whiteSpace=wrap;html=1;fillColor=#fff2cc;strokeColor=#d6b656;" vertex="1" parent="1">
          <mxGeometry x="480" y="1260" width="140" height="120" as="geometry" />
        </mxCell>
        <mxCell id="byV3v_472FBZaSbdoY92-43" value="descripciÃ³n : String" style="text;strokeColor=#d6b656;fillColor=#fff2cc;align=left;verticalAlign=middle;spacingLeft=4;spacingRight=4;overflow=hidden;points=[[0,0.5],[1,0.5]];portConstraint=eastwest;rotatable=0;whiteSpace=wrap;html=1;" vertex="1" parent="byV3v_472FBZaSbdoY92-42">
          <mxGeometry y="30" width="140" height="30" as="geometry" />
        </mxCell>
        <mxCell id="byV3v_472FBZaSbdoY92-44" value="button :&amp;nbsp; tomar orden" style="text;strokeColor=#d6b656;fillColor=#fff2cc;align=left;verticalAlign=middle;spacingLeft=4;spacingRight=4;overflow=hidden;points=[[0,0.5],[1,0.5]];portConstraint=eastwest;rotatable=0;whiteSpace=wrap;html=1;" vertex="1" parent="byV3v_472FBZaSbdoY92-42">
          <mxGeometry y="60" width="140" height="30" as="geometry" />
        </mxCell>
        <mxCell id="byV3v_472FBZaSbdoY92-45" value="button: rechazar orden" style="text;strokeColor=#d6b656;fillColor=#fff2cc;align=left;verticalAlign=middle;spacingLeft=4;spacingRight=4;overflow=hidden;points=[[0,0.5],[1,0.5]];portConstraint=eastwest;rotatable=0;whiteSpace=wrap;html=1;" vertex="1" parent="byV3v_472FBZaSbdoY92-42">
          <mxGeometry y="90" width="140" height="30" as="geometry" />
        </mxCell>
        <mxCell id="byV3v_472FBZaSbdoY92-46" value="" style="rounded=1;whiteSpace=wrap;html=1;" vertex="1" parent="1">
          <mxGeometry x="370" y="920" width="390" height="280" as="geometry" />
        </mxCell>
        <mxCell id="byV3v_472FBZaSbdoY92-47" value="descripcion corta&amp;nbsp;" style="rounded=0;whiteSpace=wrap;html=1;" vertex="1" parent="1">
          <mxGeometry x="390" y="940" width="350" height="60" as="geometry" />
        </mxCell>
        <mxCell id="byV3v_472FBZaSbdoY92-48" value="descripcion corta&amp;nbsp;" style="rounded=0;whiteSpace=wrap;html=1;" vertex="1" parent="1">
          <mxGeometry x="390" y="1020" width="350" height="60" as="geometry" />
        </mxCell>
        <mxCell id="byV3v_472FBZaSbdoY92-49" value="descripcion corta&amp;nbsp;" style="rounded=0;whiteSpace=wrap;html=1;fillColor=#fff2cc;strokeColor=#d6b656;" vertex="1" parent="1">
          <mxGeometry x="390" y="1100" width="350" height="60" as="geometry" />
        </mxCell>
        <mxCell id="byV3v_472FBZaSbdoY92-50" style="edgeStyle=orthogonalEdgeStyle;rounded=0;orthogonalLoop=1;jettySize=auto;html=1;exitX=0.5;exitY=1;exitDx=0;exitDy=0;entryX=0.636;entryY=0.008;entryDx=0;entryDy=0;entryPerimeter=0;" edge="1" parent="1" source="byV3v_472FBZaSbdoY92-49" target="byV3v_472FBZaSbdoY92-42">
          <mxGeometry relative="1" as="geometry" />
        </mxCell>
        <mxCell id="byV3v_472FBZaSbdoY92-51" value="" style="rounded=1;whiteSpace=wrap;html=1;fillColor=#fff2cc;strokeColor=#d6b656;" vertex="1" parent="1">
          <mxGeometry x="630" y="1210" width="320" height="260" as="geometry" />
        </mxCell>
        <mxCell id="byV3v_472FBZaSbdoY92-52" value="descripciÃ³n" style="rounded=1;whiteSpace=wrap;html=1;" vertex="1" parent="1">
          <mxGeometry x="660" y="1220" width="250" height="140" as="geometry" />
        </mxCell>
        <mxCell id="byV3v_472FBZaSbdoY92-58" value="" style="edgeStyle=orthogonalEdgeStyle;rounded=0;orthogonalLoop=1;jettySize=auto;html=1;" edge="1" parent="1" source="byV3v_472FBZaSbdoY92-53" target="byV3v_472FBZaSbdoY92-57">
          <mxGeometry relative="1" as="geometry" />
        </mxCell>
        <mxCell id="byV3v_472FBZaSbdoY92-53" value="aceptar orden" style="rounded=1;whiteSpace=wrap;html=1;fillColor=#d5e8d4;strokeColor=#82b366;" vertex="1" parent="1">
          <mxGeometry x="660" y="1390" width="120" height="60" as="geometry" />
        </mxCell>
        <mxCell id="byV3v_472FBZaSbdoY92-54" value="cancelar orden" style="rounded=1;whiteSpace=wrap;html=1;fillColor=#f8cecc;strokeColor=#b85450;" vertex="1" parent="1">
          <mxGeometry x="810" y="1390" width="120" height="60" as="geometry" />
        </mxCell>
        <mxCell id="byV3v_472FBZaSbdoY92-60" value="" style="edgeStyle=orthogonalEdgeStyle;rounded=0;orthogonalLoop=1;jettySize=auto;html=1;" edge="1" parent="1" source="byV3v_472FBZaSbdoY92-57" target="byV3v_472FBZaSbdoY92-59">
          <mxGeometry relative="1" as="geometry" />
        </mxCell>
        <mxCell id="byV3v_472FBZaSbdoY92-57" value="vista de aceptar la orden" style="whiteSpace=wrap;html=1;fillColor=#d5e8d4;strokeColor=#82b366;rounded=1;" vertex="1" parent="1">
          <mxGeometry x="420" y="1530" width="360" height="100" as="geometry" />
        </mxCell>
        <mxCell id="byV3v_472FBZaSbdoY92-65" value="" style="edgeStyle=orthogonalEdgeStyle;rounded=0;orthogonalLoop=1;jettySize=auto;html=1;" edge="1" parent="1" source="byV3v_472FBZaSbdoY92-59" target="byV3v_472FBZaSbdoY92-64">
          <mxGeometry relative="1" as="geometry" />
        </mxCell>
        <mxCell id="byV3v_472FBZaSbdoY92-59" value="" style="whiteSpace=wrap;html=1;fillColor=#d5e8d4;strokeColor=#82b366;rounded=1;" vertex="1" parent="1">
          <mxGeometry x="390" y="1730" width="270" height="140" as="geometry" />
        </mxCell>
        <mxCell id="byV3v_472FBZaSbdoY92-61" value="comentarios de profesional" style="rounded=1;whiteSpace=wrap;html=1;" vertex="1" parent="1">
          <mxGeometry x="420" y="1750" width="200" height="70" as="geometry" />
        </mxCell>
        <mxCell id="byV3v_472FBZaSbdoY92-62" value="enviar" style="rounded=1;whiteSpace=wrap;html=1;" vertex="1" parent="1">
          <mxGeometry x="550" y="1830" width="60" height="30" as="geometry" />
        </mxCell>
        <mxCell id="byV3v_472FBZaSbdoY92-63" value="X" style="ellipse;whiteSpace=wrap;html=1;fillColor=#f8cecc;strokeColor=#b85450;" vertex="1" parent="1">
          <mxGeometry x="620" y="1730" width="30" height="20" as="geometry" />
        </mxCell>
        <mxCell id="byV3v_472FBZaSbdoY92-64" value="status 200 ok" style="whiteSpace=wrap;html=1;rounded=1;" vertex="1" parent="1">
          <mxGeometry x="480" y="1960" width="120" height="60" as="geometry" />
        </mxCell>
        <mxCell id="byV3v_472FBZaSbdoY92-66" value="vista listar orden pendiente" style="rounded=1;whiteSpace=wrap;html=1;" vertex="1" parent="1">
          <mxGeometry x="610" y="580" width="120" height="60" as="geometry" />
        </mxCell>
        <mxCell id="byV3v_472FBZaSbdoY92-70" value="" style="edgeStyle=orthogonalEdgeStyle;rounded=0;orthogonalLoop=1;jettySize=auto;html=1;" edge="1" parent="1" source="byV3v_472FBZaSbdoY92-67" target="byV3v_472FBZaSbdoY92-69">
          <mxGeometry relative="1" as="geometry" />
        </mxCell>
        <mxCell id="byV3v_472FBZaSbdoY92-103" value="" style="edgeStyle=orthogonalEdgeStyle;rounded=0;orthogonalLoop=1;jettySize=auto;html=1;" edge="1" parent="1" source="byV3v_472FBZaSbdoY92-67" target="byV3v_472FBZaSbdoY92-102">
          <mxGeometry relative="1" as="geometry" />
        </mxCell>
        <mxCell id="byV3v_472FBZaSbdoY92-67" value="lista todas las ordenes pendientes&amp;nbsp;" style="rhombus;whiteSpace=wrap;html=1;" vertex="1" parent="1">
          <mxGeometry x="-300" y="680" width="160" height="140" as="geometry" />
        </mxCell>
        <mxCell id="byV3v_472FBZaSbdoY92-72" value="" style="edgeStyle=orthogonalEdgeStyle;rounded=0;orthogonalLoop=1;jettySize=auto;html=1;" edge="1" parent="1" source="byV3v_472FBZaSbdoY92-69" target="byV3v_472FBZaSbdoY92-71">
          <mxGeometry relative="1" as="geometry" />
        </mxCell>
        <mxCell id="byV3v_472FBZaSbdoY92-69" value="cancelar&lt;div&gt;put&lt;/div&gt;" style="whiteSpace=wrap;html=1;" vertex="1" parent="1">
          <mxGeometry x="-473" y="690" width="120" height="60" as="geometry" />
        </mxCell>
        <mxCell id="byV3v_472FBZaSbdoY92-71" value="se cancelan los datos del profesional , se saca el id del profesional, y el estado vuelve a inicial" style="whiteSpace=wrap;html=1;" vertex="1" parent="1">
          <mxGeometry x="-670" y="660" width="150" height="110" as="geometry" />
        </mxCell>
        <mxCell id="byV3v_472FBZaSbdoY92-73" value="" style="rounded=1;whiteSpace=wrap;html=1;fillColor=#fff2cc;strokeColor=#d6b656;" vertex="1" parent="1">
          <mxGeometry x="-280" y="1280" width="360" height="250" as="geometry" />
        </mxCell>
        <mxCell id="byV3v_472FBZaSbdoY92-74" value="descripciÃ³n del cliente" style="rounded=1;whiteSpace=wrap;html=1;" vertex="1" parent="1">
          <mxGeometry x="-260" y="1315" width="320" height="50" as="geometry" />
        </mxCell>
        <mxCell id="byV3v_472FBZaSbdoY92-75" value="descripciÃ³n del profesional" style="rounded=1;whiteSpace=wrap;html=1;" vertex="1" parent="1">
          <mxGeometry x="-260" y="1380" width="320" height="50" as="geometry" />
        </mxCell>
        <mxCell id="byV3v_472FBZaSbdoY92-78" value="" style="rounded=1;whiteSpace=wrap;html=1;" vertex="1" parent="1">
          <mxGeometry x="-280" y="910" width="390" height="280" as="geometry" />
        </mxCell>
        <mxCell id="byV3v_472FBZaSbdoY92-79" value="orden 1" style="rounded=0;whiteSpace=wrap;html=1;" vertex="1" parent="1">
          <mxGeometry x="-260" y="940" width="350" height="60" as="geometry" />
        </mxCell>
        <mxCell id="byV3v_472FBZaSbdoY92-80" value="orden 2" style="rounded=0;whiteSpace=wrap;html=1;" vertex="1" parent="1">
          <mxGeometry x="-265" y="1010" width="350" height="60" as="geometry" />
        </mxCell>
        <mxCell id="byV3v_472FBZaSbdoY92-82" style="edgeStyle=orthogonalEdgeStyle;rounded=0;orthogonalLoop=1;jettySize=auto;html=1;entryX=0.5;entryY=0;entryDx=0;entryDy=0;" edge="1" parent="1" source="byV3v_472FBZaSbdoY92-81" target="byV3v_472FBZaSbdoY92-73">
          <mxGeometry relative="1" as="geometry" />
        </mxCell>
        <mxCell id="byV3v_472FBZaSbdoY92-81" value="orden 3" style="rounded=0;whiteSpace=wrap;html=1;fillColor=#fff2cc;strokeColor=#d6b656;" vertex="1" parent="1">
          <mxGeometry x="-260" y="1100" width="350" height="60" as="geometry" />
        </mxCell>
        <mxCell id="byV3v_472FBZaSbdoY92-83" value="precio" style="rounded=1;whiteSpace=wrap;html=1;" vertex="1" parent="1">
          <mxGeometry x="-240" y="1460" width="100" height="55" as="geometry" />
        </mxCell>
        <mxCell id="byV3v_472FBZaSbdoY92-87" value="" style="edgeStyle=orthogonalEdgeStyle;rounded=0;orthogonalLoop=1;jettySize=auto;html=1;" edge="1" parent="1" source="byV3v_472FBZaSbdoY92-84" target="byV3v_472FBZaSbdoY92-86">
          <mxGeometry relative="1" as="geometry" />
        </mxCell>
        <mxCell id="byV3v_472FBZaSbdoY92-84" value="aceptar" style="rounded=1;whiteSpace=wrap;html=1;fillColor=#d5e8d4;strokeColor=#82b366;" vertex="1" parent="1">
          <mxGeometry x="-90" y="1460" width="100" height="57.5" as="geometry" />
        </mxCell>
        <mxCell id="byV3v_472FBZaSbdoY92-85" value="X" style="ellipse;whiteSpace=wrap;html=1;fillColor=#f8cecc;strokeColor=#b85450;" vertex="1" parent="1">
          <mxGeometry x="15" y="1275" width="30" height="30" as="geometry" />
        </mxCell>
        <mxCell id="byV3v_472FBZaSbdoY92-100" value="" style="edgeStyle=orthogonalEdgeStyle;rounded=0;orthogonalLoop=1;jettySize=auto;html=1;" edge="1" parent="1" source="byV3v_472FBZaSbdoY92-86" target="byV3v_472FBZaSbdoY92-99">
          <mxGeometry relative="1" as="geometry" />
        </mxCell>
        <mxCell id="byV3v_472FBZaSbdoY92-86" value="cambiar el estado de la orden de pendiente a&amp;nbsp; aprobado" style="whiteSpace=wrap;html=1;fillColor=#d5e8d4;strokeColor=#82b366;rounded=1;" vertex="1" parent="1">
          <mxGeometry x="-240" y="1596.25" width="200" height="83.75" as="geometry" />
        </mxCell>
        <mxCell id="byV3v_472FBZaSbdoY92-90" value="" style="whiteSpace=wrap;html=1;rounded=1;" vertex="1" parent="1">
          <mxGeometry x="1170" y="420" width="290" height="200" as="geometry" />
        </mxCell>
        <mxCell id="byV3v_472FBZaSbdoY92-95" value="" style="edgeStyle=orthogonalEdgeStyle;rounded=0;orthogonalLoop=1;jettySize=auto;html=1;" edge="1" parent="1" source="byV3v_472FBZaSbdoY92-92" target="byV3v_472FBZaSbdoY92-94">
          <mxGeometry relative="1" as="geometry" />
        </mxCell>
        <mxCell id="byV3v_472FBZaSbdoY92-92" value="realizado ok" style="rounded=1;whiteSpace=wrap;html=1;fillColor=#fff2cc;strokeColor=#d6b656;" vertex="1" parent="1">
          <mxGeometry x="1190" y="550" width="100" height="60" as="geometry" />
        </mxCell>
        <mxCell id="byV3v_472FBZaSbdoY92-88" value="orden aprobada y datos del telÃ©fono y nombre y direcciÃ³n del cliente" style="whiteSpace=wrap;html=1;rounded=1;" vertex="1" parent="1">
          <mxGeometry x="1200" y="430" width="220" height="100" as="geometry" />
        </mxCell>
        <mxCell id="byV3v_472FBZaSbdoY92-93" style="edgeStyle=orthogonalEdgeStyle;rounded=0;orthogonalLoop=1;jettySize=auto;html=1;entryX=0.003;entryY=0.43;entryDx=0;entryDy=0;entryPerimeter=0;" edge="1" parent="1" source="byV3v_472FBZaSbdoY92-66" target="byV3v_472FBZaSbdoY92-90">
          <mxGeometry relative="1" as="geometry" />
        </mxCell>
        <mxCell id="byV3v_472FBZaSbdoY92-94" value="puntÃºa al cliente" style="whiteSpace=wrap;html=1;rounded=1;fillColor=#fff2cc;strokeColor=#d6b656;" vertex="1" parent="1">
          <mxGeometry x="1180" y="690" width="120" height="60" as="geometry" />
        </mxCell>
        <mxCell id="byV3v_472FBZaSbdoY92-98" value="" style="edgeStyle=orthogonalEdgeStyle;rounded=0;orthogonalLoop=1;jettySize=auto;html=1;" edge="1" parent="1" source="byV3v_472FBZaSbdoY92-96" target="byV3v_472FBZaSbdoY92-97">
          <mxGeometry relative="1" as="geometry" />
        </mxCell>
        <mxCell id="byV3v_472FBZaSbdoY92-96" value="cancela el trabajo" style="rounded=1;whiteSpace=wrap;html=1;fillColor=#e1d5e7;strokeColor=#9673a6;" vertex="1" parent="1">
          <mxGeometry x="1310" y="550" width="120" height="60" as="geometry" />
        </mxCell>
        <mxCell id="byV3v_472FBZaSbdoY92-97" value="se borran todos los datos del profesional y pasa la orden a modo inicial" style="whiteSpace=wrap;html=1;rounded=1;fillColor=#e1d5e7;strokeColor=#9673a6;" vertex="1" parent="1">
          <mxGeometry x="1510" y="510" width="150" height="100" as="geometry" />
        </mxCell>
        <mxCell id="byV3v_472FBZaSbdoY92-99" value="vista pago ok" style="whiteSpace=wrap;html=1;fillColor=#d5e8d4;strokeColor=#82b366;rounded=1;" vertex="1" parent="1">
          <mxGeometry x="-200" y="1771.875" width="120" height="60" as="geometry" />
        </mxCell>
        <mxCell id="byV3v_472FBZaSbdoY92-101" style="edgeStyle=orthogonalEdgeStyle;rounded=0;orthogonalLoop=1;jettySize=auto;html=1;entryX=0.572;entryY=0.011;entryDx=0;entryDy=0;entryPerimeter=0;" edge="1" parent="1" source="byV3v_472FBZaSbdoY92-67" target="byV3v_472FBZaSbdoY92-78">
          <mxGeometry relative="1" as="geometry" />
        </mxCell>
        <mxCell id="byV3v_472FBZaSbdoY92-102" value="puntuar al profesional y colocar el dinero en la billetera del profesional" style="whiteSpace=wrap;html=1;" vertex="1" parent="1">
          <mxGeometry x="-40" y="720" width="140" height="110" as="geometry" />
        </mxCell>
      </root>
    </mxGraphModel>
  </diagram>
</mxfile>
